<?xml version="1.0" standalone="no"?><?xml-stylesheet type="text/css" href="https://www.processon.com/themes/default/mind/icons/icons.css" ?><!DOCTYPE svg PUBLIC "-//W3C//DTD SVG 1.1//EN" "http://www.w3.org/Graphics/SVG/1.1/DTD/svg11.dtd">
<svg xmlns="http://www.w3.org/2000/svg" version="1.1" xlink="http://www.w3.org/1999/xlink" id="mind-svg-con" width="494px" height="591px" style="position: absolute; left: 0px; top: 0px; width: 494px; height: 591px; z-index: 999;"><defs></defs><g id="svgbackgroundid"><defs></defs><rect x="0" y="0" width="494" height="591" fill="transparent"></rect></g><g transform="translate(-9916.5, -9654)" id="sdjakdjak8"><defs></defs><g class="svg-topic-con" transform="translate(0.5,0.5)"><path part="right" sub="true" id="line_b0245f99ccb1d9c4" d="M 10000 9950 L 10083.5 9950 L 10083.5 9708.5 A 8 8 0 0 1 10091.5 9700.5 L 10113.5 9700.5" stroke="#746e6a" fill="none" stroke-width="1"></path><path part="right" sub="true" id="line_56b3d850de2d9389" d="M 10000 9950 L 10083.5 9950 L 10083.5 9761.5 A 8 8 0 0 1 10091.5 9753.5 L 10113.5 9753.5" stroke="#746e6a" fill="none" stroke-width="1"></path><path part="right" sub="true" id="line_ea581583b849fe3e" d="M 10000 9950 L 10083.5 9950 L 10083.5 9814.5 A 8 8 0 0 1 10091.5 9806.5 L 10113.5 9806.5" stroke="#746e6a" fill="none" stroke-width="1"></path><path part="right" sub="true" id="line_417731f206da3b92" d="M 10000 9950 L 10083.5 9950 L 10083.5 9867.5 A 8 8 0 0 1 10091.5 9859.5 L 10113.5 9859.5" stroke="#746e6a" fill="none" stroke-width="1"></path><path part="right" sub="true" id="line_b8a4080804a93f4a" d="M 10000 9950 L 10083.5 9950 L 10083.5 9948 L 10113.5 9948" stroke="#746e6a" fill="none" stroke-width="1"></path><path part="right" sub="true" id="line_2745d2b26837" d="M 10000 9950 L 10083.5 9950 L 10083.5 10083 A 8 8 0 0 0 10091.5 10091 L 10113.5 10091" stroke="#746E6A" fill="none" stroke-width="1"></path><path part="right" sub="true" id="line_70eff42746522744" d="M 10000 9950 L 10083.5 9950 L 10083.5 10190.5 A 8 8 0 0 0 10091.5 10198.5 L 10113.5 10198.5" stroke="#746e6a" fill="none" stroke-width="1"></path></g><g class="svg-connection-con" transform="translate(0.5,0.5)"></g><g class="svg-freesums-con" transform="translate(0.5,0.5)"></g><g class="svg-freebos-con" transform="translate(0.5,0.5)"></g></g><g transform="translate(30, 276)" id="sdjakdjak7"><g id="subline_root" transform="translate(0.5,0.5)"></g><g transform="translate(0.5,0.5)"></g><g class="svg-summary-con" transform="translate(0.5,0.5)"></g><g class="svg-boundary-con" transform="translate(0.5,0.5)"></g></g><g transform="translate(197, 30)" id="sdjakdjak6"><g id="subline_b0245f99ccb1d9c4" transform="translate(0.5,0.5)"></g><g transform="translate(0.5,0.5)"></g><g class="svg-summary-con" transform="translate(0.5,0.5)"></g><g class="svg-boundary-con" transform="translate(0.5,0.5)"></g></g><g transform="translate(197, 83)" id="sdjakdjak5"><g id="subline_56b3d850de2d9389" transform="translate(0.5,0.5)"></g><g transform="translate(0.5,0.5)"></g><g class="svg-summary-con" transform="translate(0.5,0.5)"></g><g class="svg-boundary-con" transform="translate(0.5,0.5)"></g></g><g transform="translate(197, 136)" id="sdjakdjak4"><g id="subline_ea581583b849fe3e" transform="translate(0.5,0.5)"></g><g transform="translate(0.5,0.5)"></g><g class="svg-summary-con" transform="translate(0.5,0.5)"></g><g class="svg-boundary-con" transform="translate(0.5,0.5)"></g></g><g transform="translate(197, 189)" id="sdjakdjak3"><g id="subline_417731f206da3b92" transform="translate(0.5,0.5)"><path id="line_7814a7d6a7e1d572" d="M 97.0390625 16.5 L 116 16.5 L 116 16.5 L 133.0390625 16.5" p="417731f206da3b92" stroke="#746e6a" fill="none" stroke-linecap="square" stroke-width="1"></path></g><g transform="translate(0.5,0.5)"></g><g class="svg-summary-con" transform="translate(0.5,0.5)"></g><g class="svg-boundary-con" transform="translate(0.5,0.5)"></g></g><g transform="translate(197, 242)" id="sdjakdjak2"><g id="subline_b8a4080804a93f4a" transform="translate(0.5,0.5)"><path id="line_c01641020ca62202" d="M 131.2109375 52 L 150 52 L 150 18 A 4 4 0 0 1 154 14 L 167.2109375 14" p="b8a4080804a93f4a" stroke="#746e6a" fill="none" stroke-linecap="square" stroke-width="1"></path><path id="line_8c5e65248c58660c" d="M 131.2109375 52 L 150 52 L 150 52 L 167.2109375 52" p="b8a4080804a93f4a" stroke="#746e6a" fill="none" stroke-linecap="square" stroke-width="1"></path><path id="line_8fdd11ce64cf50c7" d="M 131.2109375 52 L 150 52 L 150 86 A 4 4 0 0 0 154 90 L 167.2109375 90" p="b8a4080804a93f4a" stroke="#746e6a" fill="none" stroke-linecap="square" stroke-width="1"></path></g><g transform="translate(0.5,0.5)"></g><g class="svg-summary-con" transform="translate(0.5,0.5)"></g><g class="svg-boundary-con" transform="translate(0.5,0.5)"></g></g><g transform="translate(197, 366)" id="sdjakdjak1"><g id="subline_2745d2b26837" transform="translate(0.5,0.5)"><path id="line_ec1646587589" d="M 74.5390625 71 L 93 71 L 93 18 A 4 4 0 0 1 97 14 L 110.5390625 14" p="2745d2b26837" stroke="#746e6a" fill="none" stroke-linecap="square" stroke-width="1"></path><path id="line_353d62b90bea" d="M 74.5390625 71 L 93 71 L 93 56 A 4 4 0 0 1 97 52 L 110.5390625 52" p="2745d2b26837" stroke="#746e6a" fill="none" stroke-linecap="square" stroke-width="1"></path><path id="line_d361d70baf907f7b" d="M 74.5390625 71 L 93 71 L 93 86 A 4 4 0 0 0 97 90 L 110.5390625 90" p="2745d2b26837" stroke="#746e6a" fill="none" stroke-linecap="square" stroke-width="1"></path><path id="line_c7e6b83b77031646" d="M 74.5390625 71 L 93 71 L 93 124 A 4 4 0 0 0 97 128 L 110.5390625 128" p="2745d2b26837" stroke="#746e6a" fill="none" stroke-linecap="square" stroke-width="1"></path></g><g transform="translate(0.5,0.5)"></g><g class="svg-summary-con" transform="translate(0.5,0.5)"></g><g class="svg-boundary-con" transform="translate(0.5,0.5)"></g></g><g transform="translate(197, 528)" id="sdjakdjak0"><g id="subline_70eff42746522744" transform="translate(0.5,0.5)"></g><g transform="translate(0.5,0.5)"></g><g class="svg-summary-con" transform="translate(0.5,0.5)"></g><g class="svg-boundary-con" transform="translate(0.5,0.5)"></g></g><g id="70eff42746522744"><rect x="197" y="528" rx="6px" ry="6px" width="85" height="33" style="fill: #fff; stroke:#d1cecd;stroke-width:1px;"></rect><g><text text-anchor="start" align="top" anchor="start" font-size="15px" font-weight="normal" fill="rgb(89, 89, 89)" style="font-size:15px;font-family:arial, 黑体;color:#595959;font-style:normal;text-align:left;font-weight:normal;font-style: normal;"><tspan x="208" y="549"><tspan>增加 pm2</tspan></tspan></text></g></g><g id="2745d2b26837"><rect x="197" y="420.5" rx="6px" ry="6px" width="75" height="33" style="fill: #fff; stroke:#d1cecd;stroke-width:1px;"></rect><g><text text-anchor="start" align="top" anchor="start" font-size="15px" font-weight="normal" fill="rgb(89, 89, 89)" style="font-size:15px;font-family:arial, 黑体;color:#595959;font-style:normal;text-align:left;font-weight:normal;font-style: normal;"><tspan x="208" y="441.5"><tspan>git hook</tspan></tspan></text></g></g><g id="ec1646587589"><rect x="307.5390625" y="366" rx="1px" ry="1px" width="51" height="28" style="fill: transparent; stroke:none;"></rect><g><text text-anchor="start" align="top" anchor="start" font-size="12px" font-weight="normal" fill="rgb(96, 96, 96)" style="font-size:12px;font-family:arial, 黑体;color:#606060;font-style:normal;text-align:left;font-weight:normal;font-style: normal;"><tspan x="317.5390625" y="382.15999999999997"><tspan>husky</tspan></tspan></text></g></g><g id="353d62b90bea"><rect x="307.5390625" y="404" rx="1px" ry="1px" width="115" height="28" style="fill: transparent; stroke:none;"></rect><g><text text-anchor="start" align="top" anchor="start" font-size="12px" font-weight="normal" fill="rgb(96, 96, 96)" style="font-size:12px;font-family:arial, 黑体;color:#606060;font-style:normal;text-align:left;font-weight:normal;font-style: normal;"><tspan x="317.5390625" y="420.15999999999997"><tspan>npm 钩子 prepare</tspan></tspan></text></g></g><g id="d361d70baf907f7b"><rect x="307.5390625" y="442" rx="1px" ry="1px" width="71" height="28" style="fill: transparent; stroke:none;"></rect><g><text text-anchor="start" align="top" anchor="start" font-size="12px" font-weight="normal" fill="rgb(96, 96, 96)" style="font-size:12px;font-family:arial, 黑体;color:#606060;font-style:normal;text-align:left;font-weight:normal;font-style: normal;"><tspan x="317.5390625" y="458.15999999999997"><tspan>npm 钩子</tspan></tspan></text></g></g><g id="c7e6b83b77031646"><rect x="307.5390625" y="480" rx="1px" ry="1px" width="69" height="28" style="fill: transparent; stroke:none;"></rect><g><text text-anchor="start" align="top" anchor="start" font-size="12px" font-weight="normal" fill="rgb(96, 96, 96)" style="font-size:12px;font-family:arial, 黑体;color:#606060;font-style:normal;text-align:left;font-weight:normal;font-style: normal;"><tspan x="317.5390625" y="496.15999999999997"><tspan>lint-stage</tspan></tspan></text></g></g><g id="b8a4080804a93f4a"><rect x="197" y="277.5" rx="6px" ry="6px" width="131" height="33" style="fill: #fff; stroke:#d1cecd;stroke-width:1px;"></rect><g><text text-anchor="start" align="top" anchor="start" font-size="15px" font-weight="normal" fill="rgb(89, 89, 89)" style="font-size:15px;font-family:arial, 黑体;color:#595959;font-style:normal;text-align:left;font-weight:normal;font-style: normal;"><tspan x="208" y="298.5"><tspan> eslint 和 prettier</tspan></tspan></text></g></g><g id="c01641020ca62202"><rect x="364.2109375" y="242" rx="1px" ry="1px" width="50" height="28" style="fill: transparent; stroke:none;"></rect><g><text text-anchor="start" align="top" anchor="start" font-size="12px" font-weight="normal" fill="rgb(96, 96, 96)" style="font-size:12px;font-family:arial, 黑体;color:#606060;font-style:normal;text-align:left;font-weight:normal;font-style: normal;"><tspan x="374.2109375" y="258.15999999999997"><tspan>eslint</tspan></tspan></text></g></g><g id="8c5e65248c58660c"><rect x="364.2109375" y="280" rx="1px" ry="1px" width="99" height="28" style="fill: transparent; stroke:none;"></rect><g><text text-anchor="start" align="top" anchor="start" font-size="12px" font-weight="normal" fill="rgb(96, 96, 96)" style="font-size:12px;font-family:arial, 黑体;color:#606060;font-style:normal;text-align:left;font-weight:normal;font-style: normal;"><tspan x="374.2109375" y="296.15999999999997"><tspan>eslint 配置简介</tspan></tspan></text></g></g><g id="8fdd11ce64cf50c7"><rect x="364.2109375" y="318" rx="1px" ry="1px" width="57" height="28" style="fill: transparent; stroke:none;"></rect><g><text text-anchor="start" align="top" anchor="start" font-size="12px" font-weight="normal" fill="rgb(96, 96, 96)" style="font-size:12px;font-family:arial, 黑体;color:#606060;font-style:normal;text-align:left;font-weight:normal;font-style: normal;"><tspan x="374.2109375" y="334.15999999999997"><tspan>prettier</tspan></tspan></text></g></g><g id="417731f206da3b92"><rect x="197" y="189" rx="6px" ry="6px" width="97" height="33" style="fill: #fff; stroke:#d1cecd;stroke-width:1px;"></rect><g><text text-anchor="start" align="top" anchor="start" font-size="15px" font-weight="normal" fill="rgb(89, 89, 89)" style="font-size:15px;font-family:arial, 黑体;color:#595959;font-style:normal;text-align:left;font-weight:normal;font-style: normal;"><tspan x="208" y="210"><tspan>安装 babel </tspan></tspan></text></g></g><g id="7814a7d6a7e1d572"><rect x="330.0390625" y="191.5" rx="1px" ry="1px" width="68" height="28" style="fill: transparent; stroke:none;"></rect><g><text text-anchor="start" align="top" anchor="start" font-size="12px" font-weight="normal" fill="rgb(96, 96, 96)" style="font-size:12px;font-family:arial, 黑体;color:#606060;font-style:normal;text-align:left;font-weight:normal;font-style: normal;"><tspan x="340.0390625" y="207.66"><tspan>改造项目</tspan></tspan></text></g></g><g id="ea581583b849fe3e"><rect x="197" y="136" rx="6px" ry="6px" width="119" height="33" style="fill: #fff; stroke:#d1cecd;stroke-width:1px;"></rect><g><text text-anchor="start" align="top" anchor="start" font-size="15px" font-weight="normal" fill="rgb(89, 89, 89)" style="font-size:15px;font-family:arial, 黑体;color:#595959;font-style:normal;text-align:left;font-weight:normal;font-style: normal;"><tspan x="208" y="157"><tspan>安装 nodemon</tspan></tspan></text></g></g><g id="56b3d850de2d9389"><rect x="197" y="83" rx="6px" ry="6px" width="98" height="33" style="fill: #fff; stroke:#d1cecd;stroke-width:1px;"></rect><g><text text-anchor="start" align="top" anchor="start" font-size="15px" font-weight="normal" fill="rgb(89, 89, 89)" style="font-size:15px;font-family:arial, 黑体;color:#595959;font-style:normal;text-align:left;font-weight:normal;font-style: normal;"><tspan x="208" y="104"><tspan>开启 debug</tspan></tspan></text></g></g><g id="b0245f99ccb1d9c4"><rect x="197" y="30" rx="6px" ry="6px" width="101" height="33" style="fill: #fff; stroke:#d1cecd;stroke-width:1px;"></rect><g><text text-anchor="start" align="top" anchor="start" font-size="15px" font-weight="normal" fill="rgb(89, 89, 89)" style="font-size:15px;font-family:arial, 黑体;color:#595959;font-style:normal;text-align:left;font-weight:normal;font-style: normal;"><tspan x="208" y="51"><tspan> 初始化项目</tspan></tspan></text></g></g><g id="root"><rect x="30" y="276" rx="6px" ry="6px" width="107" height="40" style="fill: #fff; stroke:#b2afad;stroke-width:1px;"></rect><g><text text-anchor="start" align="top" anchor="start" font-size="16px" font-weight="normal" fill="rgb(78, 78, 78)" style="font-size:16px;font-family:arial, 黑体;color:#4e4e4e;font-style:normal;text-align:left;font-weight:normal;font-style: normal;"><tspan x="41" y="301"><tspan>eslint工作流</tspan></tspan></text></g></g></svg>
