<?xml version="1.0" standalone="no"?><?xml-stylesheet type="text/css" href="https://www.processon.com/themes/default/mind/icons/icons.css" ?><!DOCTYPE svg PUBLIC "-//W3C//DTD SVG 1.1//EN" "http://www.w3.org/Graphics/SVG/1.1/DTD/svg11.dtd">
<svg xmlns="http://www.w3.org/2000/svg" version="1.1" xlink="http://www.w3.org/1999/xlink" id="mind-svg-con" width="591px" height="896px" style="position: absolute; left: 0px; top: 0px; width: 591px; height: 896px; background: #fff; z-index: 999;"><defs></defs><g id="svgbackgroundid"><defs></defs><rect x="0" y="0" width="591" height="896" fill="#fff"></rect></g><g transform="translate(-9944, -9502)" id="sdjakdjak3"><defs></defs><g class="svg-topic-con" transform="translate(0.5,0.5)"><path part="right" sub="true" id="line_dac0e62a7ee8" d="M 10000 9950 L 10056 9950 L 10056 9725 A 8 8 0 0 1 10064 9717 L 10086 9717" stroke="#746e6a" fill="none" stroke-width="1"></path><path part="right" sub="true" id="line_bc69091d9342" d="M 10000 9950 L 10056 9950 L 10056 10137 A 8 8 0 0 0 10064 10145 L 10086 10145" stroke="#746e6a" fill="none" stroke-width="1"></path></g><g class="svg-connection-con" transform="translate(0.5,0.5)"></g><g class="svg-freesums-con" transform="translate(0.5,0.5)"></g><g class="svg-freebos-con" transform="translate(0.5,0.5)"></g></g><g id="bc69091d9342"><rect x="142" y="626.5" rx="6px" ry="6px" width="127" height="33" style="fill: #fff; stroke:#d1cecd;stroke-width:1px;"></rect><g><text text-anchor="start" align="top" anchor="start" font-size="15px" font-weight="normal" fill="rgb(89, 89, 89)" style="font-size:15px;font-family:arial, 黑体;color:#595959;font-style:normal;text-align:left;font-weight:normal;font-style: normal;"><tspan x="153" y="647.5"><tspan>二叉树（面试）</tspan></tspan></text></g></g><g id="0b82e1cc09f5"><rect x="305" y="496" rx="1px" ry="1px" width="80" height="28" style="fill: transparent; stroke:none;"></rect><g><text text-anchor="start" align="top" anchor="start" font-size="12px" font-weight="normal" fill="rgb(96, 96, 96)" style="font-size:12px;font-family:arial, 黑体;color:#606060;font-style:normal;text-align:left;font-weight:normal;font-style: normal;"><tspan x="315" y="512.16"><tspan>二叉树遍历</tspan></tspan></text></g></g><g id="e3093586159d4b1e"><rect x="421" y="420" rx="1px" ry="1px" width="68" height="28" style="fill: transparent; stroke:none;"></rect><g><text text-anchor="start" align="top" anchor="start" font-size="12px" font-weight="normal" fill="rgb(96, 96, 96)" style="font-size:12px;font-family:arial, 黑体;color:#606060;font-style:normal;text-align:left;font-weight:normal;font-style: normal;"><tspan x="431" y="436.15999999999997"><tspan>前序遍历</tspan></tspan></text></g></g><g id="736f1e800ad3b390"><rect x="421" y="458" rx="1px" ry="1px" width="68" height="28" style="fill: transparent; stroke:none;"></rect><g><text text-anchor="start" align="top" anchor="start" font-size="12px" font-weight="normal" fill="rgb(96, 96, 96)" style="font-size:12px;font-family:arial, 黑体;color:#606060;font-style:normal;text-align:left;font-weight:normal;font-style: normal;"><tspan x="431" y="474.15999999999997"><tspan>中序遍历</tspan></tspan></text></g></g><g id="b3b70b3bc2aae542"><rect x="421" y="496" rx="1px" ry="1px" width="68" height="28" style="fill: transparent; stroke:none;"></rect><g><text text-anchor="start" align="top" anchor="start" font-size="12px" font-weight="normal" fill="rgb(96, 96, 96)" style="font-size:12px;font-family:arial, 黑体;color:#606060;font-style:normal;text-align:left;font-weight:normal;font-style: normal;"><tspan x="431" y="512.16"><tspan>后序遍历</tspan></tspan></text></g></g><g id="52c720033a749e55"><rect x="421" y="534" rx="1px" ry="1px" width="68" height="28" style="fill: transparent; stroke:none;"></rect><g><text text-anchor="start" align="top" anchor="start" font-size="12px" font-weight="normal" fill="rgb(96, 96, 96)" style="font-size:12px;font-family:arial, 黑体;color:#606060;font-style:normal;text-align:left;font-weight:normal;font-style: normal;"><tspan x="431" y="550.1600000000001"><tspan>按层遍历</tspan></tspan></text></g></g><g id="7492a83a2d7282ab"><rect x="421" y="572" rx="1px" ry="1px" width="68" height="28" style="fill: transparent; stroke:none;"></rect><g><text text-anchor="start" align="top" anchor="start" font-size="12px" font-weight="normal" fill="rgb(96, 96, 96)" style="font-size:12px;font-family:arial, 黑体;color:#606060;font-style:normal;text-align:left;font-weight:normal;font-style: normal;"><tspan x="431" y="588.1600000000001"><tspan>之字遍历</tspan></tspan></text></g></g><g id="636558b2132cd446"><rect x="305" y="648" rx="1px" ry="1px" width="80" height="28" style="fill: transparent; stroke:none;"></rect><g><text text-anchor="start" align="top" anchor="start" font-size="12px" font-weight="normal" fill="rgb(96, 96, 96)" style="font-size:12px;font-family:arial, 黑体;color:#606060;font-style:normal;text-align:left;font-weight:normal;font-style: normal;"><tspan x="315" y="664.1600000000001"><tspan>二叉搜索树</tspan></tspan></text></g></g><g id="21985d575ccfb710"><rect x="421" y="610" rx="1px" ry="1px" width="140" height="28" style="fill: transparent; stroke:none;"></rect><g><text text-anchor="start" align="top" anchor="start" font-size="12px" font-weight="normal" fill="rgb(96, 96, 96)" style="font-size:12px;font-family:arial, 黑体;color:#606060;font-style:normal;text-align:left;font-weight:normal;font-style: normal;"><tspan x="431" y="626.1600000000001"><tspan>二叉搜索树转有序数组</tspan></tspan></text></g></g><g id="640b094f80c4bb89"><rect x="421" y="648" rx="1px" ry="1px" width="140" height="28" style="fill: transparent; stroke:none;"></rect><g><text text-anchor="start" align="top" anchor="start" font-size="12px" font-weight="normal" fill="rgb(96, 96, 96)" style="font-size:12px;font-family:arial, 黑体;color:#606060;font-style:normal;text-align:left;font-weight:normal;font-style: normal;"><tspan x="431" y="664.1600000000001"><tspan>有序数组转二叉搜索树</tspan></tspan></text></g></g><g id="3b1596f1f56cf30c"><rect x="421" y="686" rx="1px" ry="1px" width="104" height="28" style="fill: transparent; stroke:none;"></rect><g><text text-anchor="start" align="top" anchor="start" font-size="12px" font-weight="normal" fill="rgb(96, 96, 96)" style="font-size:12px;font-family:arial, 黑体;color:#606060;font-style:normal;text-align:left;font-weight:normal;font-style: normal;"><tspan x="431" y="702.1600000000001"><tspan>验证二叉搜索树</tspan></tspan></text></g></g><g id="c6f0ce37cabe"><rect x="305" y="724" rx="1px" ry="1px" width="116" height="28" style="fill: transparent; stroke:none;"></rect><g><text text-anchor="start" align="top" anchor="start" font-size="12px" font-weight="normal" fill="rgb(96, 96, 96)" style="font-size:12px;font-family:arial, 黑体;color:#606060;font-style:normal;text-align:left;font-weight:normal;font-style: normal;"><tspan x="315" y="740.1600000000001"><tspan>最大深度最小深度</tspan></tspan></text></g></g><g id="747d8c333a61068e"><rect x="305" y="762" rx="1px" ry="1px" width="92" height="28" style="fill: transparent; stroke:none;"></rect><g><text text-anchor="start" align="top" anchor="start" font-size="12px" font-weight="normal" fill="rgb(96, 96, 96)" style="font-size:12px;font-family:arial, 黑体;color:#606060;font-style:normal;text-align:left;font-weight:normal;font-style: normal;"><tspan x="315" y="778.1600000000001"><tspan>最近公共祖先</tspan></tspan></text></g></g><g id="0263160a3192a6bd"><rect x="305" y="800" rx="1px" ry="1px" width="92" height="28" style="fill: transparent; stroke:none;"></rect><g><text text-anchor="start" align="top" anchor="start" font-size="12px" font-weight="normal" fill="rgb(96, 96, 96)" style="font-size:12px;font-family:arial, 黑体;color:#606060;font-style:normal;text-align:left;font-weight:normal;font-style: normal;"><tspan x="315" y="816.1600000000001"><tspan>左右子树互换</tspan></tspan></text></g></g><g id="66066dbc1656cd3b"><rect x="305" y="838" rx="1px" ry="1px" width="80" height="28" style="fill: transparent; stroke:none;"></rect><g><text text-anchor="start" align="top" anchor="start" font-size="12px" font-weight="normal" fill="rgb(96, 96, 96)" style="font-size:12px;font-family:arial, 黑体;color:#606060;font-style:normal;text-align:left;font-weight:normal;font-style: normal;"><tspan x="315" y="854.1600000000001"><tspan>镜像二叉树</tspan></tspan></text></g></g><g id="dac0e62a7ee8"><rect x="142" y="198.5" rx="6px" ry="6px" width="97" height="33" style="fill: #fff; stroke:#d1cecd;stroke-width:1px;"></rect><g><text text-anchor="start" align="top" anchor="start" font-size="15px" font-weight="normal" fill="rgb(89, 89, 89)" style="font-size:15px;font-family:arial, 黑体;color:#595959;font-style:normal;text-align:left;font-weight:normal;font-style: normal;"><tspan x="153" y="219.5"><tspan>树（工作）</tspan></tspan></text></g></g><g id="c7cedd4c3f83"><rect x="275" y="49" rx="1px" ry="1px" width="56" height="28" style="fill: transparent; stroke:none;"></rect><g><text text-anchor="start" align="top" anchor="start" font-size="12px" font-weight="normal" fill="rgb(96, 96, 96)" style="font-size:12px;font-family:arial, 黑体;color:#606060;font-style:normal;text-align:left;font-weight:normal;font-style: normal;"><tspan x="285" y="65.16"><tspan>遍历树</tspan></tspan></text></g></g><g id="9e2e613efd3997ee"><rect x="367" y="30" rx="1px" ry="1px" width="92" height="28" style="fill: transparent; stroke:none;"></rect><g><text text-anchor="start" align="top" anchor="start" font-size="12px" font-weight="normal" fill="rgb(96, 96, 96)" style="font-size:12px;font-family:arial, 黑体;color:#606060;font-style:normal;text-align:left;font-weight:normal;font-style: normal;"><tspan x="377" y="46.16"><tspan>广度优先遍历</tspan></tspan></text></g></g><g id="73d989869faa0f16"><rect x="367" y="68" rx="1px" ry="1px" width="92" height="28" style="fill: transparent; stroke:none;"></rect><g><text text-anchor="start" align="top" anchor="start" font-size="12px" font-weight="normal" fill="rgb(96, 96, 96)" style="font-size:12px;font-family:arial, 黑体;color:#606060;font-style:normal;text-align:left;font-weight:normal;font-style: normal;"><tspan x="377" y="84.16"><tspan>深度优先遍历</tspan></tspan></text></g></g><g id="7e751ec418e5"><rect x="275" y="163" rx="1px" ry="1px" width="50" height="28" style="fill: transparent; stroke:none;"></rect><g><text text-anchor="start" align="top" anchor="start" font-size="12px" font-weight="normal" fill="rgb(96, 96, 96)" style="font-size:12px;font-family:arial, 黑体;color:#606060;font-style:normal;text-align:left;font-weight:normal;font-style: normal;"><tspan x="285" y="179.16"><tspan>查找</tspan></tspan></text></g></g><g id="dcab57a57ed23b07"><rect x="361" y="106" rx="1px" ry="1px" width="77" height="28" style="fill: transparent; stroke:none;"></rect><g><text text-anchor="start" align="top" anchor="start" font-size="12px" font-weight="normal" fill="rgb(96, 96, 96)" style="font-size:12px;font-family:arial, 黑体;color:#606060;font-style:normal;text-align:left;font-weight:normal;font-style: normal;"><tspan x="371" y="122.16"><tspan>根据id查找</tspan></tspan></text></g></g><g id="3c5a6254c6202c47"><rect x="361" y="144" rx="1px" ry="1px" width="92" height="28" style="fill: transparent; stroke:none;"></rect><g><text text-anchor="start" align="top" anchor="start" font-size="12px" font-weight="normal" fill="rgb(96, 96, 96)" style="font-size:12px;font-family:arial, 黑体;color:#606060;font-style:normal;text-align:left;font-weight:normal;font-style: normal;"><tspan x="371" y="160.16"><tspan>根据回调查找</tspan></tspan></text></g></g><g id="d1f4ad0ad67123b4"><rect x="361" y="182" rx="1px" ry="1px" width="92" height="28" style="fill: transparent; stroke:none;"></rect><g><text text-anchor="start" align="top" anchor="start" font-size="12px" font-weight="normal" fill="rgb(96, 96, 96)" style="font-size:12px;font-family:arial, 黑体;color:#606060;font-style:normal;text-align:left;font-weight:normal;font-style: normal;"><tspan x="371" y="198.16"><tspan>查找节点路径</tspan></tspan></text></g></g><g id="0274d8cb3d72127d"><rect x="361" y="220" rx="1px" ry="1px" width="116" height="28" style="fill: transparent; stroke:none;"></rect><g><text text-anchor="start" align="top" anchor="start" font-size="12px" font-weight="normal" fill="rgb(96, 96, 96)" style="font-size:12px;font-family:arial, 黑体;color:#606060;font-style:normal;text-align:left;font-weight:normal;font-style: normal;"><tspan x="371" y="236.16"><tspan>查找多条节点路径</tspan></tspan></text></g></g><g id="7fe7581b558f"><rect x="275" y="258" rx="1px" ry="1px" width="96" height="28" style="fill: transparent; stroke:none;"></rect><g><text text-anchor="start" align="top" anchor="start" font-size="12px" font-weight="normal" fill="rgb(96, 96, 96)" style="font-size:12px;font-family:arial, 黑体;color:#606060;font-style:normal;text-align:left;font-weight:normal;font-style: normal;"><tspan x="285" y="274.15999999999997"><tspan>给树增加 level</tspan></tspan></text></g></g><g id="1281d5e7572333e8"><rect x="275" y="296" rx="1px" ry="1px" width="115" height="28" style="fill: transparent; stroke:none;"></rect><g><text text-anchor="start" align="top" anchor="start" font-size="12px" font-weight="normal" fill="rgb(96, 96, 96)" style="font-size:12px;font-family:arial, 黑体;color:#606060;font-style:normal;text-align:left;font-weight:normal;font-style: normal;"><tspan x="285" y="312.15999999999997"><tspan>给树增加 parentId</tspan></tspan></text></g></g><g id="2ad985476e19"><rect x="275" y="334" rx="1px" ry="1px" width="68" height="28" style="fill: transparent; stroke:none;"></rect><g><text text-anchor="start" align="top" anchor="start" font-size="12px" font-weight="normal" fill="rgb(96, 96, 96)" style="font-size:12px;font-family:arial, 黑体;color:#606060;font-style:normal;text-align:left;font-weight:normal;font-style: normal;"><tspan x="285" y="350.15999999999997"><tspan>树转数组</tspan></tspan></text></g></g><g id="36fc8bf71451"><rect x="275" y="372" rx="1px" ry="1px" width="68" height="28" style="fill: transparent; stroke:none;"></rect><g><text text-anchor="start" align="top" anchor="start" font-size="12px" font-weight="normal" fill="rgb(96, 96, 96)" style="font-size:12px;font-family:arial, 黑体;color:#606060;font-style:normal;text-align:left;font-weight:normal;font-style: normal;"><tspan x="285" y="388.15999999999997"><tspan>数组转树</tspan></tspan></text></g></g><g transform="translate(142, 420)" id="sdjakdjak0"><g id="subline_bc69091d9342" transform="translate(0.5,-0.5)"><path id="line_0b82e1cc09f5" d="M 127 223 L 145 223 L 145 94 A 4 4 0 0 1 149 90 L 163 90" p="bc69091d9342" stroke="#746e6a" fill="none" stroke-linecap="square" stroke-width="1"></path><path id="line_e3093586159d4b1e" d="M 243 90 L 261 90 L 261 18 A 4 4 0 0 1 265 14 L 279 14" p="0b82e1cc09f5" stroke="#746e6a" fill="none" stroke-linecap="square" stroke-width="1"></path><path id="line_736f1e800ad3b390" d="M 243 90 L 261 90 L 261 56 A 4 4 0 0 1 265 52 L 279 52" p="0b82e1cc09f5" stroke="#746e6a" fill="none" stroke-linecap="square" stroke-width="1"></path><path id="line_b3b70b3bc2aae542" d="M 243 90 L 261 90 L 261 90 L 279 90" p="0b82e1cc09f5" stroke="#746e6a" fill="none" stroke-linecap="square" stroke-width="1"></path><path id="line_52c720033a749e55" d="M 243 90 L 261 90 L 261 124 A 4 4 0 0 0 265 128 L 279 128" p="0b82e1cc09f5" stroke="#746e6a" fill="none" stroke-linecap="square" stroke-width="1"></path><path id="line_7492a83a2d7282ab" d="M 243 90 L 261 90 L 261 162 A 4 4 0 0 0 265 166 L 279 166" p="0b82e1cc09f5" stroke="#746e6a" fill="none" stroke-linecap="square" stroke-width="1"></path><path id="line_636558b2132cd446" d="M 127 223 L 145 223 L 145 238 A 4 4 0 0 0 149 242 L 163 242" p="bc69091d9342" stroke="#746e6a" fill="none" stroke-linecap="square" stroke-width="1"></path><path id="line_21985d575ccfb710" d="M 243 242 L 261 242 L 261 208 A 4 4 0 0 1 265 204 L 279 204" p="636558b2132cd446" stroke="#746e6a" fill="none" stroke-linecap="square" stroke-width="1"></path><path id="line_640b094f80c4bb89" d="M 243 242 L 261 242 L 261 242 L 279 242" p="636558b2132cd446" stroke="#746e6a" fill="none" stroke-linecap="square" stroke-width="1"></path><path id="line_3b1596f1f56cf30c" d="M 243 242 L 261 242 L 261 276 A 4 4 0 0 0 265 280 L 279 280" p="636558b2132cd446" stroke="#746e6a" fill="none" stroke-linecap="square" stroke-width="1"></path><path id="line_c6f0ce37cabe" d="M 127 223 L 145 223 L 145 314 A 4 4 0 0 0 149 318 L 163 318" p="bc69091d9342" stroke="#746e6a" fill="none" stroke-linecap="square" stroke-width="1"></path><path id="line_747d8c333a61068e" d="M 127 223 L 145 223 L 145 352 A 4 4 0 0 0 149 356 L 163 356" p="bc69091d9342" stroke="#746e6a" fill="none" stroke-linecap="square" stroke-width="1"></path><path id="line_0263160a3192a6bd" d="M 127 223 L 145 223 L 145 390 A 4 4 0 0 0 149 394 L 163 394" p="bc69091d9342" stroke="#746e6a" fill="none" stroke-linecap="square" stroke-width="1"></path><path id="line_66066dbc1656cd3b" d="M 127 223 L 145 223 L 145 428 A 4 4 0 0 0 149 432 L 163 432" p="bc69091d9342" stroke="#746e6a" fill="none" stroke-linecap="square" stroke-width="1"></path></g><g transform="translate(0.5,0)"></g><g class="svg-summary-con" transform="translate(0.5,0.5)"></g><g class="svg-boundary-con" transform="translate(0.5,0.5)"></g></g><g transform="translate(142, 30)" id="sdjakdjak1"><g id="subline_dac0e62a7ee8" transform="translate(0.5,-0.5)"><path id="line_c7cedd4c3f83" d="M 97 185 L 115 185 L 115 37 A 4 4 0 0 1 119 33 L 133 33" p="dac0e62a7ee8" stroke="#746e6a" fill="none" stroke-linecap="square" stroke-width="1"></path><path id="line_9e2e613efd3997ee" d="M 189 33 L 207 33 L 207 18 A 4 4 0 0 1 211 14 L 225 14" p="c7cedd4c3f83" stroke="#746e6a" fill="none" stroke-linecap="square" stroke-width="1"></path><path id="line_73d989869faa0f16" d="M 189 33 L 207 33 L 207 48 A 4 4 0 0 0 211 52 L 225 52" p="c7cedd4c3f83" stroke="#746e6a" fill="none" stroke-linecap="square" stroke-width="1"></path><path id="line_7e751ec418e5" d="M 97 185 L 115 185 L 115 151 A 4 4 0 0 1 119 147 L 133 147" p="dac0e62a7ee8" stroke="#746e6a" fill="none" stroke-linecap="square" stroke-width="1"></path><path id="line_dcab57a57ed23b07" d="M 183 147 L 201 147 L 201 94 A 4 4 0 0 1 205 90 L 219 90" p="7e751ec418e5" stroke="#746e6a" fill="none" stroke-linecap="square" stroke-width="1"></path><path id="line_3c5a6254c6202c47" d="M 183 147 L 201 147 L 201 132 A 4 4 0 0 1 205 128 L 219 128" p="7e751ec418e5" stroke="#746e6a" fill="none" stroke-linecap="square" stroke-width="1"></path><path id="line_d1f4ad0ad67123b4" d="M 183 147 L 201 147 L 201 162 A 4 4 0 0 0 205 166 L 219 166" p="7e751ec418e5" stroke="#746e6a" fill="none" stroke-linecap="square" stroke-width="1"></path><path id="line_0274d8cb3d72127d" d="M 183 147 L 201 147 L 201 200 A 4 4 0 0 0 205 204 L 219 204" p="7e751ec418e5" stroke="#746e6a" fill="none" stroke-linecap="square" stroke-width="1"></path><path id="line_7fe7581b558f" d="M 97 185 L 115 185 L 115 238 A 4 4 0 0 0 119 242 L 133 242" p="dac0e62a7ee8" stroke="#746e6a" fill="none" stroke-linecap="square" stroke-width="1"></path><path id="line_1281d5e7572333e8" d="M 97 185 L 115 185 L 115 276 A 4 4 0 0 0 119 280 L 133 280" p="dac0e62a7ee8" stroke="#746e6a" fill="none" stroke-linecap="square" stroke-width="1"></path><path id="line_2ad985476e19" d="M 97 185 L 115 185 L 115 314 A 4 4 0 0 0 119 318 L 133 318" p="dac0e62a7ee8" stroke="#746e6a" fill="none" stroke-linecap="square" stroke-width="1"></path><path id="line_36fc8bf71451" d="M 97 185 L 115 185 L 115 352 A 4 4 0 0 0 119 356 L 133 356" p="dac0e62a7ee8" stroke="#746e6a" fill="none" stroke-linecap="square" stroke-width="1"></path></g><g transform="translate(0.5,0)"></g><g class="svg-summary-con" transform="translate(0.5,0.5)"></g><g class="svg-boundary-con" transform="translate(0.5,0.5)"></g></g><g transform="translate(30, 428)" id="sdjakdjak2"><g id="subline_root" transform="translate(0.5,-0.5)"></g><g transform="translate(0.5,0)"></g><g class="svg-summary-con" transform="translate(0.5,0.5)"></g><g class="svg-boundary-con" transform="translate(0.5,0.5)"></g></g><g id="root"><rect x="30" y="428" rx="6px" ry="6px" width="40" height="40" style="fill: #fff; stroke:#b2afad;stroke-width:1px;"></rect><g><text text-anchor="start" align="center" anchor="start" font-size="16px" font-weight="normal" fill="rgb(78, 78, 78)" style="font-size:16px;font-family:arial, 黑体;color:#4e4e4e;font-style:normal;text-align:center;font-weight:normal;font-style: normal;"><tspan x="41" y="453"><tspan>树</tspan></tspan></text></g></g></svg>
