<svg width="637.5810546875" height="747.5" xmlns="http://www.w3.org/2000/svg" 
  shape-rendering="geometricPrecision" text-rendering="optimizeLegibility">
  <g transform="translate(-1181.20947265625, -626.25)">
    <path d="M 1304.93603515625 1001.25 L 1344.43603515625 1001.25 A 8 8 0 0 0 1352.43603515625 993.25 L 1352.43603515625 689.25 A 8 8 0 0 1 1360.43603515625 681.25 L 1374.93603515625 681.25" stroke="#746e6a" fill="none" stroke-width="1"/>
    <path d="M 1304.93603515625 1001.25 L 1344.43603515625 1001.25 A 8 8 0 0 0 1352.43603515625 993.25 L 1352.43603515625 769.25 A 8 8 0 0 1 1360.43603515625 761.25 L 1374.93603515625 761.25" stroke="#746e6a" fill="none" stroke-width="1"/>
    <path d="M 1454.93603515625 761.25 L 1505.93603515625 761.25 A 8 8 0 0 0 1513.93603515625 753.25 L 1513.93603515625 729.25 A 8 8 0 0 1 1521.93603515625 721.25 L 1524.93603515625 721.25" stroke="#746e6a" fill="none" stroke-width="1"/>
    <path d="M 1454.93603515625 761.25 L 1505.93603515625 761.25 L 1513.93603515625 761.25 L 1521.93603515625 761.25 L 1524.93603515625 761.25" stroke="#746e6a" fill="none" stroke-width="1"/>
    <path d="M 1454.93603515625 761.25 L 1505.93603515625 761.25 A 8 8 0 0 1 1513.93603515625 769.25 L 1513.93603515625 793.25 A 8 8 0 0 0 1521.93603515625 801.25 L 1524.93603515625 801.25" stroke="#746e6a" fill="none" stroke-width="1"/>
    <path d="M 1304.93603515625 1001.25 L 1344.43603515625 1001.25 A 8 8 0 0 0 1352.43603515625 993.25 L 1352.43603515625 969.25 A 8 8 0 0 1 1360.43603515625 961.25 L 1374.93603515625 961.25" stroke="#746e6a" fill="none" stroke-width="1"/>
    <path d="M 1454.93603515625 961.25 L 1505.93603515625 961.25 A 8 8 0 0 0 1513.93603515625 953.25 L 1513.93603515625 849.25 A 8 8 0 0 1 1521.93603515625 841.25 L 1524.93603515625 841.25" stroke="#746e6a" fill="none" stroke-width="1"/>
    <path d="M 1454.93603515625 961.25 L 1505.93603515625 961.25 A 8 8 0 0 0 1513.93603515625 953.25 L 1513.93603515625 929.25 A 8 8 0 0 1 1521.93603515625 921.25 L 1524.93603515625 921.25" stroke="#746e6a" fill="none" stroke-width="1"/>
    <path d="M 1584.93603515625 921.25 L 1635.93603515625 921.25 A 8 8 0 0 0 1643.93603515625 913.25 L 1643.93603515625 889.25 A 8 8 0 0 1 1651.93603515625 881.25 L 1674.93603515625 881.25" stroke="#746e6a" fill="none" stroke-width="1"/>
    <path d="M 1584.93603515625 921.25 L 1635.93603515625 921.25 L 1643.93603515625 921.25 L 1651.93603515625 921.25 L 1674.93603515625 921.25" stroke="#746e6a" fill="none" stroke-width="1"/>
    <path d="M 1584.93603515625 921.25 L 1635.93603515625 921.25 A 8 8 0 0 1 1643.93603515625 929.25 L 1643.93603515625 953.25 A 8 8 0 0 0 1651.93603515625 961.25 L 1674.93603515625 961.25" stroke="#746e6a" fill="none" stroke-width="1"/>
    <path d="M 1454.93603515625 961.25 L 1505.93603515625 961.25 A 8 8 0 0 1 1513.93603515625 969.25 L 1513.93603515625 993.25 A 8 8 0 0 0 1521.93603515625 1001.25 L 1524.93603515625 1001.25" stroke="#746e6a" fill="none" stroke-width="1"/>
    <path d="M 1454.93603515625 961.25 L 1505.93603515625 961.25 A 8 8 0 0 1 1513.93603515625 969.25 L 1513.93603515625 1033.25 A 8 8 0 0 0 1521.93603515625 1041.25 L 1524.93603515625 1041.25" stroke="#746e6a" fill="none" stroke-width="1"/>
    <path d="M 1454.93603515625 961.25 L 1505.93603515625 961.25 A 8 8 0 0 1 1513.93603515625 969.25 L 1513.93603515625 1073.25 A 8 8 0 0 0 1521.93603515625 1081.25 L 1524.93603515625 1081.25" stroke="#746e6a" fill="none" stroke-width="1"/>
    <path d="M 1304.93603515625 1001.25 L 1344.43603515625 1001.25 A 8 8 0 0 1 1352.43603515625 1009.25 L 1352.43603515625 1213.25 A 8 8 0 0 0 1360.43603515625 1221.25 L 1374.93603515625 1221.25" stroke="#746e6a" fill="none" stroke-width="1"/>
    <path d="M 1477.45068359375 1221.25 L 1528.45068359375 1221.25 A 8 8 0 0 0 1536.45068359375 1213.25 L 1536.45068359375 1129.25 A 8 8 0 0 1 1544.45068359375 1121.25 L 1547.45068359375 1121.25" stroke="#746e6a" fill="none" stroke-width="1"/>
    <path d="M 1477.45068359375 1221.25 L 1528.45068359375 1221.25 A 8 8 0 0 0 1536.45068359375 1213.25 L 1536.45068359375 1169.25 A 8 8 0 0 1 1544.45068359375 1161.25 L 1547.45068359375 1161.25" stroke="#746e6a" fill="none" stroke-width="1"/>
    <path d="M 1477.45068359375 1221.25 L 1528.45068359375 1221.25 A 8 8 0 0 1 1536.45068359375 1229.25 L 1536.45068359375 1233.25 A 8 8 0 0 0 1544.45068359375 1241.25 L 1547.45068359375 1241.25" stroke="#746e6a" fill="none" stroke-width="1"/>
    <path d="M 1607.45068359375 1241.25 L 1658.45068359375 1241.25 A 8 8 0 0 0 1666.45068359375 1233.25 L 1666.45068359375 1209.25 A 8 8 0 0 1 1674.45068359375 1201.25 L 1697.45068359375 1201.25" stroke="#746e6a" fill="none" stroke-width="1"/>
    <path d="M 1607.45068359375 1241.25 L 1658.45068359375 1241.25 L 1666.45068359375 1241.25 L 1674.45068359375 1241.25 L 1697.45068359375 1241.25" stroke="#746e6a" fill="none" stroke-width="1"/>
    <path d="M 1607.45068359375 1241.25 L 1658.45068359375 1241.25 A 8 8 0 0 1 1666.45068359375 1249.25 L 1666.45068359375 1273.25 A 8 8 0 0 0 1674.45068359375 1281.25 L 1697.45068359375 1281.25" stroke="#746e6a" fill="none" stroke-width="1"/>
    <path d="M 1477.45068359375 1221.25 L 1528.45068359375 1221.25 A 8 8 0 0 1 1536.45068359375 1229.25 L 1536.45068359375 1313.25 A 8 8 0 0 0 1544.45068359375 1321.25 L 1547.45068359375 1321.25" stroke="#746e6a" fill="none" stroke-width="1"/>
    <rect x="1221.20947265625" y="986.25" width="83.7265625" height="30"
          rx="6" ry="6" fill="#ffffff" stroke="#b2afad" stroke-width="1"/>
    <text x="1263.07275390625" y="1001.25"
          font-family="Arial, 黑体, sans-serif" font-size="16px"
          text-anchor="middle" dominant-baseline="middle" fill="#4e4e4e">
      Vite 插件
    </text>
    <rect x="1374.93603515625" y="666.25" width="80" height="30"
          rx="6" ry="6" fill="#ffffff" stroke="#d1cecd" stroke-width="1"/>
    <text x="1414.93603515625" y="681.25"
          font-family="Arial, 黑体, sans-serif" font-size="15px"
          text-anchor="middle" dominant-baseline="middle" fill="#595959">
      问题背景
    </text>
    <rect x="1374.93603515625" y="746.25" width="80" height="30"
          rx="6" ry="6" fill="#ffffff" stroke="#d1cecd" stroke-width="1"/>
    <text x="1414.93603515625" y="761.25"
          font-family="Arial, 黑体, sans-serif" font-size="15px"
          text-anchor="middle" dominant-baseline="middle" fill="#595959">
      解决思路
    </text>
    <text x="1529.93603515625" y="721.25"
          font-family="Arial, 黑体, sans-serif" font-size="12px"
          text-anchor="start" dominant-baseline="middle" fill="#606060">
      手动配置
    </text>
    <text x="1529.93603515625" y="761.25"
          font-family="Arial, 黑体, sans-serif" font-size="12px"
          text-anchor="start" dominant-baseline="middle" fill="#606060">
      函数式配置
    </text>
    <text x="1529.93603515625" y="801.25"
          font-family="Arial, 黑体, sans-serif" font-size="12px"
          text-anchor="start" dominant-baseline="middle" fill="#606060">
      插件化
    </text>
    <rect x="1374.93603515625" y="946.25" width="80" height="30"
          rx="6" ry="6" fill="#ffffff" stroke="#d1cecd" stroke-width="1"/>
    <text x="1414.93603515625" y="961.25"
          font-family="Arial, 黑体, sans-serif" font-size="15px"
          text-anchor="middle" dominant-baseline="middle" fill="#595959">
      实现过程
    </text>
    <text x="1529.93603515625" y="841.25"
          font-family="Arial, 黑体, sans-serif" font-size="12px"
          text-anchor="start" dominant-baseline="middle" fill="#606060">
      扫描目录构建 chunks
    </text>
    <text x="1529.93603515625" y="921.25"
          font-family="Arial, 黑体, sans-serif" font-size="12px"
          text-anchor="start" dominant-baseline="middle" fill="#606060">
      合并配置
    </text>
    <text x="1679.93603515625" y="881.25"
          font-family="Arial, 黑体, sans-serif" font-size="12px"
          text-anchor="start" dominant-baseline="middle" fill="#606060">
      对象处理
    </text>
    <text x="1679.93603515625" y="921.25"
          font-family="Arial, 黑体, sans-serif" font-size="12px"
          text-anchor="start" dominant-baseline="middle" fill="#606060">
      函数处理
    </text>
    <text x="1679.93603515625" y="961.25"
          font-family="Arial, 黑体, sans-serif" font-size="12px"
          text-anchor="start" dominant-baseline="middle" fill="#606060">
      优先级处理
    </text>
    <text x="1529.93603515625" y="1001.25"
          font-family="Arial, 黑体, sans-serif" font-size="12px"
          text-anchor="start" dominant-baseline="middle" fill="#606060">
      封装插件
    </text>
    <text x="1529.93603515625" y="1041.25"
          font-family="Arial, 黑体, sans-serif" font-size="12px"
          text-anchor="start" dominant-baseline="middle" fill="#606060">
      使用
    </text>
    <text x="1529.93603515625" y="1081.25"
          font-family="Arial, 黑体, sans-serif" font-size="12px"
          text-anchor="start" dominant-baseline="middle" fill="#606060">
      效果对比
    </text>
    <rect x="1374.93603515625" y="1206.25" width="102.5146484375" height="30"
          rx="6" ry="6" fill="#ffffff" stroke="#d1cecd" stroke-width="1"/>
    <text x="1426.193359375" y="1221.25"
          font-family="Arial, 黑体, sans-serif" font-size="15px"
          text-anchor="middle" dominant-baseline="middle" fill="#595959">
      发布 npm 包
    </text>
    <text x="1552.45068359375" y="1121.25"
          font-family="Arial, 黑体, sans-serif" font-size="12px"
          text-anchor="start" dominant-baseline="middle" fill="#606060">
      npm 包结构
    </text>
    <text x="1552.45068359375" y="1161.25"
          font-family="Arial, 黑体, sans-serif" font-size="12px"
          text-anchor="start" dominant-baseline="middle" fill="#606060">
      打包
    </text>
    <text x="1552.45068359375" y="1241.25"
          font-family="Arial, 黑体, sans-serif" font-size="12px"
          text-anchor="start" dominant-baseline="middle" fill="#606060">
      本地测试
    </text>
    <text x="1702.45068359375" y="1201.25"
          font-family="Arial, 黑体, sans-serif" font-size="12px"
          text-anchor="start" dominant-baseline="middle" fill="#606060">
      yalc（推荐）
    </text>
    <text x="1702.45068359375" y="1241.25"
          font-family="Arial, 黑体, sans-serif" font-size="12px"
          text-anchor="start" dominant-baseline="middle" fill="#606060">
      npm link
    </text>
    <text x="1702.45068359375" y="1281.25"
          font-family="Arial, 黑体, sans-serif" font-size="12px"
          text-anchor="start" dominant-baseline="middle" fill="#606060">
      npm pack
    </text>
    <text x="1552.45068359375" y="1321.25"
          font-family="Arial, 黑体, sans-serif" font-size="12px"
          text-anchor="start" dominant-baseline="middle" fill="#606060">
      发包
    </text>
  </g>
</svg>