<svg width="833.1337890625" height="667.5" xmlns="http://www.w3.org/2000/svg" 
  shape-rendering="geometricPrecision" text-rendering="optimizeLegibility">
  <g transform="translate(-1083.43310546875, -666.25)">
    <path d="M 1366.68310546875 1001.25 L 1406.18310546875 1001.25 A 8 8 0 0 0 1414.18310546875 993.25 L 1414.18310546875 729.25 A 8 8 0 0 1 1422.18310546875 721.25 L 1436.68310546875 721.25" stroke="#746e6a" fill="none" stroke-width="1"/>
    <path d="M 1366.68310546875 1001.25 L 1406.18310546875 1001.25 A 8 8 0 0 0 1414.18310546875 993.25 L 1414.18310546875 929.25 A 8 8 0 0 1 1422.18310546875 921.25 L 1436.68310546875 921.25" stroke="#746e6a" fill="none" stroke-width="1"/>
    <path d="M 1516.68310546875 921.25 L 1567.68310546875 921.25 A 8 8 0 0 0 1575.68310546875 913.25 L 1575.68310546875 769.25 A 8 8 0 0 1 1583.68310546875 761.25 L 1586.68310546875 761.25" stroke="#746e6a" fill="none" stroke-width="1"/>
    <path d="M 1516.68310546875 921.25 L 1567.68310546875 921.25 A 8 8 0 0 0 1575.68310546875 913.25 L 1575.68310546875 809.25 A 8 8 0 0 1 1583.68310546875 801.25 L 1586.68310546875 801.25" stroke="#746e6a" fill="none" stroke-width="1"/>
    <path d="M 1516.68310546875 921.25 L 1567.68310546875 921.25 A 8 8 0 0 0 1575.68310546875 913.25 L 1575.68310546875 849.25 A 8 8 0 0 1 1583.68310546875 841.25 L 1586.68310546875 841.25" stroke="#746e6a" fill="none" stroke-width="1"/>
    <path d="M 1516.68310546875 921.25 L 1567.68310546875 921.25 A 8 8 0 0 0 1575.68310546875 913.25 L 1575.68310546875 889.25 A 8 8 0 0 1 1583.68310546875 881.25 L 1586.68310546875 881.25" stroke="#746e6a" fill="none" stroke-width="1"/>
    <path d="M 1516.68310546875 921.25 L 1567.68310546875 921.25 A 8 8 0 0 1 1575.68310546875 929.25 L 1575.68310546875 933.25 A 8 8 0 0 0 1583.68310546875 941.25 L 1586.68310546875 941.25" stroke="#746e6a" fill="none" stroke-width="1"/>
    <path d="M 1682.68310546875 941.25 L 1733.68310546875 941.25 A 8 8 0 0 0 1741.68310546875 933.25 L 1741.68310546875 929.25 A 8 8 0 0 1 1749.68310546875 921.25 L 1772.68310546875 921.25" stroke="#746e6a" fill="none" stroke-width="1"/>
    <path d="M 1682.68310546875 941.25 L 1733.68310546875 941.25 A 8 8 0 0 1 1741.68310546875 949.25 L 1741.68310546875 953.25 A 8 8 0 0 0 1749.68310546875 961.25 L 1772.68310546875 961.25" stroke="#746e6a" fill="none" stroke-width="1"/>
    <path d="M 1516.68310546875 921.25 L 1567.68310546875 921.25 A 8 8 0 0 1 1575.68310546875 929.25 L 1575.68310546875 993.25 A 8 8 0 0 0 1583.68310546875 1001.25 L 1586.68310546875 1001.25" stroke="#746e6a" fill="none" stroke-width="1"/>
    <path d="M 1516.68310546875 921.25 L 1567.68310546875 921.25 A 8 8 0 0 1 1575.68310546875 929.25 L 1575.68310546875 1033.25 A 8 8 0 0 0 1583.68310546875 1041.25 L 1586.68310546875 1041.25" stroke="#746e6a" fill="none" stroke-width="1"/>
    <path d="M 1516.68310546875 921.25 L 1567.68310546875 921.25 A 8 8 0 0 1 1575.68310546875 929.25 L 1575.68310546875 1073.25 A 8 8 0 0 0 1583.68310546875 1081.25 L 1586.68310546875 1081.25" stroke="#746e6a" fill="none" stroke-width="1"/>
    <path d="M 1366.68310546875 1001.25 L 1406.18310546875 1001.25 A 8 8 0 0 1 1414.18310546875 1009.25 L 1414.18310546875 1193.25 A 8 8 0 0 0 1422.18310546875 1201.25 L 1436.68310546875 1201.25" stroke="#746e6a" fill="none" stroke-width="1"/>
    <path d="M 1539.19775390625 1201.25 L 1590.19775390625 1201.25 A 8 8 0 0 0 1598.19775390625 1193.25 L 1598.19775390625 1129.25 A 8 8 0 0 1 1606.19775390625 1121.25 L 1609.19775390625 1121.25" stroke="#746e6a" fill="none" stroke-width="1"/>
    <path d="M 1539.19775390625 1201.25 L 1590.19775390625 1201.25 A 8 8 0 0 0 1598.19775390625 1193.25 L 1598.19775390625 1169.25 A 8 8 0 0 1 1606.19775390625 1161.25 L 1609.19775390625 1161.25" stroke="#746e6a" fill="none" stroke-width="1"/>
    <path d="M 1539.19775390625 1201.25 L 1590.19775390625 1201.25 A 8 8 0 0 1 1598.19775390625 1209.25 L 1598.19775390625 1213.25 A 8 8 0 0 0 1606.19775390625 1221.25 L 1609.19775390625 1221.25" stroke="#746e6a" fill="none" stroke-width="1"/>
    <path d="M 1669.19775390625 1221.25 L 1720.19775390625 1221.25 A 8 8 0 0 0 1728.19775390625 1213.25 L 1728.19775390625 1209.25 A 8 8 0 0 1 1736.19775390625 1201.25 L 1759.19775390625 1201.25" stroke="#746e6a" fill="none" stroke-width="1"/>
    <path d="M 1669.19775390625 1221.25 L 1720.19775390625 1221.25 A 8 8 0 0 1 1728.19775390625 1229.25 L 1728.19775390625 1233.25 A 8 8 0 0 0 1736.19775390625 1241.25 L 1759.19775390625 1241.25" stroke="#746e6a" fill="none" stroke-width="1"/>
    <path d="M 1539.19775390625 1201.25 L 1590.19775390625 1201.25 A 8 8 0 0 1 1598.19775390625 1209.25 L 1598.19775390625 1273.25 A 8 8 0 0 0 1606.19775390625 1281.25 L 1609.19775390625 1281.25" stroke="#746e6a" fill="none" stroke-width="1"/>
    <rect x="1123.43310546875" y="986.25" width="243.25" height="30"
          rx="6" ry="6" fill="#ffffff" stroke="#b2afad" stroke-width="1"/>
    <text x="1245.05810546875" y="1001.25"
          font-family="Arial, 黑体, sans-serif" font-size="16px"
          text-anchor="middle" dominant-baseline="middle" fill="#4e4e4e">
      vite-plugin-unique-page-chunks
    </text>
    <rect x="1436.68310546875" y="706.25" width="80" height="30"
          rx="6" ry="6" fill="#ffffff" stroke="#d1cecd" stroke-width="1"/>
    <text x="1476.68310546875" y="721.25"
          font-family="Arial, 黑体, sans-serif" font-size="15px"
          text-anchor="middle" dominant-baseline="middle" fill="#595959">
      问题背景
    </text>
    <rect x="1436.68310546875" y="906.25" width="80" height="30"
          rx="6" ry="6" fill="#ffffff" stroke="#d1cecd" stroke-width="1"/>
    <text x="1476.68310546875" y="921.25"
          font-family="Arial, 黑体, sans-serif" font-size="15px"
          text-anchor="middle" dominant-baseline="middle" fill="#595959">
      解决思路
    </text>
    <text x="1591.68310546875" y="761.25"
          font-family="Arial, 黑体, sans-serif" font-size="12px"
          text-anchor="start" dominant-baseline="middle" fill="#606060">
      手动配置
    </text>
    <text x="1591.68310546875" y="801.25"
          font-family="Arial, 黑体, sans-serif" font-size="12px"
          text-anchor="start" dominant-baseline="middle" fill="#606060">
      函数式配置
    </text>
    <text x="1591.68310546875" y="841.25"
          font-family="Arial, 黑体, sans-serif" font-size="12px"
          text-anchor="start" dominant-baseline="middle" fill="#606060">
      插件化
    </text>
    <text x="1591.68310546875" y="881.25"
          font-family="Arial, 黑体, sans-serif" font-size="12px"
          text-anchor="start" dominant-baseline="middle" fill="#606060">
      扫描目录构建 chunks
    </text>
    <text x="1591.68310546875" y="941.25"
          font-family="Arial, 黑体, sans-serif" font-size="12px"
          text-anchor="start" dominant-baseline="middle" fill="#606060">
      合并生成的配置
    </text>
    <text x="1777.68310546875" y="921.25"
          font-family="Arial, 黑体, sans-serif" font-size="12px"
          text-anchor="start" dominant-baseline="middle" fill="#606060">
      对象处理
    </text>
    <text x="1777.68310546875" y="961.25"
          font-family="Arial, 黑体, sans-serif" font-size="12px"
          text-anchor="start" dominant-baseline="middle" fill="#606060">
      函数处理
    </text>
    <text x="1591.68310546875" y="1001.25"
          font-family="Arial, 黑体, sans-serif" font-size="12px"
          text-anchor="start" dominant-baseline="middle" fill="#606060">
      封装插件
    </text>
    <text x="1591.68310546875" y="1041.25"
          font-family="Arial, 黑体, sans-serif" font-size="12px"
          text-anchor="start" dominant-baseline="middle" fill="#606060">
      使用
    </text>
    <text x="1591.68310546875" y="1081.25"
          font-family="Arial, 黑体, sans-serif" font-size="12px"
          text-anchor="start" dominant-baseline="middle" fill="#606060">
      效果对比
    </text>
    <rect x="1436.68310546875" y="1186.25" width="102.5146484375" height="30"
          rx="6" ry="6" fill="#ffffff" stroke="#d1cecd" stroke-width="1"/>
    <text x="1487.9404296875" y="1201.25"
          font-family="Arial, 黑体, sans-serif" font-size="15px"
          text-anchor="middle" dominant-baseline="middle" fill="#595959">
      发布 npm 包
    </text>
    <text x="1614.19775390625" y="1121.25"
          font-family="Arial, 黑体, sans-serif" font-size="12px"
          text-anchor="start" dominant-baseline="middle" fill="#606060">
      npm 包结构
    </text>
    <text x="1614.19775390625" y="1161.25"
          font-family="Arial, 黑体, sans-serif" font-size="12px"
          text-anchor="start" dominant-baseline="middle" fill="#606060">
      打包
    </text>
    <text x="1614.19775390625" y="1221.25"
          font-family="Arial, 黑体, sans-serif" font-size="12px"
          text-anchor="start" dominant-baseline="middle" fill="#606060">
      本地测试
    </text>
    <text x="1764.19775390625" y="1201.25"
          font-family="Arial, 黑体, sans-serif" font-size="12px"
          text-anchor="start" dominant-baseline="middle" fill="#606060">
      使用 yalc（推荐）
    </text>
    <text x="1764.19775390625" y="1241.25"
          font-family="Arial, 黑体, sans-serif" font-size="12px"
          text-anchor="start" dominant-baseline="middle" fill="#606060">
      使用 npm/pnpm link
    </text>
    <text x="1614.19775390625" y="1281.25"
          font-family="Arial, 黑体, sans-serif" font-size="12px"
          text-anchor="start" dominant-baseline="middle" fill="#606060">
      发包
    </text>
  </g>
</svg>