<?xml version="1.0" standalone="no"?><?xml-stylesheet type="text/css" href="https://www.processon.com/themes/default/mind/icons/icons.css" ?><!DOCTYPE svg PUBLIC "-//W3C//DTD SVG 1.1//EN" "http://www.w3.org/Graphics/SVG/1.1/DTD/svg11.dtd">
<svg xmlns="http://www.w3.org/2000/svg" version="1.1" xlink="http://www.w3.org/1999/xlink" id="mind-svg-con" width="484px" height="586px" style="position: absolute; left: 0px; top: 0px; width: 484px; height: 586px; background: rgb(245, 245, 245); z-index: 999;"><defs></defs><g id="svgbackgroundid"><defs></defs><rect x="0" y="0" width="484" height="586" fill="#fff"></rect></g><g transform="translate(-9905, -9657)" id="sdjakdjak8"><defs></defs><g class="svg-topic-con" transform="translate(0.5,0.5)"><path part="right" sub="true" id="line_b89be7dc5314" d="M 10000 9950 L 10095 9950 L 10095 9728 A 8 8 0 0 1 10103 9720 L 10125 9720" stroke="#746e6a" fill="none" stroke-width="1"></path><path part="right" sub="true" id="line_18da215446bbd9b8" d="M 10000 9950 L 10095 9950 L 10095 9852 A 8 8 0 0 1 10103 9844 L 10125 9844" stroke="#746e6a" fill="none" stroke-width="1"></path><path part="right" sub="true" id="line_0428020500552a07" d="M 10000 9950 L 10095 9950 L 10095 9951.5 L 10125 9951.5" stroke="#746e6a" fill="none" stroke-width="1"></path><path part="right" sub="true" id="line_852568a3ac3b5605" d="M 10000 9950 L 10095 9950 L 10095 9996.5 A 8 8 0 0 0 10103 10004.5 L 10125 10004.5" stroke="#746e6a" fill="none" stroke-width="1"></path><path part="right" sub="true" id="line_819da21e58d508b0" d="M 10000 9950 L 10095 9950 L 10095 10049.5 A 8 8 0 0 0 10103 10057.5 L 10125 10057.5" stroke="#746e6a" fill="none" stroke-width="1"></path><path part="right" sub="true" id="line_3a46da702eb313fa" d="M 10000 9950 L 10095 9950 L 10095 10119 A 8 8 0 0 0 10103 10127 L 10125 10127" stroke="#746e6a" fill="none" stroke-width="1"></path><path part="right" sub="true" id="line_f01272c2d47348e6" d="M 10000 9950 L 10095 9950 L 10095 10188.5 A 8 8 0 0 0 10103 10196.5 L 10125 10196.5" stroke="#746e6a" fill="none" stroke-width="1"></path></g><g class="svg-connection-con" transform="translate(0.5,0.5)"></g><g class="svg-freesums-con" transform="translate(0.5,0.5)"></g><g class="svg-freebos-con" transform="translate(0.5,0.5)"></g></g><g id="f01272c2d47348e6"><rect x="220" y="523" rx="6px" ry="6px" width="96" height="33" style="fill: #fff; stroke:#d1cecd;stroke-width:1px;"></rect><g><text text-anchor="start" align="top" anchor="start" font-size="15px" font-weight="normal" fill="rgb(89, 89, 89)" style="font-size:15px;font-family:arial, 黑体;color:#595959;font-style:normal;text-align:left;font-weight:normal;font-style: normal;"><tspan x="231" y="544"><tspan>改造 yorkie</tspan></tspan></text></g></g><g id="3a46da702eb313fa"><rect x="220" y="453.5" rx="6px" ry="6px" width="78" height="33" style="fill: #fff; stroke:#d1cecd;stroke-width:1px;"></rect><g><text text-anchor="start" align="top" anchor="start" font-size="15px" font-weight="normal" fill="rgb(89, 89, 89)" style="font-size:15px;font-family:arial, 黑体;color:#595959;font-style:normal;text-align:left;font-weight:normal;font-style: normal;"><tspan x="231" y="474.5"><tspan>githooks</tspan></tspan></text></g></g><g id="6ecd67cbf12a9144"><rect x="333.875" y="437" rx="1px" ry="1px" width="51" height="28" style="fill: transparent; stroke:none;"></rect><g><text text-anchor="start" align="top" anchor="start" font-size="12px" font-weight="normal" fill="rgb(96, 96, 96)" style="font-size:12px;font-family:arial, 黑体;color:#606060;font-style:normal;text-align:left;font-weight:normal;font-style: normal;"><tspan x="343.875" y="453.15999999999997"><tspan>husky</tspan></tspan></text></g></g><g id="9ac9a80c59393655"><rect x="333.875" y="475" rx="1px" ry="1px" width="52" height="28" style="fill: transparent; stroke:none;"></rect><g><text text-anchor="start" align="top" anchor="start" font-size="12px" font-weight="normal" fill="rgb(96, 96, 96)" style="font-size:12px;font-family:arial, 黑体;color:#606060;font-style:normal;text-align:left;font-weight:normal;font-style: normal;"><tspan x="343.875" y="491.15999999999997"><tspan>yorkie</tspan></tspan></text></g></g><g id="819da21e58d508b0"><rect x="220" y="384" rx="6px" ry="6px" width="190" height="33" style="fill: #fff; stroke:#d1cecd;stroke-width:1px;"></rect><g><text text-anchor="start" align="top" anchor="start" font-size="15px" font-weight="normal" fill="rgb(89, 89, 89)" style="font-size:15px;font-family:arial, 黑体;color:#595959;font-style:normal;text-align:left;font-weight:normal;font-style: normal;"><tspan x="231" y="405"><tspan style="null">@vue/cli-service</tspan><tspan> lint 命令</tspan></tspan></text></g></g><g id="852568a3ac3b5605"><rect x="220" y="331" rx="6px" ry="6px" width="125" height="33" style="fill: #fff; stroke:#d1cecd;stroke-width:1px;"></rect><g><text text-anchor="start" align="top" anchor="start" font-size="15px" font-weight="normal" fill="rgb(89, 89, 89)" style="font-size:15px;font-family:arial, 黑体;color:#595959;font-style:normal;text-align:left;font-weight:normal;font-style: normal;"><tspan x="231" y="352"><tspan>子模块 lint 失效</tspan></tspan></text></g></g><g id="0428020500552a07"><rect x="220" y="278" rx="6px" ry="6px" width="82" height="33" style="fill: #fff; stroke:#d1cecd;stroke-width:1px;"></rect><g><text text-anchor="start" align="top" anchor="start" font-size="15px" font-weight="normal" fill="rgb(89, 89, 89)" style="font-size:15px;font-family:arial, 黑体;color:#595959;font-style:normal;text-align:left;font-weight:normal;font-style: normal;"><tspan x="231" y="299"><tspan>平时开发</tspan></tspan></text></g></g><g id="18da215446bbd9b8"><rect x="220" y="170.5" rx="6px" ry="6px" width="82" height="33" style="fill: #fff; stroke:#d1cecd;stroke-width:1px;"></rect><g><text text-anchor="start" align="top" anchor="start" font-size="15px" font-weight="normal" fill="rgb(89, 89, 89)" style="font-size:15px;font-family:arial, 黑体;color:#595959;font-style:normal;text-align:left;font-weight:normal;font-style: normal;"><tspan x="231" y="191.5"><tspan>项目改造</tspan></tspan></text></g></g><g id="ad048db76062628d"><rect x="338" y="116" rx="1px" ry="1px" width="104" height="28" style="fill: transparent; stroke:none;"></rect><g><text text-anchor="start" align="top" anchor="start" font-size="12px" font-weight="normal" fill="rgb(96, 96, 96)" style="font-size:12px;font-family:arial, 黑体;color:#606060;font-style:normal;text-align:left;font-weight:normal;font-style: normal;"><tspan x="348" y="132.16"><tspan>子模块关联改造</tspan></tspan></text></g></g><g id="71308f1dee963df2"><rect x="338" y="154" rx="1px" ry="1px" width="116" height="28" style="fill: transparent; stroke:none;"></rect><g><text text-anchor="start" align="top" anchor="start" font-size="12px" font-weight="normal" fill="rgb(96, 96, 96)" style="font-size:12px;font-family:arial, 黑体;color:#606060;font-style:normal;text-align:left;font-weight:normal;font-style: normal;"><tspan x="348" y="170.16"><tspan>忽略子模块的更新</tspan></tspan></text></g></g><g id="d7e8430a1d3b5882"><rect x="338" y="192" rx="1px" ry="1px" width="79" height="28" style="fill: transparent; stroke:none;"></rect><g><text text-anchor="start" align="top" anchor="start" font-size="12px" font-weight="normal" fill="rgb(96, 96, 96)" style="font-size:12px;font-family:arial, 黑体;color:#606060;font-style:normal;text-align:left;font-weight:normal;font-style: normal;"><tspan x="348" y="208.16"><tspan>router 改造</tspan></tspan></text></g></g><g id="7509de43ca4fb0fd"><rect x="338" y="230" rx="1px" ry="1px" width="73" height="28" style="fill: transparent; stroke:none;"></rect><g><text text-anchor="start" align="top" anchor="start" font-size="12px" font-weight="normal" fill="rgb(96, 96, 96)" style="font-size:12px;font-family:arial, 黑体;color:#606060;font-style:normal;text-align:left;font-weight:normal;font-style: normal;"><tspan x="348" y="246.16"><tspan>vuex 改造</tspan></tspan></text></g></g><g id="b89be7dc5314"><rect x="220" y="46.5" rx="6px" ry="6px" width="67" height="33" style="fill: #fff; stroke:#d1cecd;stroke-width:1px;"></rect><g><text text-anchor="start" align="top" anchor="start" font-size="15px" font-weight="normal" fill="rgb(89, 89, 89)" style="font-size:15px;font-family:arial, 黑体;color:#595959;font-style:normal;text-align:left;font-weight:normal;font-style: normal;"><tspan x="231" y="67.5"><tspan>子模块</tspan></tspan></text></g></g><g id="88006488892d5eec"><rect x="323" y="30" rx="1px" ry="1px" width="68" height="28" style="fill: transparent; stroke:none;"></rect><g><text text-anchor="start" align="top" anchor="start" font-size="12px" font-weight="normal" fill="rgb(96, 96, 96)" style="font-size:12px;font-family:arial, 黑体;color:#606060;font-style:normal;text-align:left;font-weight:normal;font-style: normal;"><tspan x="333" y="46.16"><tspan>常用命令</tspan></tspan></text></g></g><g id="7a71f54fc2f2da9c"><rect x="323" y="68" rx="1px" ry="1px" width="68" height="28" style="fill: transparent; stroke:none;"></rect><g><text text-anchor="start" align="top" anchor="start" font-size="12px" font-weight="normal" fill="rgb(96, 96, 96)" style="font-size:12px;font-family:arial, 黑体;color:#606060;font-style:normal;text-align:left;font-weight:normal;font-style: normal;"><tspan x="333" y="84.16"><tspan>克隆项目</tspan></tspan></text></g></g><g transform="translate(220, 523)" id="sdjakdjak0"><g id="subline_f01272c2d47348e6" transform="translate(0.5,0.5)"></g><g transform="translate(0.5,0.5)"></g><g class="svg-summary-con" transform="translate(0.5,0.5)"></g><g class="svg-boundary-con" transform="translate(0.5,0.5)"></g></g><g transform="translate(220, 437)" id="sdjakdjak1"><g id="subline_3a46da702eb313fa" transform="translate(0.5,0.5)"><path id="line_6ecd67cbf12a9144" d="M 77.875 33 L 96 33 L 96 18 A 4 4 0 0 1 100 14 L 113.875 14" p="3a46da702eb313fa" stroke="#746e6a" fill="none" stroke-linecap="square" stroke-width="1"></path><path id="line_9ac9a80c59393655" d="M 77.875 33 L 96 33 L 96 48 A 4 4 0 0 0 100 52 L 113.875 52" p="3a46da702eb313fa" stroke="#746e6a" fill="none" stroke-linecap="square" stroke-width="1"></path></g><g transform="translate(0.5,0.5)"></g><g class="svg-summary-con" transform="translate(0.5,0.5)"></g><g class="svg-boundary-con" transform="translate(0.5,0.5)"></g></g><g transform="translate(220, 384)" id="sdjakdjak2"><g id="subline_819da21e58d508b0" transform="translate(0.5,0.5)"></g><g transform="translate(0.5,0.5)"></g><g class="svg-summary-con" transform="translate(0.5,0.5)"></g><g class="svg-boundary-con" transform="translate(0.5,0.5)"></g></g><g transform="translate(220, 331)" id="sdjakdjak3"><g id="subline_852568a3ac3b5605" transform="translate(0.5,0.5)"></g><g transform="translate(0.5,0.5)"></g><g class="svg-summary-con" transform="translate(0.5,0.5)"></g><g class="svg-boundary-con" transform="translate(0.5,0.5)"></g></g><g transform="translate(220, 278)" id="sdjakdjak4"><g id="subline_0428020500552a07" transform="translate(0.5,0.5)"></g><g transform="translate(0.5,0.5)"></g><g class="svg-summary-con" transform="translate(0.5,0.5)"></g><g class="svg-boundary-con" transform="translate(0.5,0.5)"></g></g><g transform="translate(220, 116)" id="sdjakdjak5"><g id="subline_18da215446bbd9b8" transform="translate(0.5,0.5)"><path id="line_ad048db76062628d" d="M 82 71 L 100 71 L 100 18 A 4 4 0 0 1 104 14 L 118 14" p="18da215446bbd9b8" stroke="#746e6a" fill="none" stroke-linecap="square" stroke-width="1"></path><path id="line_71308f1dee963df2" d="M 82 71 L 100 71 L 100 56 A 4 4 0 0 1 104 52 L 118 52" p="18da215446bbd9b8" stroke="#746e6a" fill="none" stroke-linecap="square" stroke-width="1"></path><path id="line_d7e8430a1d3b5882" d="M 82 71 L 100 71 L 100 86 A 4 4 0 0 0 104 90 L 118 90" p="18da215446bbd9b8" stroke="#746e6a" fill="none" stroke-linecap="square" stroke-width="1"></path><path id="line_7509de43ca4fb0fd" d="M 82 71 L 100 71 L 100 124 A 4 4 0 0 0 104 128 L 118 128" p="18da215446bbd9b8" stroke="#746e6a" fill="none" stroke-linecap="square" stroke-width="1"></path></g><g transform="translate(0.5,0.5)"></g><g class="svg-summary-con" transform="translate(0.5,0.5)"></g><g class="svg-boundary-con" transform="translate(0.5,0.5)"></g></g><g transform="translate(220, 30)" id="sdjakdjak6"><g id="subline_b89be7dc5314" transform="translate(0.5,0.5)"><path id="line_88006488892d5eec" d="M 67 33 L 85 33 L 85 18 A 4 4 0 0 1 89 14 L 103 14" p="b89be7dc5314" stroke="#746e6a" fill="none" stroke-linecap="square" stroke-width="1"></path><path id="line_7a71f54fc2f2da9c" d="M 67 33 L 85 33 L 85 48 A 4 4 0 0 0 89 52 L 103 52" p="b89be7dc5314" stroke="#746e6a" fill="none" stroke-linecap="square" stroke-width="1"></path></g><g transform="translate(0.5,0.5)"></g><g class="svg-summary-con" transform="translate(0.5,0.5)"></g><g class="svg-boundary-con" transform="translate(0.5,0.5)"></g></g><g transform="translate(30, 273)" id="sdjakdjak7"><g id="subline_root" transform="translate(0.5,0.5)"></g><g transform="translate(0.5,0.5)"></g><g class="svg-summary-con" transform="translate(0.5,0.5)"></g><g class="svg-boundary-con" transform="translate(0.5,0.5)"></g></g><g id="root"><rect x="30" y="273" rx="6px" ry="6px" width="130" height="40" style="fill: #fff; stroke:#b2afad;stroke-width:1px;"></rect><g><text text-anchor="start" align="top" anchor="start" font-size="16px" font-weight="normal" fill="rgb(78, 78, 78)" style="font-size:16px;font-family:arial, 黑体;color:#4e4e4e;font-style:normal;text-align:left;font-weight:normal;font-style: normal;"><tspan x="41" y="298"><tspan>git submodules</tspan></tspan></text></g></g></svg>
