<?xml version="1.0" standalone="no"?><?xml-stylesheet type="text/css" href="https://www.processon.com/themes/default/mind/icons/icons.css" ?><!DOCTYPE svg PUBLIC "-//W3C//DTD SVG 1.1//EN" "http://www.w3.org/Graphics/SVG/1.1/DTD/svg11.dtd">
<svg xmlns="http://www.w3.org/2000/svg" version="1.1" xlink="http://www.w3.org/1999/xlink" id="mind-svg-con" width="679px" height="1087.1875px" style="position: absolute; left: 0px; top: 0px; width: 679px; height: 1087.19px; background: rgb(255, 255, 255); z-index: 999;"><defs></defs><g id="svgbackgroundid"><defs></defs><rect x="0" y="0" width="679" height="1087.1875" fill="#ffffff"></rect></g><g transform="translate(-9915, -9398)" id="sdjakdjak3"><defs></defs><g class="svg-topic-con" transform="translate(0.5,0.5)"><path part="right" sub="true" id="line_dac0e62a7ee8" d="M 10000 9941.5 L 10043 9941.5 C 10083 9941.5 10083 9645 10150 9645" stroke="#0D0B22" fill="none" stroke-width="2"></path><path part="right" sub="true" id="line_bc69091d9342" d="M 10000 9941.5 L 10043 9941.5 C 10083 9941.5 10083 10171 10150 10171" stroke="#0D0B22" fill="none" stroke-width="2"></path></g><g class="svg-connection-con" transform="translate(0.5,0.5)"></g><g class="svg-freesums-con" transform="translate(0.5,0.5)"></g><g class="svg-freebos-con" transform="translate(0.5,0.5)"></g></g><g id="bc69091d9342"><rect x="235" y="750.671875" rx="7px" ry="7px" width="156" height="44" style="fill: #F3F3F4; stroke:none;"></rect><g><text text-anchor="start" align="top" anchor="start" font-size="16px" font-weight="normal" fill="rgb(13, 11, 34)" style="font-size:16px;font-family:微软雅黑;color:#0D0B22;font-style:normal;text-align:left;font-weight:normal;font-style: normal;"><tspan x="257" y="778.140625"><tspan>二叉树（面试）</tspan></tspan></text></g></g><g id="ec1866edce53"><rect x="447" y="488" rx="1px" ry="1px" width="88" height="29" style="fill: transparent; stroke:none;"></rect><g><text text-anchor="start" align="top" anchor="start" font-size="14px" font-weight="400" fill="rgb(13, 11, 34)" style="font-size:14px;font-family:微软雅黑;color:#0D0B22;font-style:normal;text-align:left;font-weight:400;font-style: normal;"><tspan x="456" y="507.421875"><tspan>二叉搜索树</tspan></tspan></text></g></g><g id="0b82e1cc09f5"><rect x="447" y="578.03125" rx="1px" ry="1px" width="88" height="29" style="fill: transparent; stroke:none;"></rect><g><text text-anchor="start" align="top" anchor="start" font-size="14px" font-weight="400" fill="rgb(13, 11, 34)" style="font-size:14px;font-family:微软雅黑;color:#0D0B22;font-style:normal;text-align:left;font-weight:400;font-style: normal;"><tspan x="456" y="597.453125"><tspan>二叉树遍历</tspan></tspan></text></g></g><g id="e3093586159d4b1e"><rect x="591" y="533.015625" rx="1px" ry="1px" width="48" height="29" style="fill: transparent; stroke:none;"></rect><g><text text-anchor="start" align="top" anchor="start" font-size="14px" font-weight="400" fill="rgb(13, 11, 34)" style="font-size:14px;font-family:微软雅黑;color:#0D0B22;font-style:normal;text-align:left;font-weight:400;font-style: normal;"><tspan x="600" y="552.4375"><tspan>前序</tspan></tspan></text></g></g><g id="736f1e800ad3b390"><rect x="591" y="578.03125" rx="1px" ry="1px" width="48" height="29" style="fill: transparent; stroke:none;"></rect><g><text text-anchor="start" align="top" anchor="start" font-size="14px" font-weight="400" fill="rgb(13, 11, 34)" style="font-size:14px;font-family:微软雅黑;color:#0D0B22;font-style:normal;text-align:left;font-weight:400;font-style: normal;"><tspan x="600" y="597.453125"><tspan>中序</tspan></tspan></text></g></g><g id="b3b70b3bc2aae542"><rect x="591" y="623.046875" rx="1px" ry="1px" width="48" height="29" style="fill: transparent; stroke:none;"></rect><g><text text-anchor="start" align="top" anchor="start" font-size="14px" font-weight="400" fill="rgb(13, 11, 34)" style="font-size:14px;font-family:微软雅黑;color:#0D0B22;font-style:normal;text-align:left;font-weight:400;font-style: normal;"><tspan x="600" y="642.46875"><tspan>后序</tspan></tspan></text></g></g><g id="770d4d86fcb2"><rect x="447" y="668.0625" rx="1px" ry="1px" width="158" height="29" style="fill: transparent; stroke:none;"></rect><g><text text-anchor="start" align="top" anchor="start" font-size="14px" font-weight="400" fill="rgb(13, 11, 34)" style="font-size:14px;font-family:微软雅黑;color:#0D0B22;font-style:normal;text-align:left;font-weight:400;font-style: normal;"><tspan x="456" y="687.484375"><tspan>二叉搜索树转有序数组</tspan></tspan></text></g></g><g id="69e04ea271c4"><rect x="447" y="713.078125" rx="1px" ry="1px" width="158" height="29" style="fill: transparent; stroke:none;"></rect><g><text text-anchor="start" align="top" anchor="start" font-size="14px" font-weight="400" fill="rgb(13, 11, 34)" style="font-size:14px;font-family:微软雅黑;color:#0D0B22;font-style:normal;text-align:left;font-weight:400;font-style: normal;"><tspan x="456" y="732.5"><tspan>有序数组转二叉搜索树</tspan></tspan></text></g></g><g id="826bf414a98e07cc"><rect x="447" y="758.09375" rx="1px" ry="1px" width="116" height="29" style="fill: transparent; stroke:none;"></rect><g><text text-anchor="start" align="top" anchor="start" font-size="14px" font-weight="400" fill="rgb(13, 11, 34)" style="font-size:14px;font-family:微软雅黑;color:#0D0B22;font-style:normal;text-align:left;font-weight:400;font-style: normal;"><tspan x="456" y="777.515625"><tspan>验证二叉搜索树</tspan></tspan></text></g></g><g id="a1e6ff219ad3"><rect x="447" y="803.109375" rx="1px" ry="1px" width="116" height="29" style="fill: transparent; stroke:none;"></rect><g><text text-anchor="start" align="top" anchor="start" font-size="14px" font-weight="400" fill="rgb(13, 11, 34)" style="font-size:14px;font-family:微软雅黑;color:#0D0B22;font-style:normal;text-align:left;font-weight:400;font-style: normal;"><tspan x="456" y="822.53125"><tspan>二叉树按层遍历</tspan></tspan></text></g></g><g id="366b930cde1688e3"><rect x="447" y="848.125" rx="1px" ry="1px" width="116" height="29" style="fill: transparent; stroke:none;"></rect><g><text text-anchor="start" align="top" anchor="start" font-size="14px" font-weight="400" fill="rgb(13, 11, 34)" style="font-size:14px;font-family:微软雅黑;color:#0D0B22;font-style:normal;text-align:left;font-weight:400;font-style: normal;"><tspan x="456" y="867.546875"><tspan>二叉树之字遍历</tspan></tspan></text></g></g><g id="c6f0ce37cabe"><rect x="447" y="893.140625" rx="1px" ry="1px" width="130" height="29" style="fill: transparent; stroke:none;"></rect><g><text text-anchor="start" align="top" anchor="start" font-size="14px" font-weight="400" fill="rgb(13, 11, 34)" style="font-size:14px;font-family:微软雅黑;color:#0D0B22;font-style:normal;text-align:left;font-weight:400;font-style: normal;"><tspan x="456" y="912.5625"><tspan>最大深度最小深度</tspan></tspan></text></g></g><g id="747d8c333a61068e"><rect x="447" y="938.15625" rx="1px" ry="1px" width="102" height="29" style="fill: transparent; stroke:none;"></rect><g><text text-anchor="start" align="top" anchor="start" font-size="14px" font-weight="400" fill="rgb(13, 11, 34)" style="font-size:14px;font-family:微软雅黑;color:#0D0B22;font-style:normal;text-align:left;font-weight:400;font-style: normal;"><tspan x="456" y="957.578125"><tspan>最近公共祖先</tspan></tspan></text></g></g><g id="0263160a3192a6bd"><rect x="447" y="983.171875" rx="1px" ry="1px" width="102" height="29" style="fill: transparent; stroke:none;"></rect><g><text text-anchor="start" align="top" anchor="start" font-size="14px" font-weight="400" fill="rgb(13, 11, 34)" style="font-size:14px;font-family:微软雅黑;color:#0D0B22;font-style:normal;text-align:left;font-weight:400;font-style: normal;"><tspan x="456" y="1002.59375"><tspan>左右子树互换</tspan></tspan></text></g></g><g id="66066dbc1656cd3b"><rect x="447" y="1028.1875" rx="1px" ry="1px" width="88" height="29" style="fill: transparent; stroke:none;"></rect><g><text text-anchor="start" align="top" anchor="start" font-size="14px" font-weight="400" fill="rgb(13, 11, 34)" style="font-size:14px;font-family:微软雅黑;color:#0D0B22;font-style:normal;text-align:left;font-weight:400;font-style: normal;"><tspan x="456" y="1047.609375"><tspan>镜像二叉树</tspan></tspan></text></g></g><g id="dac0e62a7ee8"><rect x="235" y="225.140625" rx="7px" ry="7px" width="124" height="44" style="fill: #F3F3F4; stroke:none;"></rect><g><text text-anchor="start" align="top" anchor="start" font-size="16px" font-weight="normal" fill="rgb(13, 11, 34)" style="font-size:16px;font-family:微软雅黑;color:#0D0B22;font-style:normal;text-align:left;font-weight:normal;font-style: normal;"><tspan x="257" y="252.609375"><tspan>树（工作）</tspan></tspan></text></g></g><g id="c7cedd4c3f83"><rect x="415" y="52.5" rx="1px" ry="1px" width="60" height="29" style="fill: transparent; stroke:none;"></rect><g><text text-anchor="start" align="top" anchor="start" font-size="14px" font-weight="400" fill="rgb(13, 11, 34)" style="font-size:14px;font-family:微软雅黑;color:#0D0B22;font-style:normal;text-align:left;font-weight:400;font-style: normal;"><tspan x="424" y="71.921875"><tspan>遍历树</tspan></tspan></text></g></g><g id="9e2e613efd3997ee"><rect x="531" y="30" rx="1px" ry="1px" width="102" height="29" style="fill: transparent; stroke:none;"></rect><g><text text-anchor="start" align="top" anchor="start" font-size="14px" font-weight="400" fill="rgb(13, 11, 34)" style="font-size:14px;font-family:微软雅黑;color:#0D0B22;font-style:normal;text-align:left;font-weight:400;font-style: normal;"><tspan x="540" y="49.421875"><tspan>广度优先遍历</tspan></tspan></text></g></g><g id="73d989869faa0f16"><rect x="531" y="75.015625" rx="1px" ry="1px" width="102" height="29" style="fill: transparent; stroke:none;"></rect><g><text text-anchor="start" align="top" anchor="start" font-size="14px" font-weight="400" fill="rgb(13, 11, 34)" style="font-size:14px;font-family:微软雅黑;color:#0D0B22;font-style:normal;text-align:left;font-weight:400;font-style: normal;"><tspan x="540" y="94.4375"><tspan>深度优先遍历</tspan></tspan></text></g></g><g id="7e751ec418e5"><rect x="415" y="187.546875" rx="1px" ry="1px" width="48" height="29" style="fill: transparent; stroke:none;"></rect><g><text text-anchor="start" align="top" anchor="start" font-size="14px" font-weight="400" fill="rgb(13, 11, 34)" style="font-size:14px;font-family:微软雅黑;color:#0D0B22;font-style:normal;text-align:left;font-weight:400;font-style: normal;"><tspan x="424" y="206.96875"><tspan>查找</tspan></tspan></text></g></g><g id="dcab57a57ed23b07"><rect x="519" y="120.03125" rx="1px" ry="1px" width="87" height="29" style="fill: transparent; stroke:none;"></rect><g><text text-anchor="start" align="top" anchor="start" font-size="14px" font-weight="400" fill="rgb(13, 11, 34)" style="font-size:14px;font-family:微软雅黑;color:#0D0B22;font-style:normal;text-align:left;font-weight:400;font-style: normal;"><tspan x="528" y="139.453125"><tspan>根据id查找</tspan></tspan></text></g></g><g id="3c5a6254c6202c47"><rect x="519" y="165.046875" rx="1px" ry="1px" width="102" height="29" style="fill: transparent; stroke:none;"></rect><g><text text-anchor="start" align="top" anchor="start" font-size="14px" font-weight="400" fill="rgb(13, 11, 34)" style="font-size:14px;font-family:微软雅黑;color:#0D0B22;font-style:normal;text-align:left;font-weight:400;font-style: normal;"><tspan x="528" y="184.46875"><tspan>根据回调查找</tspan></tspan></text></g></g><g id="d1f4ad0ad67123b4"><rect x="519" y="210.0625" rx="1px" ry="1px" width="102" height="29" style="fill: transparent; stroke:none;"></rect><g><text text-anchor="start" align="top" anchor="start" font-size="14px" font-weight="400" fill="rgb(13, 11, 34)" style="font-size:14px;font-family:微软雅黑;color:#0D0B22;font-style:normal;text-align:left;font-weight:400;font-style: normal;"><tspan x="528" y="229.484375"><tspan>查找节点路径</tspan></tspan></text></g></g><g id="0274d8cb3d72127d"><rect x="519" y="255.078125" rx="1px" ry="1px" width="130" height="29" style="fill: transparent; stroke:none;"></rect><g><text text-anchor="start" align="top" anchor="start" font-size="14px" font-weight="400" fill="rgb(13, 11, 34)" style="font-size:14px;font-family:微软雅黑;color:#0D0B22;font-style:normal;text-align:left;font-weight:400;font-style: normal;"><tspan x="528" y="274.5"><tspan>查找多条节点路径</tspan></tspan></text></g></g><g id="7fe7581b558f"><rect x="415" y="300.09375" rx="1px" ry="1px" width="109" height="29" style="fill: transparent; stroke:none;"></rect><g><text text-anchor="start" align="top" anchor="start" font-size="14px" font-weight="400" fill="rgb(13, 11, 34)" style="font-size:14px;font-family:微软雅黑;color:#0D0B22;font-style:normal;text-align:left;font-weight:400;font-style: normal;"><tspan x="424" y="319.515625"><tspan>给树增加 level</tspan></tspan></text></g></g><g id="1281d5e7572333e8"><rect x="415" y="345.109375" rx="1px" ry="1px" width="135" height="29" style="fill: transparent; stroke:none;"></rect><g><text text-anchor="start" align="top" anchor="start" font-size="14px" font-weight="400" fill="rgb(13, 11, 34)" style="font-size:14px;font-family:微软雅黑;color:#0D0B22;font-style:normal;text-align:left;font-weight:400;font-style: normal;"><tspan x="424" y="364.53125"><tspan>给树增加 parentId</tspan></tspan></text></g></g><g id="2ad985476e19"><rect x="415" y="390.125" rx="1px" ry="1px" width="74" height="29" style="fill: transparent; stroke:none;"></rect><g><text text-anchor="start" align="top" anchor="start" font-size="14px" font-weight="400" fill="rgb(13, 11, 34)" style="font-size:14px;font-family:微软雅黑;color:#0D0B22;font-style:normal;text-align:left;font-weight:400;font-style: normal;"><tspan x="424" y="409.546875"><tspan>树转数组</tspan></tspan></text></g></g><g id="36fc8bf71451"><rect x="415" y="435.140625" rx="1px" ry="1px" width="74" height="29" style="fill: transparent; stroke:none;"></rect><g><text text-anchor="start" align="top" anchor="start" font-size="14px" font-weight="400" fill="rgb(13, 11, 34)" style="font-size:14px;font-family:微软雅黑;color:#0D0B22;font-style:normal;text-align:left;font-weight:400;font-style: normal;"><tspan x="424" y="454.5625"><tspan>数组转树</tspan></tspan></text></g></g><g transform="translate(235, 488)" id="sdjakdjak0"><g id="subline_bc69091d9342" transform="translate(0.5,-0.5)"><path id="line_ec1866edce53" d="M 156 285 L 156 285 C 181 285 181 14 212 14" p="bc69091d9342" stroke="#0D0B22" stroke-linecap="round" fill="none" stroke-width="2"></path><path id="line_0b82e1cc09f5" d="M 156 285 L 156 285 C 181 285 181 104 212 104" p="bc69091d9342" stroke="#0D0B22" stroke-linecap="round" fill="none" stroke-width="2"></path><path id="line_e3093586159d4b1e" d="M 300 104 L 300 104 C 325 104 325 59 356 59" p="0b82e1cc09f5" stroke="#0D0B22" stroke-linecap="round" fill="none" stroke-width="2"></path><path id="line_736f1e800ad3b390" d="M 300 104 L 300 104 C 325 104 325 104 356 104" p="0b82e1cc09f5" stroke="#0D0B22" stroke-linecap="round" fill="none" stroke-width="2"></path><path id="line_b3b70b3bc2aae542" d="M 300 104 L 300 104 C 325 104 325 149 356 149" p="0b82e1cc09f5" stroke="#0D0B22" stroke-linecap="round" fill="none" stroke-width="2"></path><path id="line_770d4d86fcb2" d="M 156 285 L 156 285 C 181 285 181 194 212 194" p="bc69091d9342" stroke="#0D0B22" stroke-linecap="round" fill="none" stroke-width="2"></path><path id="line_69e04ea271c4" d="M 156 285 L 156 285 C 181 285 181 239 212 239" p="bc69091d9342" stroke="#0D0B22" stroke-linecap="round" fill="none" stroke-width="2"></path><path id="line_826bf414a98e07cc" d="M 156 285 L 156 285 C 181 285 181 285 212 285" p="bc69091d9342" stroke="#0D0B22" stroke-linecap="round" fill="none" stroke-width="2"></path><path id="line_a1e6ff219ad3" d="M 156 285 L 156 285 C 181 285 181 329 212 329" p="bc69091d9342" stroke="#0D0B22" stroke-linecap="round" fill="none" stroke-width="2"></path><path id="line_366b930cde1688e3" d="M 156 285 L 156 285 C 181 285 181 374 212 374" p="bc69091d9342" stroke="#0D0B22" stroke-linecap="round" fill="none" stroke-width="2"></path><path id="line_c6f0ce37cabe" d="M 156 285 L 156 285 C 181 285 181 419 212 419" p="bc69091d9342" stroke="#0D0B22" stroke-linecap="round" fill="none" stroke-width="2"></path><path id="line_747d8c333a61068e" d="M 156 285 L 156 285 C 181 285 181 464 212 464" p="bc69091d9342" stroke="#0D0B22" stroke-linecap="round" fill="none" stroke-width="2"></path><path id="line_0263160a3192a6bd" d="M 156 285 L 156 285 C 181 285 181 509 212 509" p="bc69091d9342" stroke="#0D0B22" stroke-linecap="round" fill="none" stroke-width="2"></path><path id="line_66066dbc1656cd3b" d="M 156 285 L 156 285 C 181 285 181 554 212 554" p="bc69091d9342" stroke="#0D0B22" stroke-linecap="round" fill="none" stroke-width="2"></path></g><g transform="translate(0.5,0)"></g><g class="svg-summary-con" transform="translate(0.5,0.5)"></g><g class="svg-boundary-con" transform="translate(0.5,0.5)"></g></g><g transform="translate(235, 30)" id="sdjakdjak1"><g id="subline_dac0e62a7ee8" transform="translate(0.5,-0.5)"><path id="line_c7cedd4c3f83" d="M 124 217 L 124 217 C 149 217 149 37 180 37" p="dac0e62a7ee8" stroke="#0D0B22" stroke-linecap="round" fill="none" stroke-width="2"></path><path id="line_9e2e613efd3997ee" d="M 240 37 L 240 37 C 265 37 265 14 296 14" p="c7cedd4c3f83" stroke="#0D0B22" stroke-linecap="round" fill="none" stroke-width="2"></path><path id="line_73d989869faa0f16" d="M 240 37 L 240 37 C 265 37 265 59 296 59" p="c7cedd4c3f83" stroke="#0D0B22" stroke-linecap="round" fill="none" stroke-width="2"></path><path id="line_7e751ec418e5" d="M 124 217 L 124 217 C 149 217 149 172 180 172" p="dac0e62a7ee8" stroke="#0D0B22" stroke-linecap="round" fill="none" stroke-width="2"></path><path id="line_dcab57a57ed23b07" d="M 228 172 L 228 172 C 253 172 253 104 284 104" p="7e751ec418e5" stroke="#0D0B22" stroke-linecap="round" fill="none" stroke-width="2"></path><path id="line_3c5a6254c6202c47" d="M 228 172 L 228 172 C 253 172 253 149 284 149" p="7e751ec418e5" stroke="#0D0B22" stroke-linecap="round" fill="none" stroke-width="2"></path><path id="line_d1f4ad0ad67123b4" d="M 228 172 L 228 172 C 253 172 253 194 284 194" p="7e751ec418e5" stroke="#0D0B22" stroke-linecap="round" fill="none" stroke-width="2"></path><path id="line_0274d8cb3d72127d" d="M 228 172 L 228 172 C 253 172 253 239 284 239" p="7e751ec418e5" stroke="#0D0B22" stroke-linecap="round" fill="none" stroke-width="2"></path><path id="line_7fe7581b558f" d="M 124 217 L 124 217 C 149 217 149 284 180 284" p="dac0e62a7ee8" stroke="#0D0B22" stroke-linecap="round" fill="none" stroke-width="2"></path><path id="line_1281d5e7572333e8" d="M 124 217 L 124 217 C 149 217 149 329 180 329" p="dac0e62a7ee8" stroke="#0D0B22" stroke-linecap="round" fill="none" stroke-width="2"></path><path id="line_2ad985476e19" d="M 124 217 L 124 217 C 149 217 149 374 180 374" p="dac0e62a7ee8" stroke="#0D0B22" stroke-linecap="round" fill="none" stroke-width="2"></path><path id="line_36fc8bf71451" d="M 124 217 L 124 217 C 149 217 149 419 180 419" p="dac0e62a7ee8" stroke="#0D0B22" stroke-linecap="round" fill="none" stroke-width="2"></path></g><g transform="translate(0.5,0)"></g><g class="svg-summary-con" transform="translate(0.5,0.5)"></g><g class="svg-boundary-con" transform="translate(0.5,0.5)"></g></g><g transform="translate(30, 515)" id="sdjakdjak2"><g id="subline_root" transform="translate(0.5,-0.5)"></g><g transform="translate(0.5,0)"></g><g class="svg-summary-con" transform="translate(0.5,0.5)"></g><g class="svg-boundary-con" transform="translate(0.5,0.5)"></g></g><g id="root"><rect x="30" y="515" rx="5px" ry="5px" width="110" height="57" style="fill: rgb(80, 194, 139); stroke:rgb(255, 255, 255);stroke-width:0px;"></rect><g><text text-anchor="start" align="top" anchor="start" font-size="18px" font-weight="normal" fill="rgb(255, 255, 255)" style="font-size:18px;font-family:微软雅黑;color:rgb(255, 255, 255);font-style:normal;text-align:left;font-weight:normal;background-color:rgb(80, 194, 139);border-color:rgb(255, 255, 255);font-style: normal;"><tspan x="70" y="549.546875"><tspan>树</tspan></tspan></text></g></g></svg>
