<svg xmlns="http://www.w3.org/2000/svg" version="1.1" xmlns:xlink="http://www.w3.org/1999/xlink" width="439.10003662109375" height="956.5" style="outline: none; background: rgb(250, 250, 250); top: 0px; left: 0px; display: block; z-index: -1; font-size: 12px;" id="mind-svg-con"><defs></defs><g id="svgbackgroundid"><defs></defs><rect width="439.10003662109375" height="956.5" fill="#fafafa"></rect></g><g class="po-mind-container" transform="matrix(1,0,0,1,48.70000076293945,444)"><g class="po-mind-line-container"><g from="root" to="2738e07b-912b-4baa-a779-5887dcd70e42"><path d="M20.7 0L44.7 0L44.7 -396.5C44.7 -396.5 44.7 -404.5 52.7 -404.5L80.7 -404.5" stroke-linecap="butt" stroke-width="1" stroke="#746ea6" fill="none"></path></g><g from="root" to="992b8f27-610e-4fa8-8e55-0efd683b5271"><path d="M20.7 0L44.7 0L44.7 -346.5C44.7 -346.5 44.7 -354.5 52.7 -354.5L80.7 -354.5" stroke-linecap="butt" stroke-width="1" stroke="#746ea6" fill="none"></path></g><g from="root" to="e03804b0-1ac8-4c35-abe4-c6e9c936fffe"><path d="M20.7 0L44.7 0L44.7 -261C44.7 -261 44.7 -269 52.7 -269L80.7 -269" stroke-linecap="butt" stroke-width="1" stroke="#746ea6" fill="none"></path></g><g from="root" to="e16769ae-cc17-4a81-80af-f54833d0af70"><path d="M20.7 0L44.7 0L44.7 0C44.7 0 44.7 0 44.7 0L80.7 0" stroke-linecap="butt" stroke-width="1" stroke="#746ea6" fill="none"></path></g><g from="root" to="589d0367-4339-4ff3-981f-3fd3a75cd751"><path d="M20.7 0L44.7 0L44.7 242.5C44.7 242.5 44.7 250.5 52.7 250.5L80.7 250.5" stroke-linecap="butt" stroke-width="1" stroke="#746ea6" fill="none"></path></g><g from="root" to="aca18934-1548-4623-a898-151d10dc91e1"><path d="M20.7 0L44.7 0L44.7 345C44.7 345 44.7 353 52.7 353L80.7 353" stroke-linecap="butt" stroke-width="1" stroke="#746ea6" fill="none"></path></g><g from="root" to="aea74989-9215-41b0-8e40-dc8bed29544e"><path d="M20.7 0L44.7 0L44.7 447.5C44.7 447.5 44.7 455.5 52.7 455.5L80.7 455.5" stroke-linecap="butt" stroke-width="1" stroke="#746ea6" fill="none"></path></g><g from="e03804b0-1ac8-4c35-abe4-c6e9c936fffe" to="06f403c9-f104-4da3-9349-0d3cf78f9f73"><path d="M190 -269L202 -269L202 -300C202 -300 202 -306 208 -306L214 -306" stroke-linecap="butt" stroke-width="1" stroke="#746e6a" fill="none"></path></g><g from="e03804b0-1ac8-4c35-abe4-c6e9c936fffe" to="ff88d42d-7921-4290-8728-d31bebc8fe55"><path d="M190 -269L202 -269L202 -269C202 -269 202 -269 202 -269L214 -269" stroke-linecap="butt" stroke-width="1" stroke="#746e6a" fill="none"></path></g><g from="e03804b0-1ac8-4c35-abe4-c6e9c936fffe" to="5f96c766-c803-445a-a705-30845082f669"><path d="M190 -269L202 -269L202 -238C202 -238 202 -232 208 -232L214 -232" stroke-linecap="butt" stroke-width="1" stroke="#746e6a" fill="none"></path></g><g from="e16769ae-cc17-4a81-80af-f54833d0af70" to="6078ae40-e792-436c-b040-282faddeb631"><path d="M177 0L189 0L189 -179C189 -179 189 -185 195 -185L201 -185" stroke-linecap="butt" stroke-width="1" stroke="#746e6a" fill="none"></path></g><g from="e16769ae-cc17-4a81-80af-f54833d0af70" to="c364f371-06b2-4bd5-b59b-71f6543c5a5f"><path d="M177 0L189 0L189 -86.5C189 -86.5 189 -92.5 195 -92.5L201 -92.5" stroke-linecap="butt" stroke-width="1" stroke="#746e6a" fill="none"></path></g><g from="e16769ae-cc17-4a81-80af-f54833d0af70" to="9835fc3b-eed6-4c5e-ba5e-6890569fa2fc"><path d="M177 0L189 0L189 0C189 0 189 0 189 0L201 0" stroke-linecap="butt" stroke-width="1" stroke="#746e6a" fill="none"></path></g><g from="e16769ae-cc17-4a81-80af-f54833d0af70" to="4be67405-f703-4233-b0f2-7200197d814c"><path d="M177 0L189 0L189 31C189 31 189 37 195 37L201 37" stroke-linecap="butt" stroke-width="1" stroke="#746e6a" fill="none"></path></g><g from="e16769ae-cc17-4a81-80af-f54833d0af70" to="66777fb8-2a1d-491e-8f32-e5e2083c6ea0"><path d="M177 0L189 0L189 86.5C189 86.5 189 92.5 195 92.5L201 92.5" stroke-linecap="butt" stroke-width="1" stroke="#746e6a" fill="none"></path></g><g from="e16769ae-cc17-4a81-80af-f54833d0af70" to="c43ea6dd-0145-4087-88f4-657e29c9f377"><path d="M177 0L189 0L189 142C189 142 189 148 195 148L201 148" stroke-linecap="butt" stroke-width="1" stroke="#746e6a" fill="none"></path></g><g from="e16769ae-cc17-4a81-80af-f54833d0af70" to="592a4e4a-aeb4-42fd-acaa-24a6c68e8802"><path d="M177 0L189 0L189 179C189 179 189 185 195 185L201 185" stroke-linecap="butt" stroke-width="1" stroke="#746e6a" fill="none"></path></g><g from="c364f371-06b2-4bd5-b59b-71f6543c5a5f" to="422d9aaf-ae61-4db2-8c37-22274a4d5b5d"><path d="M271.2 -92.5L283.2 -92.5L283.2 -142C283.2 -142 283.2 -148 289.2 -148L295.2 -148" stroke-linecap="butt" stroke-width="1" stroke="#746e6a" fill="none"></path></g><g from="c364f371-06b2-4bd5-b59b-71f6543c5a5f" to="970da846-06ac-4c09-837d-92cdb162e471"><path d="M271.2 -92.5L283.2 -92.5L283.2 -105C283.2 -105 283.2 -111 289.2 -111L295.2 -111" stroke-linecap="butt" stroke-width="1" stroke="#746e6a" fill="none"></path></g><g from="c364f371-06b2-4bd5-b59b-71f6543c5a5f" to="1ce493e9-8f82-49d2-8010-6cd4f516ae6e"><path d="M271.2 -92.5L283.2 -92.5L283.2 -80C283.2 -80 283.2 -74 289.2 -74L295.2 -74" stroke-linecap="butt" stroke-width="1" stroke="#746e6a" fill="none"></path></g><g from="c364f371-06b2-4bd5-b59b-71f6543c5a5f" to="2563f42f-feb0-434f-92f1-d000edc03a61"><path d="M271.2 -92.5L283.2 -92.5L283.2 -43C283.2 -43 283.2 -37 289.2 -37L295.2 -37" stroke-linecap="butt" stroke-width="1" stroke="#746e6a" fill="none"></path></g><g from="66777fb8-2a1d-491e-8f32-e5e2083c6ea0" to="0f718901-2f9d-4cac-bc6e-c72add1f3ac3"><path d="M271.2 92.5L283.2 92.5L283.2 80C283.2 80 283.2 74 289.2 74L295.2 74" stroke-linecap="butt" stroke-width="1" stroke="#746e6a" fill="none"></path></g><g from="66777fb8-2a1d-491e-8f32-e5e2083c6ea0" to="07070271-931d-4e67-94a5-ca6dd0b64452"><path d="M271.2 92.5L283.2 92.5L283.2 105C283.2 105 283.2 111 289.2 111L295.2 111" stroke-linecap="butt" stroke-width="1" stroke="#746e6a" fill="none"></path></g><g from="589d0367-4339-4ff3-981f-3fd3a75cd751" to="b706fbd2-4285-4a4f-ab28-26f447882baf"><path d="M214 250.5L226 250.5L226 238C226 238 226 232 232 232L238 232" stroke-linecap="butt" stroke-width="1" stroke="#746e6a" fill="none"></path></g><g from="589d0367-4339-4ff3-981f-3fd3a75cd751" to="94c473ed-711d-4da1-9c52-d47c91c1dbc6"><path d="M214 250.5L226 250.5L226 263C226 263 226 269 232 269L238 269" stroke-linecap="butt" stroke-width="1" stroke="#746e6a" fill="none"></path></g><g from="aca18934-1548-4623-a898-151d10dc91e1" to="617d89ff-6e90-4fff-9837-a2939eaffb73"><path d="M156 353L168 353L168 322C168 322 168 316 174 316L180 316" stroke-linecap="butt" stroke-width="1" stroke="#746e6a" fill="none"></path></g><g from="aca18934-1548-4623-a898-151d10dc91e1" to="5b41fa46-f8d2-419a-840a-f403e74f0c90"><path d="M156 353L168 353L168 353C168 353 168 353 168 353L180 353" stroke-linecap="butt" stroke-width="1" stroke="#746e6a" fill="none"></path></g><g from="aca18934-1548-4623-a898-151d10dc91e1" to="1dbab2a5-cd1d-468c-8bd1-a572ebcaea86"><path d="M156 353L168 353L168 384C168 384 168 390 174 390L180 390" stroke-linecap="butt" stroke-width="1" stroke="#746e6a" fill="none"></path></g><g from="aea74989-9215-41b0-8e40-dc8bed29544e" to="e5f3fb77-9f2e-48df-ab2b-32bc67de3114"><path d="M144 455.5L156 455.5L156 443C156 443 156 437 162 437L168 437" stroke-linecap="butt" stroke-width="1" stroke="#746e6a" fill="none"></path></g><g from="aea74989-9215-41b0-8e40-dc8bed29544e" to="441936bc-ae8f-4e2f-9129-46f7f0db7d1b"><path d="M144 455.5L156 455.5L156 468C156 468 156 474 162 474L168 474" stroke-linecap="butt" stroke-width="1" stroke="#746e6a" fill="none"></path></g></g><g class="po-mind-generalize-container"></g><g class="po-mind-associative-line-container"></g><g class="po-mind-node-container"><g class="po-mind-topic" id="topic-root" transform="matrix(1,0,0,1,-20.7,-16.5)"><path d="M10,0 L30.4,0 C30.4,0 40.4,0 40.4,10 L40.4,22 C40.4,22 40.4,32 30.4,32
      L10,32 C10,32 0,32 0,22 L0,10 C0,10 0,0 10,0Z" class="po-mind-topic-shape-fill" transform="matrix(1,0,0,1,0.5,0.5)" fill="none"></path><path d="M10,0 L30.4,0 C30.4,0 40.4,0 40.4,10 L40.4,22 C40.4,22 40.4,32 30.4,32
      L10,32 C10,32 0,32 0,22 L0,10 C0,10 0,0 10,0Z" class="po-mind-topic-shape" transform="matrix(1,0,0,1,0.5,0.5)" fill="none" stroke-width="1" stroke="#b2afad"></path><g transform="matrix(1,0,0,1,10.5,6.5)"><g data-width="20.4" data-height="20" data-offsetx="0" transform="matrix(1,0,0,1,0,0)"><g><text text-anchor="start" align="top" anchor="start" font-size="14px" font-weight="" fill="rgb(78, 78, 78)" style="font-family: arial, 黑体;font-size: 14px;line-height: 140%;max-width: 896px;overflow-wrap: break-word;word-break: break-word;text-size-adjust: 100%;color: rgb(78, 78, 78);"><tspan x="0" y="13.999999999999996"><tspan dx="0">Git</tspan></tspan></text></g></g></g><g><rect width="4" height="33" x="-3" y="0" resize="1" fill="none" style="cursor: ew-resize;"></rect><rect width="4" height="33" x="42.4" y="0" resize="2" fill="none" style="cursor: ew-resize;"></rect></g></g><g class="po-mind-topic" id="topic-2738e07b-912b-4baa-a779-5887dcd70e42" transform="matrix(1,0,0,1,80.7,-419.5)"><path d="M8,0 L61.3,0 C61.3,0 69.3,0 69.3,8 L69.3,21 C69.3,21 69.3,29 61.3,29
      L8,29 C8,29 0,29 0,21 L0,8 C0,8 0,0 8,0Z" class="po-mind-topic-shape-fill" transform="matrix(1,0,0,1,0.5,0.5)" fill="#ffffff"></path><path d="M8,0 L61.3,0 C61.3,0 69.3,0 69.3,8 L69.3,21 C69.3,21 69.3,29 61.3,29
      L8,29 C8,29 0,29 0,21 L0,8 C0,8 0,0 8,0Z" class="po-mind-topic-shape" transform="matrix(1,0,0,1,0.5,0.5)" fill="none" stroke-width="1" stroke="#d1cecd"></path><g transform="matrix(1,0,0,1,10.5,5.5)"><g data-width="49.3" data-height="19" data-offsetx="0" transform="matrix(1,0,0,1,0,0)"><g><text text-anchor="start" align="top" anchor="start" font-size="13px" font-weight="" fill="rgb(89, 89, 89)" style="font-family: arial, 黑体;font-size: 13px;line-height: 140%;max-width: 897px;overflow-wrap: break-word;word-break: break-word;text-size-adjust: 100%;color: rgb(89, 89, 89);"><tspan x="0" y="13"><tspan dx="0">Git 简介</tspan></tspan></text></g></g></g></g><g class="po-mind-topic" id="topic-992b8f27-610e-4fa8-8e55-0efd683b5271" transform="matrix(1,0,0,1,80.7,-369.5)"><path d="M8,0 L87.3,0 C87.3,0 95.3,0 95.3,8 L95.3,21 C95.3,21 95.3,29 87.3,29
      L8,29 C8,29 0,29 0,21 L0,8 C0,8 0,0 8,0Z" class="po-mind-topic-shape-fill" transform="matrix(1,0,0,1,0.5,0.5)" fill="#ffffff"></path><path d="M8,0 L87.3,0 C87.3,0 95.3,0 95.3,8 L95.3,21 C95.3,21 95.3,29 87.3,29
      L8,29 C8,29 0,29 0,21 L0,8 C0,8 0,0 8,0Z" class="po-mind-topic-shape" transform="matrix(1,0,0,1,0.5,0.5)" fill="none" stroke-width="1" stroke="#d1cecd"></path><g transform="matrix(1,0,0,1,10.5,5.5)"><g data-width="75.3" data-height="19" data-offsetx="0" transform="matrix(1,0,0,1,0,0)"><g><text text-anchor="start" align="top" anchor="start" font-size="13px" font-weight="" fill="rgb(89, 89, 89)" style="font-family: arial, 黑体;font-size: 13px;line-height: 140%;max-width: 897px;overflow-wrap: break-word;word-break: break-word;text-size-adjust: 100%;color: rgb(89, 89, 89);"><tspan x="0" y="13"><tspan dx="0">Git 基础概念</tspan></tspan></text></g></g></g></g><g class="po-mind-topic" id="topic-e03804b0-1ac8-4c35-abe4-c6e9c936fffe" transform="matrix(1,0,0,1,80.7,-284)"><path d="M8,0 L100.3,0 C100.3,0 108.3,0 108.3,8 L108.3,21 C108.3,21 108.3,29 100.3,29
      L8,29 C8,29 0,29 0,21 L0,8 C0,8 0,0 8,0Z" class="po-mind-topic-shape-fill" transform="matrix(1,0,0,1,0.5,0.5)" fill="#ffffff"></path><path d="M8,0 L100.3,0 C100.3,0 108.3,0 108.3,8 L108.3,21 C108.3,21 108.3,29 100.3,29
      L8,29 C8,29 0,29 0,21 L0,8 C0,8 0,0 8,0Z" class="po-mind-topic-shape" transform="matrix(1,0,0,1,0.5,0.5)" fill="none" stroke-width="1" stroke="#d1cecd"></path><g transform="matrix(1,0,0,1,10.5,5.5)"><g data-width="88.3" data-height="19" data-offsetx="0" transform="matrix(1,0,0,1,0,0)"><g><text text-anchor="start" align="top" anchor="start" font-size="13px" font-weight="" fill="rgb(89, 89, 89)" style="font-family: arial, 黑体;font-size: 13px;line-height: 140%;max-width: 897px;overflow-wrap: break-word;word-break: break-word;text-size-adjust: 100%;color: rgb(89, 89, 89);"><tspan x="0" y="13"><tspan dx="0">Git 安装与配置</tspan></tspan></text></g></g></g></g><g class="po-mind-topic" id="topic-06f403c9-f104-4da3-9349-0d3cf78f9f73" transform="matrix(1,0,0,1,214,-319.5)"><path d="M0,0 L82.2,0 C82.2,0 82.2,0 82.2,0 
                         L82.2,27 C82.2,27 82.2,27 82.2,27 
                         L0,27 C0,27 0,27 0,27 L0,0 
                         C0,0 0,0 0,0 Z" class="po-mind-topic-shape-fill" transform="matrix(1,0,0,1,0,0)" fill="none"></path><path d="M0,0 L82.2,0 C82.2,0 82.2,0 82.2,0 
                         L82.2,27 C82.2,27 82.2,27 82.2,27 
                         L0,27 C0,27 0,27 0,27 L0,0 
                         C0,0 0,0 0,0 Z" class="po-mind-topic-shape" transform="matrix(1,0,0,1,0,0)" fill="none" stroke-width="0" stroke="#746e6a"></path><g transform="matrix(1,0,0,1,10,5)"><g data-width="62.2" data-height="17" data-offsetx="0" transform="matrix(1,0,0,1,0,0)"><g><text text-anchor="start" align="top" anchor="start" font-size="12px" font-weight="" fill="rgb(96, 96, 96)" style="font-family: arial, 黑体;font-size: 12px;line-height: 140%;max-width: 900px;overflow-wrap: break-word;word-break: break-word;text-size-adjust: 100%;color: rgb(96, 96, 96);"><tspan x="0" y="11.159999999999997"><tspan dx="0">安装方式</tspan></tspan></text></g></g></g></g><g class="po-mind-topic" id="topic-ff88d42d-7921-4290-8728-d31bebc8fe55" transform="matrix(1,0,0,1,214,-282.5)"><path d="M0,0 L94.2,0 C94.2,0 94.2,0 94.2,0
                         L94.2,27 C94.2,27 94.2,27 94.2,27 
                         L0,27 C0,27 0,27 0,27 L0,0 
                         C0,0 0,0 0,0 Z" class="po-mind-topic-shape-fill" transform="matrix(1,0,0,1,0,0)" fill="none"></path><path d="M0,0 L94.2,0 C94.2,0 94.2,0 94.2,0 
                         L94.2,27 C94.2,27 94.2,27 94.2,27 
                         L0,27 C0,27 0,27 0,27 L0,0 
                         C0,0 0,0 0,0 Z" class="po-mind-topic-shape" transform="matrix(1,0,0,1,0,0)" fill="none" stroke-width="0" stroke="#746e6a"></path><g transform="matrix(1,0,0,1,10,5)"><g data-width="74.2" data-height="17" data-offsetx="0" transform="matrix(1,0,0,1,0,0)"><g><text text-anchor="start" align="top" anchor="start" font-size="12px" font-weight="" fill="rgb(96, 96, 96)" style="font-family: arial, 黑体;font-size: 12px;line-height: 140%;max-width: 900px;overflow-wrap: break-word;word-break: break-word;text-size-adjust: 100%;color: rgb(96, 96, 96);"><tspan x="0" y="11.159999999999997"><tspan dx="0">初始化配置</tspan></tspan></text></g></g></g></g><g class="po-mind-topic" id="topic-5f96c766-c803-445a-a705-30845082f669" transform="matrix(1,0,0,1,214,-245.5)"><path d="M0,0 L82.2,0 C82.2,0 82.2,0 82.2,0
                         L82.2,27 C82.2,27 82.2,27 82.2,27 
                         L0,27 C0,27 0,27 0,27 L0,0 
                         C0,0 0,0 0,0 Z" class="po-mind-topic-shape-fill" transform="matrix(1,0,0,1,0,0)" fill="none"></path><path d="M0,0 L82.2,0 C82.2,0 82.2,0 82.2,0 
                         L82.2,27 C82.2,27 82.2,27 82.2,27 
                         L0,27 C0,27 0,27 0,27 L0,0 
                         C0,0 0,0 0,0 Z" class="po-mind-topic-shape" transform="matrix(1,0,0,1,0,0)" fill="none" stroke-width="0" stroke="#746e6a"></path><g transform="matrix(1,0,0,1,10,5)"><g data-width="62.2" data-height="17" data-offsetx="0" transform="matrix(1,0,0,1,0,0)"><g><text text-anchor="start" align="top" anchor="start" font-size="12px" font-weight="" fill="rgb(96, 96, 96)" style="font-family: arial, 黑体;font-size: 12px;line-height: 140%;max-width: 900px;overflow-wrap: break-word;word-break: break-word;text-size-adjust: 100%;color: rgb(96, 96, 96);"><tspan x="0" y="11.159999999999997"><tspan dx="0">配置进阶</tspan></tspan></text></g></g></g></g><g class="po-mind-topic" id="topic-e16769ae-cc17-4a81-80af-f54833d0af70" transform="matrix(1,0,0,1,80.7,-15)"><path d="M8,0 L87.3,0 C87.3,0 95.3,0 95.3,8 L95.3,21 C95.3,21 95.3,29 87.3,29
      L8,29 C8,29 0,29 0,21 L0,8 C0,8 0,0 8,0Z" class="po-mind-topic-shape-fill" transform="matrix(1,0,0,1,0.5,0.5)" fill="#ffffff"></path><path d="M8,0 L87.3,0 C87.3,0 95.3,0 95.3,8 L95.3,21 C95.3,21 95.3,29 87.3,29
      L8,29 C8,29 0,29 0,21 L0,8 C0,8 0,0 8,0Z" class="po-mind-topic-shape" transform="matrix(1,0,0,1,0.5,0.5)" fill="none" stroke-width="1" stroke="#d1cecd"></path><g transform="matrix(1,0,0,1,10.5,5.5)"><g data-width="75.3" data-height="19" data-offsetx="0" transform="matrix(1,0,0,1,0,0)"><g><text text-anchor="start" align="top" anchor="start" font-size="13px" font-weight="" fill="rgb(89, 89, 89)" style="font-family: arial, 黑体;font-size: 13px;line-height: 140%;max-width: 897px;overflow-wrap: break-word;word-break: break-word;text-size-adjust: 100%;color: rgb(89, 89, 89);"><tspan x="0" y="13"><tspan dx="0">Git 常用命令</tspan></tspan></text></g></g></g></g><g class="po-mind-topic" id="topic-6078ae40-e792-436c-b040-282faddeb631" transform="matrix(1,0,0,1,201,-198.5)"><path d="M0,0 L70.2,0 C70.2,0 70.2,0 70.2,0 
                         L70.2,27 C70.2,27 70.2,27 70.2,27 
                         L0,27 C0,27 0,27 0,27 L0,0 
                         C0,0 0,0 0,0 Z" class="po-mind-topic-shape-fill" transform="matrix(1,0,0,1,0,0)" fill="none"></path><path d="M0,0 L70.2,0 C70.2,0 70.2,0 70.2,0 
                         L70.2,27 C70.2,27 70.2,27 70.2,27 
                         L0,27 C0,27 0,27 0,27 L0,0 
                         C0,0 0,0 0,0 Z" class="po-mind-topic-shape" transform="matrix(1,0,0,1,0,0)" fill="none" stroke-width="0" stroke="#746e6a"></path><g transform="matrix(1,0,0,1,10,5)"><g data-width="50.2" data-height="17" data-offsetx="0" transform="matrix(1,0,0,1,0,0)"><g><text text-anchor="start" align="top" anchor="start" font-size="12px" font-weight="" fill="rgb(96, 96, 96)" style="font-family: arial, 黑体;font-size: 12px;line-height: 140%;max-width: 900px;overflow-wrap: break-word;word-break: break-word;text-size-adjust: 100%;color: rgb(96, 96, 96);"><tspan x="0" y="11.159999999999997"><tspan dx="0">仓库操作</tspan></tspan></text></g></g></g></g><g class="po-mind-topic" id="topic-c364f371-06b2-4bd5-b59b-71f6543c5a5f" transform="matrix(1,0,0,1,201,-106)"><path d="M0,0 L70.2,0 C70.2,0 70.2,0 70.2,0 
                         L70.2,27 C70.2,27 70.2,27 70.2,27 
                         L0,27 C0,27 0,27 0,27 L0,0 
                         C0,0 0,0 0,0 Z" class="po-mind-topic-shape-fill" transform="matrix(1,0,0,1,0,0)" fill="none"></path><path d="M0,0 L70.2,0 C70.2,0 70.2,0 70.2,0 
                         L70.2,27 C70.2,27 70.2,27 70.2,27 
                         L0,27 C0,27 0,27 0,27 L0,0 
                         C0,0 0,0 0,0 Z" class="po-mind-topic-shape" transform="matrix(1,0,0,1,0,0)" fill="none" stroke-width="0" stroke="#746e6a"></path><g transform="matrix(1,0,0,1,10,5)"><g data-width="50.2" data-height="17" data-offsetx="0" transform="matrix(1,0,0,1,0,0)"><g><text text-anchor="start" align="top" anchor="start" font-size="12px" font-weight="" fill="rgb(96, 96, 96)" style="font-family: arial, 黑体;font-size: 12px;line-height: 140%;max-width: 900px;overflow-wrap: break-word;word-break: break-word;text-size-adjust: 100%;color: rgb(96, 96, 96);"><tspan x="0" y="11.159999999999997"><tspan dx="0">代码提交</tspan></tspan></text></g></g></g></g><g class="po-mind-topic" id="topic-422d9aaf-ae61-4db2-8c37-22274a4d5b5d" transform="matrix(1,0,0,1,295.2,-161.5)"><path d="M0,0 L42.2,0 C42.2,0 42.2,0 42.2,0 
                         L42.2,27 C42.2,27 42.2,27 42.2,27 
                         L0,27 C0,27 0,27 0,27 L0,0 
                         C0,0 0,0 0,0 Z" class="po-mind-topic-shape-fill" transform="matrix(1,0,0,1,0,0)" fill="none"></path><path d="M0,0 L42.2,0 C42.2,0 42.2,0 42.2,0 
                         L42.2,27 C42.2,27 42.2,27 42.2,27 
                         L0,27 C0,27 0,27 0,27 L0,0 
                         C0,0 0,0 0,0 Z" class="po-mind-topic-shape" transform="matrix(1,0,0,1,0,0)" fill="none" stroke-width="0" stroke="#746e6a"></path><g transform="matrix(1,0,0,1,10,5)"><g data-width="22.2" data-height="17" data-offsetx="0" transform="matrix(1,0,0,1,0,0)"><g><text text-anchor="start" align="top" anchor="start" font-size="12px" font-weight="" fill="rgb(96, 96, 96)" style="font-family: arial, 黑体;font-size: 12px;line-height: 140%;max-width: 900px;overflow-wrap: break-word;word-break: break-word;text-size-adjust: 100%;color: rgb(96, 96, 96);"><tspan x="0" y="11.159999999999997"><tspan dx="0">add</tspan></tspan></text></g></g></g></g><g class="po-mind-topic" id="topic-970da846-06ac-4c09-837d-92cdb162e471" transform="matrix(1,0,0,1,295.2,-124.5)"><path d="M0,0 L61.2,0 C61.2,0 61.2,0 61.2,0 
                         L61.2,27 C61.2,27 61.2,27 61.2,27 
                         L0,27 C0,27 0,27 0,27 L0,0 
                         C0,0 0,0 0,0 Z" class="po-mind-topic-shape-fill" transform="matrix(1,0,0,1,0,0)" fill="none"></path><path d="M0,0 L61.2,0 C61.2,0 61.2,0 61.2,0 
                         L61.2,27 C61.2,27 61.2,27 61.2,27 
                         L0,27 C0,27 0,27 0,27 L0,0 
                         C0,0 0,0 0,0 Z" class="po-mind-topic-shape" transform="matrix(1,0,0,1,0,0)" fill="none" stroke-width="0" stroke="#746e6a"></path><g transform="matrix(1,0,0,1,10,5)"><g data-width="41.2" data-height="17" data-offsetx="0" transform="matrix(1,0,0,1,0,0)"><g><text text-anchor="start" align="top" anchor="start" font-size="12px" font-weight="" fill="rgb(96, 96, 96)" style="font-family: arial, 黑体;font-size: 12px;line-height: 140%;max-width: 900px;overflow-wrap: break-word;word-break: break-word;text-size-adjust: 100%;color: rgb(96, 96, 96);"><tspan x="0" y="11.159999999999997"><tspan dx="0">commit</tspan></tspan></text></g></g></g></g><g class="po-mind-topic" id="topic-1ce493e9-8f82-49d2-8010-6cd4f516ae6e" transform="matrix(1,0,0,1,295.2,-87.5)"><path d="M0,0 L54.2,0 C54.2,0 54.2,0 54.2,0 
                         L54.2,27 C54.2,27 54.2,27 54.2,27 
                         L0,27 C0,27 0,27 0,27 L0,0 
                         C0,0 0,0 0,0 Z" class="po-mind-topic-shape-fill" transform="matrix(1,0,0,1,0,0)" fill="none"></path><path d="M0,0 L54.2,0 C54.2,0 54.2,0 54.2,0 
                         L54.2,27 C54.2,27 54.2,27 54.2,27 
                         L0,27 C0,27 0,27 0,27 L0,0 
                         C0,0 0,0 0,0 Z" class="po-mind-topic-shape" transform="matrix(1,0,0,1,0,0)" fill="none" stroke-width="0" stroke="#746e6a"></path><g transform="matrix(1,0,0,1,10,5)"><g data-width="34.2" data-height="17" data-offsetx="0" transform="matrix(1,0,0,1,0,0)"><g><text text-anchor="start" align="top" anchor="start" font-size="12px" font-weight="" fill="rgb(96, 96, 96)" style="font-family: arial, 黑体;font-size: 12px;line-height: 140%;max-width: 900px;overflow-wrap: break-word;word-break: break-word;text-size-adjust: 100%;color: rgb(96, 96, 96);"><tspan x="0" y="11.159999999999997"><tspan dx="0">status</tspan></tspan></text></g></g></g></g><g class="po-mind-topic" id="topic-2563f42f-feb0-434f-92f1-d000edc03a61" transform="matrix(1,0,0,1,295.2,-50.5)"><path d="M0,0 L40,0 C40,0 40,0 40,0 
                         L40,27 C40,27 40,27 40,27 
                         L0,27 C0,27 0,27 0,27 L0,0 
                         C0,0 0,0 0,0 Z" class="po-mind-topic-shape-fill" transform="matrix(1,0,0,1,0,0)" fill="none"></path><path d="M0,0 L40,0 C40,0 40,0 40,0 
                         L40,27 C40,27 40,27 40,27 
                         L0,27 C0,27 0,27 0,27 L0,0 
                         C0,0 0,0 0,0 Z" class="po-mind-topic-shape" transform="matrix(1,0,0,1,0,0)" fill="none" stroke-width="0" stroke="#746e6a"></path><g transform="matrix(1,0,0,1,10,5)"><g data-width="20" data-height="17" data-offsetx="0" transform="matrix(1,0,0,1,0,0)"><g><text text-anchor="start" align="top" anchor="start" font-size="12px" font-weight="" fill="rgb(96, 96, 96)" style="font-family: arial, 黑体;font-size: 12px;line-height: 140%;max-width: 900px;overflow-wrap: break-word;word-break: break-word;text-size-adjust: 100%;color: rgb(96, 96, 96);"><tspan x="0" y="11.159999999999997"><tspan dx="0">diff</tspan></tspan></text></g></g></g></g><g class="po-mind-topic" id="topic-9835fc3b-eed6-4c5e-ba5e-6890569fa2fc" transform="matrix(1,0,0,1,201,-13.5)"><path d="M0,0 L70.2,0 C70.2,0 70.2,0 70.2,0 
                         L70.2,27 C70.2,27 70.2,27 70.2,27 
                         L0,27 C0,27 0,27 0,27 L0,0 
                         C0,0 0,0 0,0 Z" class="po-mind-topic-shape-fill" transform="matrix(1,0,0,1,0,0)" fill="none"></path><path d="M0,0 L70.2,0 C70.2,0 70.2,0 70.2,0 
                         L70.2,27 C70.2,27 70.2,27 70.2,27 
                         L0,27 C0,27 0,27 0,27 L0,0 
                         C0,0 0,0 0,0 Z" class="po-mind-topic-shape" transform="matrix(1,0,0,1,0,0)" fill="none" stroke-width="0" stroke="#746e6a"></path><g transform="matrix(1,0,0,1,10,5)"><g data-width="50.2" data-height="17" data-offsetx="0" transform="matrix(1,0,0,1,0,0)"><g><text text-anchor="start" align="top" anchor="start" font-size="12px" font-weight="" fill="rgb(96, 96, 96)" style="font-family: arial, 黑体;font-size: 12px;line-height: 140%;max-width: 900px;overflow-wrap: break-word;word-break: break-word;text-size-adjust: 100%;color: rgb(96, 96, 96);"><tspan x="0" y="11.159999999999997"><tspan dx="0">临时暂存</tspan></tspan></text></g></g></g></g><g class="po-mind-topic" id="topic-4be67405-f703-4233-b0f2-7200197d814c" transform="matrix(1,0,0,1,201,23.5)"><path d="M0,0 L70.2,0 C70.2,0 70.2,0 70.2,0 
                         L70.2,27 C70.2,27 70.2,27 70.2,27 
                         L0,27 C0,27 0,27 0,27 L0,0 
                         C0,0 0,0 0,0 Z" class="po-mind-topic-shape-fill" transform="matrix(1,0,0,1,0,0)" fill="none"></path><path d="M0,0 L70.2,0 C70.2,0 70.2,0 70.2,0 
                         L70.2,27 C70.2,27 70.2,27 70.2,27 
                         L0,27 C0,27 0,27 0,27 L0,0 
                         C0,0 0,0 0,0 Z" class="po-mind-topic-shape" transform="matrix(1,0,0,1,0,0)" fill="none" stroke-width="0" stroke="#746e6a"></path><g transform="matrix(1,0,0,1,10,5)"><g data-width="50.2" data-height="17" data-offsetx="0" transform="matrix(1,0,0,1,0,0)"><g><text text-anchor="start" align="top" anchor="start" font-size="12px" font-weight="" fill="rgb(96, 96, 96)" style="font-family: arial, 黑体;font-size: 12px;line-height: 140%;max-width: 900px;overflow-wrap: break-word;word-break: break-word;text-size-adjust: 100%;color: rgb(96, 96, 96);"><tspan x="0" y="11.159999999999997"><tspan dx="0">择优挑选</tspan></tspan></text></g></g></g></g><g class="po-mind-topic" id="topic-66777fb8-2a1d-491e-8f32-e5e2083c6ea0" transform="matrix(1,0,0,1,201,79)"><path d="M0,0 L70.2,0 C70.2,0 70.2,0 70.2,0 
                         L70.2,27 C70.2,27 70.2,27 70.2,27 
                         L0,27 C0,27 0,27 0,27 L0,0 
                         C0,0 0,0 0,0 Z" class="po-mind-topic-shape-fill" transform="matrix(1,0,0,1,0,0)" fill="none"></path><path d="M0,0 L70.2,0 C70.2,0 70.2,0 70.2,0 
                         L70.2,27 C70.2,27 70.2,27 70.2,27 
                         L0,27 C0,27 0,27 0,27 L0,0 
                         C0,0 0,0 0,0 Z" class="po-mind-topic-shape" transform="matrix(1,0,0,1,0,0)" fill="none" stroke-width="0" stroke="#746e6a"></path><g transform="matrix(1,0,0,1,10,5)"><g data-width="50.2" data-height="17" data-offsetx="0" transform="matrix(1,0,0,1,0,0)"><g><text text-anchor="start" align="top" anchor="start" font-size="12px" font-weight="" fill="rgb(96, 96, 96)" style="font-family: arial, 黑体;font-size: 12px;line-height: 140%;max-width: 900px;overflow-wrap: break-word;word-break: break-word;text-size-adjust: 100%;color: rgb(96, 96, 96);"><tspan x="0" y="11.159999999999997"><tspan dx="0">分支管理</tspan></tspan></text></g></g></g></g><g class="po-mind-topic" id="topic-0f718901-2f9d-4cac-bc6e-c72add1f3ac3" transform="matrix(1,0,0,1,295.2,60.5)"><path d="M0,0 L70.2,0 C70.2,0 70.2,0 70.2,0 
                         L70.2,27 C70.2,27 70.2,27 70.2,27 
                         L0,27 C0,27 0,27 0,27 L0,0 
                         C0,0 0,0 0,0 Z" class="po-mind-topic-shape-fill" transform="matrix(1,0,0,1,0,0)" fill="none"></path><path d="M0,0 L70.2,0 C70.2,0 70.2,0 70.2,0 
                         L70.2,27 C70.2,27 70.2,27 70.2,27 
                         L0,27 C0,27 0,27 0,27 L0,0 
                         C0,0 0,0 0,0 Z" class="po-mind-topic-shape" transform="matrix(1,0,0,1,0,0)" fill="none" stroke-width="0" stroke="#746e6a"></path><g transform="matrix(1,0,0,1,10,5)"><g data-width="50.2" data-height="17" data-offsetx="0" transform="matrix(1,0,0,1,0,0)"><g><text text-anchor="start" align="top" anchor="start" font-size="12px" font-weight="" fill="rgb(96, 96, 96)" style="font-family: arial, 黑体;font-size: 12px;line-height: 140%;max-width: 900px;overflow-wrap: break-word;word-break: break-word;text-size-adjust: 100%;color: rgb(96, 96, 96);"><tspan x="0" y="11.159999999999997"><tspan dx="0">合并策略</tspan></tspan></text></g></g></g></g><g class="po-mind-topic" id="topic-07070271-931d-4e67-94a5-ca6dd0b64452" transform="matrix(1,0,0,1,295.2,97.5)"><path d="M0,0 L70.2,0 C70.2,0 70.2,0 70.2,0 
                         L70.2,27 C70.2,27 70.2,27 70.2,27 
                         L0,27 C0,27 0,27 0,27 L0,0 
                         C0,0 0,0 0,0 Z" class="po-mind-topic-shape-fill" transform="matrix(1,0,0,1,0,0)" fill="none"></path><path d="M0,0 L70.2,0 C70.2,0 70.2,0 70.2,0 
                         L70.2,27 C70.2,27 70.2,27 70.2,27 
                         L0,27 C0,27 0,27 0,27 L0,0 
                         C0,0 0,0 0,0 Z" class="po-mind-topic-shape" transform="matrix(1,0,0,1,0,0)" fill="none" stroke-width="0" stroke="#746e6a"></path><g transform="matrix(1,0,0,1,10,5)"><g data-width="50.2" data-height="17" data-offsetx="0" transform="matrix(1,0,0,1,0,0)"><g><text text-anchor="start" align="top" anchor="start" font-size="12px" font-weight="" fill="rgb(96, 96, 96)" style="font-family: arial, 黑体;font-size: 12px;line-height: 140%;max-width: 900px;overflow-wrap: break-word;word-break: break-word;text-size-adjust: 100%;color: rgb(96, 96, 96);"><tspan x="0" y="11.159999999999997"><tspan dx="0">冲突解决</tspan></tspan></text></g></g></g></g><g class="po-mind-topic" id="topic-c43ea6dd-0145-4087-88f4-657e29c9f377" transform="matrix(1,0,0,1,201,134.5)"><path d="M0,0 L70.2,0 C70.2,0 70.2,0 70.2,0 
                         L70.2,27 C70.2,27 70.2,27 70.2,27 
                         L0,27 C0,27 0,27 0,27 L0,0 
                         C0,0 0,0 0,0 Z" class="po-mind-topic-shape-fill" transform="matrix(1,0,0,1,0,0)" fill="none"></path><path d="M0,0 L70.2,0 C70.2,0 70.2,0 70.2,0 
                         L70.2,27 C70.2,27 70.2,27 70.2,27 
                         L0,27 C0,27 0,27 0,27 L0,0 
                         C0,0 0,0 0,0 Z" class="po-mind-topic-shape" transform="matrix(1,0,0,1,0,0)" fill="none" stroke-width="0" stroke="#746e6a"></path><g transform="matrix(1,0,0,1,10,5)"><g data-width="50.2" data-height="17" data-offsetx="0" transform="matrix(1,0,0,1,0,0)"><g><text text-anchor="start" align="top" anchor="start" font-size="12px" font-weight="" fill="rgb(96, 96, 96)" style="font-family: arial, 黑体;font-size: 12px;line-height: 140%;max-width: 900px;overflow-wrap: break-word;word-break: break-word;text-size-adjust: 100%;color: rgb(96, 96, 96);"><tspan x="0" y="11.159999999999997"><tspan dx="0">远程操作</tspan></tspan></text></g></g></g></g><g class="po-mind-topic" id="topic-592a4e4a-aeb4-42fd-acaa-24a6c68e8802" transform="matrix(1,0,0,1,201,171.5)"><path d="M0,0 L70.2,0 C70.2,0 70.2,0 70.2,0 
                         L70.2,27 C70.2,27 70.2,27 70.2,27 
                         L0,27 C0,27 0,27 0,27 L0,0 
                         C0,0 0,0 0,0 Z" class="po-mind-topic-shape-fill" transform="matrix(1,0,0,1,0,0)" fill="none"></path><path d="M0,0 L70.2,0 C70.2,0 70.2,0 70.2,0 
                         L70.2,27 C70.2,27 70.2,27 70.2,27 
                         L0,27 C0,27 0,27 0,27 L0,0 
                         C0,0 0,0 0,0 Z" class="po-mind-topic-shape" transform="matrix(1,0,0,1,0,0)" fill="none" stroke-width="0" stroke="#746e6a"></path><g transform="matrix(1,0,0,1,10,5)"><g data-width="50.2" data-height="17" data-offsetx="0" transform="matrix(1,0,0,1,0,0)"><g><text text-anchor="start" align="top" anchor="start" font-size="12px" font-weight="" fill="rgb(96, 96, 96)" style="font-family: arial, 黑体;font-size: 12px;line-height: 140%;max-width: 900px;overflow-wrap: break-word;word-break: break-word;text-size-adjust: 100%;color: rgb(96, 96, 96);"><tspan x="0" y="11.159999999999997"><tspan dx="0">标签管理</tspan></tspan></text></g></g></g></g><g class="po-mind-topic" id="topic-589d0367-4339-4ff3-981f-3fd3a75cd751" transform="matrix(1,0,0,1,80.7,235.5)"><path d="M8,0 L124.30000000000001,0 C124.30000000000001,0 132.3,0 132.3,8 L132.3,21 C132.3,21 132.3,29 124.30000000000001,29
      L8,29 C8,29 0,29 0,21 L0,8 C0,8 0,0 8,0Z" class="po-mind-topic-shape-fill" transform="matrix(1,0,0,1,0.5,0.5)" fill="#ffffff"></path><path d="M8,0 L124.30000000000001,0 C124.30000000000001,0 132.3,0 132.3,8 L132.3,21 C132.3,21 132.3,29 124.30000000000001,29
      L8,29 C8,29 0,29 0,21 L0,8 C0,8 0,0 8,0Z" class="po-mind-topic-shape" transform="matrix(1,0,0,1,0.5,0.5)" fill="none" stroke-width="1" stroke="#d1cecd"></path><g transform="matrix(1,0,0,1,10.5,5.5)"><g data-width="112.3" data-height="19" data-offsetx="0" transform="matrix(1,0,0,1,0,0)"><g><text text-anchor="start" align="top" anchor="start" font-size="13px" font-weight="" fill="rgb(89, 89, 89)" style="font-family: arial, 黑体;font-size: 13px;line-height: 140%;max-width: 897px;overflow-wrap: break-word;word-break: break-word;text-size-adjust: 100%;color: rgb(89, 89, 89);"><tspan x="0" y="13"><tspan dx="0">.gitignore 规则详解</tspan></tspan></text></g></g></g></g><g class="po-mind-topic" id="topic-b706fbd2-4285-4a4f-ab28-26f447882baf" transform="matrix(1,0,0,1,238,218.5)"><path d="M0,0 L70.2,0 C70.2,0 70.2,0 70.2,0 
                         L70.2,27 C70.2,27 70.2,27 70.2,27 
                         L0,27 C0,27 0,27 0,27 L0,0 
                         C0,0 0,0 0,0 Z" class="po-mind-topic-shape-fill" transform="matrix(1,0,0,1,0,0)" fill="none"></path><path d="M0,0 L70.2,0 C70.2,0 70.2,0 70.2,0 
                         L70.2,27 C70.2,27 70.2,27 70.2,27 
                         L0,27 C0,27 0,27 0,27 L0,0 
                         C0,0 0,0 0,0 Z" class="po-mind-topic-shape" transform="matrix(1,0,0,1,0,0)" fill="none" stroke-width="0" stroke="#746e6a"></path><g transform="matrix(1,0,0,1,10,5)"><g data-width="50.2" data-height="17" data-offsetx="0" transform="matrix(1,0,0,1,0,0)"><g><text text-anchor="start" align="top" anchor="start" font-size="12px" font-weight="" fill="rgb(96, 96, 96)" style="font-family: arial, 黑体;font-size: 12px;line-height: 140%;max-width: 900px;overflow-wrap: break-word;word-break: break-word;text-size-adjust: 100%;color: rgb(96, 96, 96);"><tspan x="0" y="11.159999999999997"><tspan dx="0">语法规则</tspan></tspan></text></g></g></g></g><g class="po-mind-topic" id="topic-94c473ed-711d-4da1-9c52-d47c91c1dbc6" transform="matrix(1,0,0,1,238,255.5)"><path d="M0,0 L70.2,0 C70.2,0 70.2,0 70.2,0 
                         L70.2,27 C70.2,27 70.2,27 70.2,27 
                         L0,27 C0,27 0,27 0,27 L0,0 
                         C0,0 0,0 0,0 Z" class="po-mind-topic-shape-fill" transform="matrix(1,0,0,1,0,0)" fill="none"></path><path d="M0,0 L70.2,0 C70.2,0 70.2,0 70.2,0 
                         L70.2,27 C70.2,27 70.2,27 70.2,27 
                         L0,27 C0,27 0,27 0,27 L0,0 
                         C0,0 0,0 0,0 Z" class="po-mind-topic-shape" transform="matrix(1,0,0,1,0,0)" fill="none" stroke-width="0" stroke="#746e6a"></path><g transform="matrix(1,0,0,1,10,5)"><g data-width="50.2" data-height="17" data-offsetx="0" transform="matrix(1,0,0,1,0,0)"><g><text text-anchor="start" align="top" anchor="start" font-size="12px" font-weight="" fill="rgb(96, 96, 96)" style="font-family: arial, 黑体;font-size: 12px;line-height: 140%;max-width: 900px;overflow-wrap: break-word;word-break: break-word;text-size-adjust: 100%;color: rgb(96, 96, 96);"><tspan x="0" y="11.159999999999997"><tspan dx="0">实用技巧</tspan></tspan></text></g></g></g></g><g class="po-mind-topic" id="topic-aca18934-1548-4623-a898-151d10dc91e1" transform="matrix(1,0,0,1,80.7,338)"><path d="M8,0 L66.3,0 C66.3,0 74.3,0 74.3,8 L74.3,21 C74.3,21 74.3,29 66.3,29
      L8,29 C8,29 0,29 0,21 L0,8 C0,8 0,0 8,0Z" class="po-mind-topic-shape-fill" transform="matrix(1,0,0,1,0.5,0.5)" fill="#ffffff"></path><path d="M8,0 L66.3,0 C66.3,0 74.3,0 74.3,8 L74.3,21 C74.3,21 74.3,29 66.3,29
      L8,29 C8,29 0,29 0,21 L0,8 C0,8 0,0 8,0Z" class="po-mind-topic-shape" transform="matrix(1,0,0,1,0.5,0.5)" fill="none" stroke-width="1" stroke="#d1cecd"></path><g transform="matrix(1,0,0,1,10.5,5.5)"><g data-width="54.3" data-height="19" data-offsetx="0" transform="matrix(1,0,0,1,0,0)"><g><text text-anchor="start" align="top" anchor="start" font-size="13px" font-weight="" fill="rgb(89, 89, 89)" style="font-family: arial, 黑体;font-size: 13px;line-height: 140%;max-width: 897px;overflow-wrap: break-word;word-break: break-word;text-size-adjust: 100%;color: rgb(89, 89, 89);"><tspan x="0" y="13"><tspan dx="0">回退提交</tspan></tspan></text></g></g></g></g><g class="po-mind-topic" id="topic-617d89ff-6e90-4fff-9837-a2939eaffb73" transform="matrix(1,0,0,1,180,302.5)"><path d="M0,0 L53.2,0 C53.2,0 53.2,0 53.2,0 
                         L53.2,27 C53.2,27 53.2,27 53.2,27 
                         L0,27 C0,27 0,27 0,27 L0,0 
                         C0,0 0,0 0,0 Z" class="po-mind-topic-shape-fill" transform="matrix(1,0,0,1,0,0)" fill="none"></path><path d="M0,0 L53.2,0 C53.2,0 53.2,0 53.2,0 
                         L53.2,27 C53.2,27 53.2,27 53.2,27 
                         L0,27 C0,27 0,27 0,27 L0,0 
                         C0,0 0,0 0,0 Z" class="po-mind-topic-shape" transform="matrix(1,0,0,1,0,0)" fill="none" stroke-width="0" stroke="#746e6a"></path><g transform="matrix(1,0,0,1,10,5)"><g data-width="33.2" data-height="17" data-offsetx="0" transform="matrix(1,0,0,1,0,0)"><g><text text-anchor="start" align="top" anchor="start" font-size="12px" font-weight="" fill="rgb(96, 96, 96)" style="font-family: arial, 黑体;font-size: 12px;line-height: 140%;max-width: 900px;overflow-wrap: break-word;word-break: break-word;text-size-adjust: 100%;color: rgb(96, 96, 96);"><tspan x="0" y="11.159999999999997"><tspan dx="0">revert</tspan></tspan></text></g></g></g></g><g class="po-mind-topic" id="topic-5b41fa46-f8d2-419a-840a-f403e74f0c90" transform="matrix(1,0,0,1,180,339.5)"><path d="M0,0 L49.2,0 C49.2,0 49.2,0 49.2,0 
                         L49.2,27 C49.2,27 49.2,27 49.2,27 
                         L0,27 C0,27 0,27 0,27 L0,0 
                         C0,0 0,0 0,0 Z" class="po-mind-topic-shape-fill" transform="matrix(1,0,0,1,0,0)" fill="none"></path><path d="M0,0 L49.2,0 C49.2,0 49.2,0 49.2,0 
                         L49.2,27 C49.2,27 49.2,27 49.2,27 
                         L0,27 C0,27 0,27 0,27 L0,0 
                         C0,0 0,0 0,0 Z" class="po-mind-topic-shape" transform="matrix(1,0,0,1,0,0)" fill="none" stroke-width="0" stroke="#746e6a"></path><g transform="matrix(1,0,0,1,10,5)"><g data-width="29.2" data-height="17" data-offsetx="0" transform="matrix(1,0,0,1,0,0)"><g><text text-anchor="start" align="top" anchor="start" font-size="12px" font-weight="" fill="rgb(96, 96, 96)" style="font-family: arial, 黑体;font-size: 12px;line-height: 140%;max-width: 900px;overflow-wrap: break-word;word-break: break-word;text-size-adjust: 100%;color: rgb(96, 96, 96);"><tspan x="0" y="11.159999999999997"><tspan dx="0">reset</tspan></tspan></text></g></g></g></g><g class="po-mind-topic" id="topic-1dbab2a5-cd1d-468c-8bd1-a572ebcaea86" transform="matrix(1,0,0,1,180,376.5)"><path d="M0,0 L52.2,0 C52.2,0 52.2,0 52.2,0 
                         L52.2,27 C52.2,27 52.2,27 52.2,27 
                         L0,27 C0,27 0,27 0,27 L0,0 
                         C0,0 0,0 0,0 Z" class="po-mind-topic-shape-fill" transform="matrix(1,0,0,1,0,0)" fill="none"></path><path d="M0,0 L52.2,0 C52.2,0 52.2,0 52.2,0 
                         L52.2,27 C52.2,27 52.2,27 52.2,27 
                         L0,27 C0,27 0,27 0,27 L0,0 
                         C0,0 0,0 0,0 Z" class="po-mind-topic-shape" transform="matrix(1,0,0,1,0,0)" fill="none" stroke-width="0" stroke="#746e6a"></path><g transform="matrix(1,0,0,1,10,5)"><g data-width="32.2" data-height="17" data-offsetx="0" transform="matrix(1,0,0,1,0,0)"><g><text text-anchor="start" align="top" anchor="start" font-size="12px" font-weight="" fill="rgb(96, 96, 96)" style="font-family: arial, 黑体;font-size: 12px;line-height: 140%;max-width: 900px;overflow-wrap: break-word;word-break: break-word;text-size-adjust: 100%;color: rgb(96, 96, 96);"><tspan x="0" y="11.159999999999997"><tspan dx="0">reflog</tspan></tspan></text></g></g></g></g><g class="po-mind-topic" id="topic-aea74989-9215-41b0-8e40-dc8bed29544e" transform="matrix(1,0,0,1,80.7,440.5)"><path d="M8,0 L54.3,0 C54.3,0 62.3,0 62.3,8 L62.3,21 C62.3,21 62.3,29 54.3,29
      L8,29 C8,29 0,29 0,21 L0,8 C0,8 0,0 8,0Z" class="po-mind-topic-shape-fill" transform="matrix(1,0,0,1,0.5,0.5)" fill="#ffffff"></path><path d="M8,0 L54.3,0 C54.3,0 62.3,0 62.3,8 L62.3,21 C62.3,21 62.3,29 54.3,29
      L8,29 C8,29 0,29 0,21 L0,8 C0,8 0,0 8,0Z" class="po-mind-topic-shape" transform="matrix(1,0,0,1,0.5,0.5)" fill="none" stroke-width="1" stroke="#d1cecd"></path><g transform="matrix(1,0,0,1,10.5,5.5)"><g data-width="42.3" data-height="19" data-offsetx="0" transform="matrix(1,0,0,1,0,0)"><g><text text-anchor="start" align="top" anchor="start" font-size="13px" font-weight="" fill="rgb(89, 89, 89)" style="font-family: arial, 黑体;font-size: 13px;line-height: 140%;max-width: 897px;overflow-wrap: break-word;word-break: break-word;text-size-adjust: 100%;color: rgb(89, 89, 89);"><tspan x="0" y="13"><tspan dx="0">rebase</tspan></tspan></text></g></g></g></g><g class="po-mind-topic" id="topic-e5f3fb77-9f2e-48df-ab2b-32bc67de3114" transform="matrix(1,0,0,1,168,423.5)"><path d="M0,0 L46.2,0 C46.2,0 46.2,0 46.2,0 
                         L46.2,27 C46.2,27 46.2,27 46.2,27 
                         L0,27 C0,27 0,27 0,27 L0,0 
                         C0,0 0,0 0,0 Z" class="po-mind-topic-shape-fill" transform="matrix(1,0,0,1,0,0)" fill="none"></path><path d="M0,0 L46.2,0 C46.2,0 46.2,0 46.2,0 
                         L46.2,27 C46.2,27 46.2,27 46.2,27 
                         L0,27 C0,27 0,27 0,27 L0,0 
                         C0,0 0,0 0,0 Z" class="po-mind-topic-shape" transform="matrix(1,0,0,1,0,0)" fill="none" stroke-width="0" stroke="#746e6a"></path><g transform="matrix(1,0,0,1,10,5)"><g data-width="26.2" data-height="17" data-offsetx="0" transform="matrix(1,0,0,1,0,0)"><g><text text-anchor="start" align="top" anchor="start" font-size="12px" font-weight="" fill="rgb(96, 96, 96)" style="font-family: arial, 黑体;font-size: 12px;line-height: 140%;max-width: 900px;overflow-wrap: break-word;word-break: break-word;text-size-adjust: 100%;color: rgb(96, 96, 96);"><tspan x="0" y="11.159999999999997"><tspan dx="0">介绍</tspan></tspan></text></g></g></g></g><g class="po-mind-topic" id="topic-441936bc-ae8f-4e2f-9129-46f7f0db7d1b" transform="matrix(1,0,0,1,168,460.5)"><path d="M0,0 L46.2,0 C46.2,0 46.2,0 46.2,0 
                         L46.2,27 C46.2,27 46.2,27 46.2,27 
                         L0,27 C0,27 0,27 0,27 L0,0 
                         C0,0 0,0 0,0 Z" class="po-mind-topic-shape-fill" transform="matrix(1,0,0,1,0,0)" fill="none"></path><path d="M0,0 L46.2,0 C46.2,0 46.2,0 46.2,0 
                         L46.2,27 C46.2,27 46.2,27 46.2,27 
                         L0,27 C0,27 0,27 0,27 L0,0 
                         C0,0 0,0 0,0 Z" class="po-mind-topic-shape" transform="matrix(1,0,0,1,0,0)" fill="none" stroke-width="0" stroke="#746e6a"></path><g transform="matrix(1,0,0,1,10,5)"><g data-width="26.2" data-height="17" data-offsetx="0" transform="matrix(1,0,0,1,0,0)"><g><text text-anchor="start" align="top" anchor="start" font-size="12px" font-weight="" fill="rgb(96, 96, 96)" style="font-family: arial, 黑体;font-size: 12px;line-height: 140%;max-width: 900px;overflow-wrap: break-word;word-break: break-word;text-size-adjust: 100%;color: rgb(96, 96, 96);"><tspan x="0" y="11.159999999999997"><tspan dx="0">示例</tspan></tspan></text></g></g></g></g></g><g class="po-mind-associative-line-label-container"></g></g><style>
    .connection-svg{
        outline: none;
        box-shadow: none;
        -webkit-tap-highlight-color: transparent;
    }
    .connection-line {
        cursor: pointer;
    }

    .connection-line-bg {
        cursor: pointer;
    }

    .node-add-btn {
        cursor: pointer;
    }

    .po-richtext-node-wrap ol,
    .area_box ol,
    .po-measureCustomNode ol {
        padding-left: 20px;
        margin: 0;
    }
    .po-richtext-node-wrap ol li,
    .area_box ol li,
    .po-measureCustomNode ol li {
        list-style: decimal;
    }
    .po-richtext-node-wrap ul,
    .area_box ul,
    .po-measureCustomNode ul {
        padding-left: calc(15px + 0.5em);
        list-style: none;
        margin: 0;
    }
    .po-richtext-node-wrap ul li,
    .area_box ul li,
    .po-measureCustomNode ul li {
        list-style: disc;
    }
    .po-richtext-node-wrap p,
    .po-richtext-node-wrap h1,
    .po-richtext-node-wrap h2,
    .po-richtext-node-wrap h3,
    .po-richtext-node-wrap h4,
    .po-richtext-node-wrap h5,
    .po-richtext-node-wrap h6,
    .area_box p,
    .area_box h1,
    .area_box h2,
    .area_box h3,
    .area_box h4,
    .area_box h5,
    .area_box h6,
    .po-measureCustomNode p,
    .po-measureCustomNode h1,
    .po-measureCustomNode h2,
    .po-measureCustomNode h3,
    .po-measureCustomNode h4,
    .po-measureCustomNode h5,
    .po-measureCustomNode h6 {
        margin: 0;
    }
    .po-safari-fixed {
        position: fixed;
    }
</style></svg>