<svg xmlns="http://www.w3.org/2000/svg" version="1.1" xmlns:xlink="http://www.w3.org/1999/xlink" width="445.10003662109375" height="832.5" style="outline: none; background: rgb(250, 250, 250); top: 0px; left: 0px; display: block; z-index: -1; font-size: 12px;" id="mind-svg-con"><defs></defs><g id="svgbackgroundid"><defs></defs><rect width="445.10003662109375" height="832.5" fill="#fafafa"></rect></g><g class="po-mind-container" transform="matrix(1,0,0,1,48.70000076293945,438.875)"><g class="po-mind-line-container"><g from="root" to="1a5c1f45-b2cc-4b81-b61a-8ae0f0a36e10"><path d="M20.7 0L44.7 0L44.7 -346.125C44.7 -346.125 44.7 -354.125 52.7 -354.125L80.7 -354.125" stroke-linecap="butt" stroke-width="1" stroke="#746ea6" fill="none"></path></g><g from="root" to="55099011-967e-4d16-91ae-234c47aa2240"><path d="M20.7 0L44.7 0L44.7 -104.875C44.7 -104.875 44.7 -112.875 52.7 -112.875L80.7 -112.875" stroke-linecap="butt" stroke-width="1" stroke="#746ea6" fill="none"></path></g><g from="root" to="4fe8a338-d706-4806-941a-36377560bb3e"><path d="M20.7 0L44.7 0L44.7 55.625C44.7 55.625 44.7 63.625 52.7 63.625L80.7 63.625" stroke-linecap="butt" stroke-width="1" stroke="#746ea6" fill="none"></path></g><g from="root" to="fc5939ee-991c-49f1-b88d-37013a4afcd9"><path d="M20.7 0L44.7 0L44.7 158.125C44.7 158.125 44.7 166.125 52.7 166.125L80.7 166.125" stroke-linecap="butt" stroke-width="1" stroke="#746ea6" fill="none"></path></g><g from="root" to="874af751-4ba1-4001-ae27-f5288ebad227"><path d="M20.7 0L44.7 0L44.7 260.625C44.7 260.625 44.7 268.625 52.7 268.625L80.7 268.625" stroke-linecap="butt" stroke-width="1" stroke="#746ea6" fill="none"></path></g><g from="root" to="faf7f0f9-13f4-486e-8a40-cd0f44af59d1"><path d="M20.7 0L44.7 0L44.7 346.125C44.7 346.125 44.7 354.125 52.7 354.125L80.7 354.125" stroke-linecap="butt" stroke-width="1" stroke="#746ea6" fill="none"></path></g><g from="1a5c1f45-b2cc-4b81-b61a-8ae0f0a36e10" to="6971acaf-6f21-4909-b63a-4299dd278743"><path d="M156 -354.125L168 -354.125L168 -313.875C168 -313.875 168 -307.875 174 -307.875L180 -307.875" stroke-linecap="butt" stroke-width="1" stroke="#746e6a" fill="none"></path></g><g from="6971acaf-6f21-4909-b63a-4299dd278743" to="4ed7c177-9a9d-47f1-8f3a-ca171d1a0e5c"><path d="M253.2 -307.875L265.2 -307.875L265.2 -357.375C265.2 -357.375 265.2 -363.375 271.2 -363.375L277.2 -363.375" stroke-linecap="butt" stroke-width="1" stroke="#746e6a" fill="none"></path></g><g from="6971acaf-6f21-4909-b63a-4299dd278743" to="314b3ea4-6a98-4460-93c8-93149f1ef235"><path d="M253.2 -307.875L265.2 -307.875L265.2 -320.375C265.2 -320.375 265.2 -326.375 271.2 -326.375L277.2 -326.375" stroke-linecap="butt" stroke-width="1" stroke="#746e6a" fill="none"></path></g><g from="6971acaf-6f21-4909-b63a-4299dd278743" to="3f67e6ff-9ef0-40ab-b0c5-ebca5187473e"><path d="M253.2 -307.875L265.2 -307.875L265.2 -295.375C265.2 -295.375 265.2 -289.375 271.2 -289.375L277.2 -289.375" stroke-linecap="butt" stroke-width="1" stroke="#746e6a" fill="none"></path></g><g from="6971acaf-6f21-4909-b63a-4299dd278743" to="9b61564e-eced-4cb2-aafa-0a5664538fa8"><path d="M253.2 -307.875L265.2 -307.875L265.2 -258.375C265.2 -258.375 265.2 -252.375 271.2 -252.375L277.2 -252.375" stroke-linecap="butt" stroke-width="1" stroke="#746e6a" fill="none"></path></g><g from="55099011-967e-4d16-91ae-234c47aa2240" to="500ccc7c-02ab-409e-a903-fdac246361d4"><path d="M182 -112.875L194 -112.875L194 -199.375C194 -199.375 194 -205.375 200 -205.375L206 -205.375" stroke-linecap="butt" stroke-width="1" stroke="#746e6a" fill="none"></path></g><g from="55099011-967e-4d16-91ae-234c47aa2240" to="cf05d2a1-6fbc-4c32-a746-0ef54e6c098a"><path d="M182 -112.875L194 -112.875L194 -162.375C194 -162.375 194 -168.375 200 -168.375L206 -168.375" stroke-linecap="butt" stroke-width="1" stroke="#746e6a" fill="none"></path></g><g from="55099011-967e-4d16-91ae-234c47aa2240" to="d1103017-7ecd-4264-800f-68ba0859eb90"><path d="M182 -112.875L194 -112.875L194 -125.375C194 -125.375 194 -131.375 200 -131.375L206 -131.375" stroke-linecap="butt" stroke-width="1" stroke="#746e6a" fill="none"></path></g><g from="55099011-967e-4d16-91ae-234c47aa2240" to="32c69a9d-1bde-47bb-808c-558995317ccc"><path d="M182 -112.875L194 -112.875L194 -100.375C194 -100.375 194 -94.375 200 -94.375L206 -94.375" stroke-linecap="butt" stroke-width="1" stroke="#746e6a" fill="none"></path></g><g from="55099011-967e-4d16-91ae-234c47aa2240" to="2412578b-d9ac-46da-9902-12aaf17db23f"><path d="M182 -112.875L194 -112.875L194 -63.375C194 -63.375 194 -57.375 200 -57.375L206 -57.375" stroke-linecap="butt" stroke-width="1" stroke="#746e6a" fill="none"></path></g><g from="55099011-967e-4d16-91ae-234c47aa2240" to="657be11c-c4d6-4b34-b5e2-73ef01b560a7"><path d="M182 -112.875L194 -112.875L194 -26.375C194 -26.375 194 -20.375 200 -20.375L206 -20.375" stroke-linecap="butt" stroke-width="1" stroke="#746e6a" fill="none"></path></g><g from="4fe8a338-d706-4806-941a-36377560bb3e" to="de590428-2e01-4776-a729-7fae24fa9592"><path d="M195 63.625L207 63.625L207 32.625C207 32.625 207 26.625 213 26.625L219 26.625" stroke-linecap="butt" stroke-width="1" stroke="#746e6a" fill="none"></path></g><g from="4fe8a338-d706-4806-941a-36377560bb3e" to="dce136d6-fafd-4232-9064-aee073f9cbe6"><path d="M195 63.625L207 63.625L207 63.625C207 63.625 207 63.625 207 63.625L219 63.625" stroke-linecap="butt" stroke-width="1" stroke="#746e6a" fill="none"></path></g><g from="4fe8a338-d706-4806-941a-36377560bb3e" to="79356709-b881-44c9-a0b1-f7825a097a14"><path d="M195 63.625L207 63.625L207 94.625C207 94.625 207 100.625 213 100.625L219 100.625" stroke-linecap="butt" stroke-width="1" stroke="#746e6a" fill="none"></path></g><g from="fc5939ee-991c-49f1-b88d-37013a4afcd9" to="d0d563be-4fc5-47c0-aa2c-c7a0ef0b35e0"><path d="M156 166.125L168 166.125L168 153.625C168 153.625 168 147.625 174 147.625L180 147.625" stroke-linecap="butt" stroke-width="1" stroke="#746e6a" fill="none"></path></g><g from="fc5939ee-991c-49f1-b88d-37013a4afcd9" to="0de2be0e-d7b0-41fc-a377-1c3ee8e19fa1"><path d="M156 166.125L168 166.125L168 178.625C168 178.625 168 184.625 174 184.625L180 184.625" stroke-linecap="butt" stroke-width="1" stroke="#746e6a" fill="none"></path></g><g from="874af751-4ba1-4001-ae27-f5288ebad227" to="f0af6d06-7b8b-4902-82ee-b81ffe8f824a"><path d="M195 268.625L207 268.625L207 237.625C207 237.625 207 231.625 213 231.625L219 231.625" stroke-linecap="butt" stroke-width="1" stroke="#746e6a" fill="none"></path></g><g from="874af751-4ba1-4001-ae27-f5288ebad227" to="6a4dd8d2-22d9-4826-a19b-1d8236bffa49"><path d="M195 268.625L207 268.625L207 268.625C207 268.625 207 268.625 207 268.625L219 268.625" stroke-linecap="butt" stroke-width="1" stroke="#746e6a" fill="none"></path></g><g from="874af751-4ba1-4001-ae27-f5288ebad227" to="31d14505-4f48-4baa-9532-80bd8019f599"><path d="M195 268.625L207 268.625L207 299.625C207 299.625 207 305.625 213 305.625L219 305.625" stroke-linecap="butt" stroke-width="1" stroke="#746e6a" fill="none"></path></g><g from="1a5c1f45-b2cc-4b81-b61a-8ae0f0a36e10" to="14cc8757-bda8-489f-8d36-ce7f22dc9601"><path d="M156 -354.125L168 -354.125L168 -394.375C168 -394.375 168 -400.375 174 -400.375L180 -400.375" stroke-linecap="butt" stroke-width="1" stroke="#746e6a" fill="none"></path></g></g><g class="po-mind-generalize-container"></g><g class="po-mind-associative-line-container"></g><g class="po-mind-node-container"><g class="po-mind-topic" id="topic-root" transform="matrix(1,0,0,1,-20.7,-16.5)"><path d="M10,0 L30.4,0 C30.4,0 40.4,0 40.4,10 L40.4,22 C40.4,22 40.4,32 30.4,32
      L10,32 C10,32 0,32 0,22 L0,10 C0,10 0,0 10,0Z" class="po-mind-topic-shape-fill" transform="matrix(1,0,0,1,0.5,0.5)" fill="none"></path><path d="M10,0 L30.4,0 C30.4,0 40.4,0 40.4,10 L40.4,22 C40.4,22 40.4,32 30.4,32
      L10,32 C10,32 0,32 0,22 L0,10 C0,10 0,0 10,0Z" class="po-mind-topic-shape" transform="matrix(1,0,0,1,0.5,0.5)" fill="none" stroke-width="1" stroke="#b2afad"></path><g transform="matrix(1,0,0,1,10.5,6.5)"><g data-width="20.4" data-height="20" data-offsetx="0" transform="matrix(1,0,0,1,0,0)"><g><text text-anchor="start" align="top" anchor="start" font-size="14px" font-weight="" fill="rgb(78, 78, 78)" style="font-family: arial, 黑体;font-size: 14px;line-height: 140%;max-width: 896px;overflow-wrap: break-word;word-break: break-word;text-size-adjust: 100%;color: rgb(78, 78, 78);"><tspan x="0" y="13.999999999999996"><tspan dx="0">Git</tspan></tspan></text></g></g></g><g><rect width="4" height="33" x="-3" y="0" resize="1" fill="none" style="cursor: ew-resize;"></rect><rect width="4" height="33" x="42.4" y="0" resize="2" fill="none" style="cursor: ew-resize;"></rect></g></g><g class="po-mind-topic" id="topic-1a5c1f45-b2cc-4b81-b61a-8ae0f0a36e10" transform="matrix(1,0,0,1,80.7,-369.125)"><path d="M8,0 L66.3,0 C66.3,0 74.3,0 74.3,8 L74.3,21 C74.3,21 74.3,29 66.3,29
      L8,29 C8,29 0,29 0,21 L0,8 C0,8 0,0 8,0Z" class="po-mind-topic-shape-fill" transform="matrix(1,0,0,1,0.5,0.5)" fill="#ffffff"></path><path d="M8,0 L66.3,0 C66.3,0 74.3,0 74.3,8 L74.3,21 C74.3,21 74.3,29 66.3,29
      L8,29 C8,29 0,29 0,21 L0,8 C0,8 0,0 8,0Z" class="po-mind-topic-shape" transform="matrix(1,0,0,1,0.5,0.5)" fill="none" stroke-width="1" stroke="#d1cecd"></path><g transform="matrix(1,0,0,1,10.5,5.5)"><g data-width="54.3" data-height="19" data-offsetx="0" transform="matrix(1,0,0,1,0,0)"><g><text text-anchor="start" align="top" anchor="start" font-size="13px" font-weight="" fill="rgb(89, 89, 89)" style="font-family: arial, 黑体;font-size: 13px;line-height: 140%;max-width: 897px;overflow-wrap: break-word;word-break: break-word;text-size-adjust: 100%;color: rgb(89, 89, 89);"><tspan x="0" y="13"><tspan dx="0">源的管理</tspan></tspan></text></g></g></g></g><g class="po-mind-topic" id="topic-14cc8757-bda8-489f-8d36-ce7f22dc9601" transform="matrix(1,0,0,1,180,-413.875)"><path d="M0,0 L74.2,0 C74.2,0 74.2,0 74.2,0 
                         L74.2,27 C74.2,27 74.2,27 74.2,27 
                         L0,27 C0,27 0,27 0,27 L0,0 
                         C0,0 0,0 0,0 Z" class="po-mind-topic-shape-fill" transform="matrix(1,0,0,1,0,0)" fill="none"></path><path d="M0,0 L74.2,0 C74.2,0 74.2,0 74.2,0 
                         L74.2,27 C74.2,27 74.2,27 74.2,27 
                         L0,27 C0,27 0,27 0,27 L0,0 
                         C0,0 0,0 0,0 Z" class="po-mind-topic-shape" transform="matrix(1,0,0,1,0,0)" fill="none" stroke-width="0" stroke="#746e6a"></path><g transform="matrix(1,0,0,1,10,5)"><g data-width="54.2" data-height="17" data-offsetx="0" transform="matrix(1,0,0,1,0,0)"><g><text text-anchor="start" align="top" anchor="start" font-size="12px" font-weight="" fill="rgb(96, 96, 96)" style="font-family: arial, 黑体;font-size: 12px;line-height: 140%;max-width: 900px;overflow-wrap: break-word;word-break: break-word;text-size-adjust: 100%;color: rgb(96, 96, 96);"><tspan x="0" y="11.159999999999997"><tspan dx="0">.git文件夹</tspan></tspan></text></g></g></g></g><g class="po-mind-topic" id="topic-6971acaf-6f21-4909-b63a-4299dd278743" transform="matrix(1,0,0,1,180,-321.375)"><path d="M0,0 L73.2,0 C73.2,0 73.2,0 73.2,0 
                         L73.2,27 C73.2,27 73.2,27 73.2,27 
                         L0,27 C0,27 0,27 0,27 L0,0 
                         C0,0 0,0 0,0 Z" class="po-mind-topic-shape-fill" transform="matrix(1,0,0,1,0,0)" fill="none"></path><path d="M0,0 L73.2,0 C73.2,0 73.2,0 73.2,0 
                         L73.2,27 C73.2,27 73.2,27 73.2,27 
                         L0,27 C0,27 0,27 0,27 L0,0 
                         C0,0 0,0 0,0 Z" class="po-mind-topic-shape" transform="matrix(1,0,0,1,0,0)" fill="none" stroke-width="0" stroke="#746e6a"></path><g transform="matrix(1,0,0,1,10,5)"><g data-width="53.2" data-height="17" data-offsetx="0" transform="matrix(1,0,0,1,0,0)"><g><text text-anchor="start" align="top" anchor="start" font-size="12px" font-weight="" fill="rgb(96, 96, 96)" style="font-family: arial, 黑体;font-size: 12px;line-height: 140%;max-width: 900px;overflow-wrap: break-word;word-break: break-word;text-size-adjust: 100%;color: rgb(96, 96, 96);"><tspan x="0" y="11.159999999999997"><tspan dx="0">Git hooks</tspan></tspan></text></g></g></g></g><g class="po-mind-topic" id="topic-4ed7c177-9a9d-47f1-8f3a-ca171d1a0e5c" transform="matrix(1,0,0,1,277.2,-376.875)"><path d="M0,0 L82.2,0 C82.2,0 82.2,0 82.2,0 
                         L82.2,27 C82.2,27 82.2,27 82.2,27 
                         L0,27 C0,27 0,27 0,27 L0,0 
                         C0,0 0,0 0,0 Z" class="po-mind-topic-shape-fill" transform="matrix(1,0,0,1,0,0)" fill="none"></path><path d="M0,0 L82.2,0 C82.2,0 82.2,0 82.2,0 
                         L82.2,27 C82.2,27 82.2,27 82.2,27 
                         L0,27 C0,27 0,27 0,27 L0,0 
                         C0,0 0,0 0,0 Z" class="po-mind-topic-shape" transform="matrix(1,0,0,1,0,0)" fill="none" stroke-width="0" stroke="#746e6a"></path><g transform="matrix(1,0,0,1,10,5)"><g data-width="62.2" data-height="17" data-offsetx="0" transform="matrix(1,0,0,1,0,0)"><g><text text-anchor="start" align="top" anchor="start" font-size="12px" font-weight="" fill="rgb(96, 96, 96)" style="font-family: arial, 黑体;font-size: 12px;line-height: 140%;max-width: 900px;overflow-wrap: break-word;word-break: break-word;text-size-adjust: 100%;color: rgb(96, 96, 96);"><tspan x="0" y="11.159999999999997"><tspan dx="0">让钩子生效</tspan></tspan></text></g></g></g></g><g class="po-mind-topic" id="topic-314b3ea4-6a98-4460-93c8-93149f1ef235" transform="matrix(1,0,0,1,277.2,-339.875)"><path d="M0,0 L94.2,0 C94.2,0 94.2,0 94.2,0 
                         L94.2,27 C94.2,27 94.2,27 94.2,27 
                         L0,27 C0,27 0,27 0,27 L0,0 
                         C0,0 0,0 0,0 Z" class="po-mind-topic-shape-fill" transform="matrix(1,0,0,1,0,0)" fill="none"></path><path d="M0,0 L94.2,0 C94.2,0 94.2,0 94.2,0 
                         L94.2,27 C94.2,27 94.2,27 94.2,27 
                         L0,27 C0,27 0,27 0,27 L0,0 
                         C0,0 0,0 0,0 Z" class="po-mind-topic-shape" transform="matrix(1,0,0,1,0,0)" fill="none" stroke-width="0" stroke="#746e6a"></path><g transform="matrix(1,0,0,1,10,5)"><g data-width="74.2" data-height="17" data-offsetx="0" transform="matrix(1,0,0,1,0,0)"><g><text text-anchor="start" align="top" anchor="start" font-size="12px" font-weight="" fill="rgb(96, 96, 96)" style="font-family: arial, 黑体;font-size: 12px;line-height: 140%;max-width: 900px;overflow-wrap: break-word;word-break: break-word;text-size-adjust: 100%;color: rgb(96, 96, 96);"><tspan x="0" y="11.159999999999997"><tspan dx="0">更优雅的方式</tspan></tspan></text></g></g></g></g><g class="po-mind-topic" id="topic-3f67e6ff-9ef0-40ab-b0c5-ebca5187473e" transform="matrix(1,0,0,1,277.2,-302.875)"><path d="M0,0 L88.2,0 C88.2,0 88.2,0 88.2,0 
                         L88.2,27 C88.2,27 88.2,27 88.2,27 
                         L0,27 C0,27 0,27 0,27 L0,0 
                         C0,0 0,0 0,0 Z" class="po-mind-topic-shape-fill" transform="matrix(1,0,0,1,0,0)" fill="none"></path><path d="M0,0 L88.2,0 C88.2,0 88.2,0 88.2,0 
                         L88.2,27 C88.2,27 88.2,27 88.2,27 
                         L0,27 C0,27 0,27 0,27 L0,0 
                         C0,0 0,0 0,0 Z" class="po-mind-topic-shape" transform="matrix(1,0,0,1,0,0)" fill="none" stroke-width="0" stroke="#746e6a"></path><g transform="matrix(1,0,0,1,10,5)"><g data-width="68.2" data-height="17" data-offsetx="0" transform="matrix(1,0,0,1,0,0)"><g><text text-anchor="start" align="top" anchor="start" font-size="12px" font-weight="" fill="rgb(96, 96, 96)" style="font-family: arial, 黑体;font-size: 12px;line-height: 140%;max-width: 900px;overflow-wrap: break-word;word-break: break-word;text-size-adjust: 100%;color: rgb(96, 96, 96);"><tspan x="0" y="11.159999999999997"><tspan dx="0">commit-msg</tspan></tspan></text></g></g></g></g><g class="po-mind-topic" id="topic-9b61564e-eced-4cb2-aafa-0a5664538fa8" transform="matrix(1,0,0,1,277.2,-265.875)"><path d="M0,0 L54.2,0 C54.2,0 54.2,0 54.2,0 
                         L54.2,27 C54.2,27 54.2,27 54.2,27 
                         L0,27 C0,27 0,27 0,27 L0,0 
                         C0,0 0,0 0,0 Z" class="po-mind-topic-shape-fill" transform="matrix(1,0,0,1,0,0)" fill="none"></path><path d="M0,0 L54.2,0 C54.2,0 54.2,0 54.2,0 
                         L54.2,27 C54.2,27 54.2,27 54.2,27 
                         L0,27 C0,27 0,27 0,27 L0,0 
                         C0,0 0,0 0,0 Z" class="po-mind-topic-shape" transform="matrix(1,0,0,1,0,0)" fill="none" stroke-width="0" stroke="#746e6a"></path><g transform="matrix(1,0,0,1,10,5)"><g data-width="34.2" data-height="17" data-offsetx="0" transform="matrix(1,0,0,1,0,0)"><g><text text-anchor="start" align="top" anchor="start" font-size="12px" font-weight="" fill="rgb(96, 96, 96)" style="font-family: arial, 黑体;font-size: 12px;line-height: 140%;max-width: 900px;overflow-wrap: break-word;word-break: break-word;text-size-adjust: 100%;color: rgb(96, 96, 96);"><tspan x="0" y="11.159999999999997"><tspan dx="0">husky</tspan></tspan></text></g></g></g></g><g class="po-mind-topic" id="topic-55099011-967e-4d16-91ae-234c47aa2240" transform="matrix(1,0,0,1,80.7,-127.875)"><path d="M8,0 L92.3,0 C92.3,0 100.3,0 100.3,8 L100.3,21 C100.3,21 100.3,29 92.3,29
      L8,29 C8,29 0,29 0,21 L0,8 C0,8 0,0 8,0Z" class="po-mind-topic-shape-fill" transform="matrix(1,0,0,1,0.5,0.5)" fill="#ffffff"></path><path d="M8,0 L92.3,0 C92.3,0 100.3,0 100.3,8 L100.3,21 C100.3,21 100.3,29 92.3,29
      L8,29 C8,29 0,29 0,21 L0,8 C0,8 0,0 8,0Z" class="po-mind-topic-shape" transform="matrix(1,0,0,1,0.5,0.5)" fill="none" stroke-width="1" stroke="#d1cecd"></path><g transform="matrix(1,0,0,1,10.5,5.5)"><g data-width="80.3" data-height="19" data-offsetx="0" transform="matrix(1,0,0,1,0,0)"><g><text text-anchor="start" align="top" anchor="start" font-size="13px" font-weight="" fill="rgb(89, 89, 89)" style="font-family: arial, 黑体;font-size: 13px;line-height: 140%;max-width: 897px;overflow-wrap: break-word;word-break: break-word;text-size-adjust: 100%;color: rgb(89, 89, 89);"><tspan x="0" y="13"><tspan dx="0">协作最佳实践</tspan></tspan></text></g></g></g></g><g class="po-mind-topic" id="topic-500ccc7c-02ab-409e-a903-fdac246361d4" transform="matrix(1,0,0,1,206,-218.875)"><path d="M0,0 L70.2,0 C70.2,0 70.2,0 70.2,0 
                         L70.2,27 C70.2,27 70.2,27 70.2,27 
                         L0,27 C0,27 0,27 0,27 L0,0 
                         C0,0 0,0 0,0 Z" class="po-mind-topic-shape-fill" transform="matrix(1,0,0,1,0,0)" fill="none"></path><path d="M0,0 L70.2,0 C70.2,0 70.2,0 70.2,0 
                         L70.2,27 C70.2,27 70.2,27 70.2,27 
                         L0,27 C0,27 0,27 0,27 L0,0 
                         C0,0 0,0 0,0 Z" class="po-mind-topic-shape" transform="matrix(1,0,0,1,0,0)" fill="none" stroke-width="0" stroke="#746e6a"></path><g transform="matrix(1,0,0,1,10,5)"><g data-width="50.2" data-height="17" data-offsetx="0" transform="matrix(1,0,0,1,0,0)"><g><text text-anchor="start" align="top" anchor="start" font-size="12px" font-weight="" fill="rgb(96, 96, 96)" style="font-family: arial, 黑体;font-size: 12px;line-height: 140%;max-width: 900px;overflow-wrap: break-word;word-break: break-word;text-size-adjust: 100%;color: rgb(96, 96, 96);"><tspan x="0" y="11.159999999999997"><tspan dx="0"> Git Flow</tspan></tspan></text></g></g></g></g><g class="po-mind-topic" id="topic-cf05d2a1-6fbc-4c32-a746-0ef54e6c098a" transform="matrix(1,0,0,1,206,-181.875)"><path d="M0,0 L70.2,0 C70.2,0 70.2,0 70.2,0 
                         L70.2,27 C70.2,27 70.2,27 70.2,27 
                         L0,27 C0,27 0,27 0,27 L0,0 
                         C0,0 0,0 0,0 Z" class="po-mind-topic-shape-fill" transform="matrix(1,0,0,1,0,0)" fill="none"></path><path d="M0,0 L70.2,0 C70.2,0 70.2,0 70.2,0 
                         L70.2,27 C70.2,27 70.2,27 70.2,27 
                         L0,27 C0,27 0,27 0,27 L0,0 
                         C0,0 0,0 0,0 Z" class="po-mind-topic-shape" transform="matrix(1,0,0,1,0,0)" fill="none" stroke-width="0" stroke="#746e6a"></path><g transform="matrix(1,0,0,1,10,5)"><g data-width="50.2" data-height="17" data-offsetx="0" transform="matrix(1,0,0,1,0,0)"><g><text text-anchor="start" align="top" anchor="start" font-size="12px" font-weight="" fill="rgb(96, 96, 96)" style="font-family: arial, 黑体;font-size: 12px;line-height: 140%;max-width: 900px;overflow-wrap: break-word;word-break: break-word;text-size-adjust: 100%;color: rgb(96, 96, 96);"><tspan x="0" y="11.159999999999997"><tspan dx="0">其他策略</tspan></tspan></text></g></g></g></g><g class="po-mind-topic" id="topic-d1103017-7ecd-4264-800f-68ba0859eb90" transform="matrix(1,0,0,1,206,-144.875)"><path d="M0,0 L94.2,0 C94.2,0 94.2,0 94.2,0 
                         L94.2,27 C94.2,27 94.2,27 94.2,27 
                         L0,27 C0,27 0,27 0,27 L0,0 
                         C0,0 0,0 0,0 Z" class="po-mind-topic-shape-fill" transform="matrix(1,0,0,1,0,0)" fill="none"></path><path d="M0,0 L94.2,0 C94.2,0 94.2,0 94.2,0 
                         L94.2,27 C94.2,27 94.2,27 94.2,27 
                         L0,27 C0,27 0,27 0,27 L0,0 
                         C0,0 0,0 0,0 Z" class="po-mind-topic-shape" transform="matrix(1,0,0,1,0,0)" fill="none" stroke-width="0" stroke="#746e6a"></path><g transform="matrix(1,0,0,1,10,5)"><g data-width="74.2" data-height="17" data-offsetx="0" transform="matrix(1,0,0,1,0,0)"><g><text text-anchor="start" align="top" anchor="start" font-size="12px" font-weight="" fill="rgb(96, 96, 96)" style="font-family: arial, 黑体;font-size: 12px;line-height: 140%;max-width: 900px;overflow-wrap: break-word;word-break: break-word;text-size-adjust: 100%;color: rgb(96, 96, 96);"><tspan x="0" y="11.159999999999997"><tspan dx="0">分支命名规范</tspan></tspan></text></g></g></g></g><g class="po-mind-topic" id="topic-32c69a9d-1bde-47bb-808c-558995317ccc" transform="matrix(1,0,0,1,206,-107.875)"><path d="M0,0 L94.2,0 C94.2,0 94.2,0 94.2,0 
                         L94.2,27 C94.2,27 94.2,27 94.2,27 
                         L0,27 C0,27 0,27 0,27 L0,0 
                         C0,0 0,0 0,0 Z" class="po-mind-topic-shape-fill" transform="matrix(1,0,0,1,0,0)" fill="none"></path><path d="M0,0 L94.2,0 C94.2,0 94.2,0 94.2,0 
                         L94.2,27 C94.2,27 94.2,27 94.2,27 
                         L0,27 C0,27 0,27 0,27 L0,0 
                         C0,0 0,0 0,0 Z" class="po-mind-topic-shape" transform="matrix(1,0,0,1,0,0)" fill="none" stroke-width="0" stroke="#746e6a"></path><g transform="matrix(1,0,0,1,10,5)"><g data-width="74.2" data-height="17" data-offsetx="0" transform="matrix(1,0,0,1,0,0)"><g><text text-anchor="start" align="top" anchor="start" font-size="12px" font-weight="" fill="rgb(96, 96, 96)" style="font-family: arial, 黑体;font-size: 12px;line-height: 140%;max-width: 900px;overflow-wrap: break-word;word-break: break-word;text-size-adjust: 100%;color: rgb(96, 96, 96);"><tspan x="0" y="11.159999999999997"><tspan dx="0">提交信息模板</tspan></tspan></text></g></g></g></g><g class="po-mind-topic" id="topic-2412578b-d9ac-46da-9902-12aaf17db23f" transform="matrix(1,0,0,1,206,-70.875)"><path d="M0,0 L142.2,0 C142.2,0 142.2,0 142.2,0 
                         L142.2,27 C142.2,27 142.2,27 142.2,27 
                         L0,27 C0,27 0,27 0,27 L0,0 
                         C0,0 0,0 0,0 Z" class="po-mind-topic-shape-fill" transform="matrix(1,0,0,1,0,0)" fill="none"></path><path d="M0,0 L142.2,0 C142.2,0 142.2,0 142.2,0 
                         L142.2,27 C142.2,27 142.2,27 142.2,27 
                         L0,27 C0,27 0,27 0,27 L0,0 
                         C0,0 0,0 0,0 Z" class="po-mind-topic-shape" transform="matrix(1,0,0,1,0,0)" fill="none" stroke-width="0" stroke="#746e6a"></path><g transform="matrix(1,0,0,1,10,5)"><g data-width="122.2" data-height="17" data-offsetx="0" transform="matrix(1,0,0,1,0,0)"><g><text text-anchor="start" align="top" anchor="start" font-size="12px" font-weight="" fill="rgb(96, 96, 96)" style="font-family: arial, 黑体;font-size: 12px;line-height: 140%;max-width: 900px;overflow-wrap: break-word;word-break: break-word;text-size-adjust: 100%;color: rgb(96, 96, 96);"><tspan x="0" y="11.159999999999997"><tspan dx="0">Code Review最佳实践</tspan></tspan></text></g></g></g></g><g class="po-mind-topic" id="topic-657be11c-c4d6-4b34-b5e2-73ef01b560a7" transform="matrix(1,0,0,1,206,-33.875)"><path d="M0,0 L118.2,0 C118.2,0 118.2,0 118.2,0 
                         L118.2,27 C118.2,27 118.2,27 118.2,27 
                         L0,27 C0,27 0,27 0,27 L0,0 
                         C0,0 0,0 0,0 Z" class="po-mind-topic-shape-fill" transform="matrix(1,0,0,1,0,0)" fill="none"></path><path d="M0,0 L118.2,0 C118.2,0 118.2,0 118.2,0 
                         L118.2,27 C118.2,27 118.2,27 118.2,27 
                         L0,27 C0,27 0,27 0,27 L0,0 
                         C0,0 0,0 0,0 Z" class="po-mind-topic-shape" transform="matrix(1,0,0,1,0,0)" fill="none" stroke-width="0" stroke="#746e6a"></path><g transform="matrix(1,0,0,1,10,5)"><g data-width="98.2" data-height="17" data-offsetx="0" transform="matrix(1,0,0,1,0,0)"><g><text text-anchor="start" align="top" anchor="start" font-size="12px" font-weight="" fill="rgb(96, 96, 96)" style="font-family: arial, 黑体;font-size: 12px;line-height: 140%;max-width: 900px;overflow-wrap: break-word;word-break: break-word;text-size-adjust: 100%;color: rgb(96, 96, 96);"><tspan x="0" y="11.159999999999997"><tspan dx="0">团队协作流程建议</tspan></tspan></text></g></g></g></g><g class="po-mind-topic" id="topic-4fe8a338-d706-4806-941a-36377560bb3e" transform="matrix(1,0,0,1,80.7,48.625)"><path d="M8,0 L105.3,0 C105.3,0 113.3,0 113.3,8 L113.3,21 C113.3,21 113.3,29 105.3,29
      L8,29 C8,29 0,29 0,21 L0,8 C0,8 0,0 8,0Z" class="po-mind-topic-shape-fill" transform="matrix(1,0,0,1,0.5,0.5)" fill="#ffffff"></path><path d="M8,0 L105.3,0 C105.3,0 113.3,0 113.3,8 L113.3,21 C113.3,21 113.3,29 105.3,29
      L8,29 C8,29 0,29 0,21 L0,8 C0,8 0,0 8,0Z" class="po-mind-topic-shape" transform="matrix(1,0,0,1,0.5,0.5)" fill="none" stroke-width="1" stroke="#d1cecd"></path><g transform="matrix(1,0,0,1,10.5,5.5)"><g data-width="93.3" data-height="19" data-offsetx="0" transform="matrix(1,0,0,1,0,0)"><g><text text-anchor="start" align="top" anchor="start" font-size="13px" font-weight="" fill="rgb(89, 89, 89)" style="font-family: arial, 黑体;font-size: 13px;line-height: 140%;max-width: 897px;overflow-wrap: break-word;word-break: break-word;text-size-adjust: 100%;color: rgb(89, 89, 89);"><tspan x="0" y="13"><tspan dx="0">性能优化与维护</tspan></tspan></text></g></g></g></g><g class="po-mind-topic" id="topic-de590428-2e01-4776-a729-7fae24fa9592" transform="matrix(1,0,0,1,219,13.125)"><path d="M0,0 L94.2,0 C94.2,0 94.2,0 94.2,0 
                         L94.2,27 C94.2,27 94.2,27 94.2,27 
                         L0,27 C0,27 0,27 0,27 L0,0 
                         C0,0 0,0 0,0 Z" class="po-mind-topic-shape-fill" transform="matrix(1,0,0,1,0,0)" fill="none"></path><path d="M0,0 L94.2,0 C94.2,0 94.2,0 94.2,0 
                         L94.2,27 C94.2,27 94.2,27 94.2,27 
                         L0,27 C0,27 0,27 0,27 L0,0 
                         C0,0 0,0 0,0 Z" class="po-mind-topic-shape" transform="matrix(1,0,0,1,0,0)" fill="none" stroke-width="0" stroke="#746e6a"></path><g transform="matrix(1,0,0,1,10,5)"><g data-width="74.2" data-height="17" data-offsetx="0" transform="matrix(1,0,0,1,0,0)"><g><text text-anchor="start" align="top" anchor="start" font-size="12px" font-weight="" fill="rgb(96, 96, 96)" style="font-family: arial, 黑体;font-size: 12px;line-height: 140%;max-width: 900px;overflow-wrap: break-word;word-break: break-word;text-size-adjust: 100%;color: rgb(96, 96, 96);"><tspan x="0" y="11.159999999999997"><tspan dx="0">性能优化命令</tspan></tspan></text></g></g></g></g><g class="po-mind-topic" id="topic-dce136d6-fafd-4232-9064-aee073f9cbe6" transform="matrix(1,0,0,1,219,50.125)"><path d="M0,0 L70.2,0 C70.2,0 70.2,0 70.2,0 
                         L70.2,27 C70.2,27 70.2,27 70.2,27 
                         L0,27 C0,27 0,27 0,27 L0,0 
                         C0,0 0,0 0,0 Z" class="po-mind-topic-shape-fill" transform="matrix(1,0,0,1,0,0)" fill="none"></path><path d="M0,0 L70.2,0 C70.2,0 70.2,0 70.2,0 
                         L70.2,27 C70.2,27 70.2,27 70.2,27 
                         L0,27 C0,27 0,27 0,27 L0,0 
                         C0,0 0,0 0,0 Z" class="po-mind-topic-shape" transform="matrix(1,0,0,1,0,0)" fill="none" stroke-width="0" stroke="#746e6a"></path><g transform="matrix(1,0,0,1,10,5)"><g data-width="50.2" data-height="17" data-offsetx="0" transform="matrix(1,0,0,1,0,0)"><g><text text-anchor="start" align="top" anchor="start" font-size="12px" font-weight="" fill="rgb(96, 96, 96)" style="font-family: arial, 黑体;font-size: 12px;line-height: 140%;max-width: 900px;overflow-wrap: break-word;word-break: break-word;text-size-adjust: 100%;color: rgb(96, 96, 96);"><tspan x="0" y="11.159999999999997"><tspan dx="0">仓库体检</tspan></tspan></text></g></g></g></g><g class="po-mind-topic" id="topic-79356709-b881-44c9-a0b1-f7825a097a14" transform="matrix(1,0,0,1,219,87.125)"><path d="M0,0 L73.2,0 C73.2,0 73.2,0 73.2,0 
                         L73.2,27 C73.2,27 73.2,27 73.2,27 
                         L0,27 C0,27 0,27 0,27 L0,0 
                         C0,0 0,0 0,0 Z" class="po-mind-topic-shape-fill" transform="matrix(1,0,0,1,0,0)" fill="none"></path><path d="M0,0 L73.2,0 C73.2,0 73.2,0 73.2,0 
                         L73.2,27 C73.2,27 73.2,27 73.2,27 
                         L0,27 C0,27 0,27 0,27 L0,0 
                         C0,0 0,0 0,0 Z" class="po-mind-topic-shape" transform="matrix(1,0,0,1,0,0)" fill="none" stroke-width="0" stroke="#746e6a"></path><g transform="matrix(1,0,0,1,10,5)"><g data-width="53.2" data-height="17" data-offsetx="0" transform="matrix(1,0,0,1,0,0)"><g><text text-anchor="start" align="top" anchor="start" font-size="12px" font-weight="" fill="rgb(96, 96, 96)" style="font-family: arial, 黑体;font-size: 12px;line-height: 140%;max-width: 900px;overflow-wrap: break-word;word-break: break-word;text-size-adjust: 100%;color: rgb(96, 96, 96);"><tspan x="0" y="11.159999999999997"><tspan dx="0">GPG签名</tspan></tspan></text></g></g></g></g><g class="po-mind-topic" id="topic-fc5939ee-991c-49f1-b88d-37013a4afcd9" transform="matrix(1,0,0,1,80.7,151.125)"><path d="M8,0 L66.3,0 C66.3,0 74.3,0 74.3,8 L74.3,21 C74.3,21 74.3,29 66.3,29
      L8,29 C8,29 0,29 0,21 L0,8 C0,8 0,0 8,0Z" class="po-mind-topic-shape-fill" transform="matrix(1,0,0,1,0.5,0.5)" fill="#ffffff"></path><path d="M8,0 L66.3,0 C66.3,0 74.3,0 74.3,8 L74.3,21 C74.3,21 74.3,29 66.3,29
      L8,29 C8,29 0,29 0,21 L0,8 C0,8 0,0 8,0Z" class="po-mind-topic-shape" transform="matrix(1,0,0,1,0.5,0.5)" fill="none" stroke-width="1" stroke="#d1cecd"></path><g transform="matrix(1,0,0,1,10.5,5.5)"><g data-width="54.3" data-height="19" data-offsetx="0" transform="matrix(1,0,0,1,0,0)"><g><text text-anchor="start" align="top" anchor="start" font-size="13px" font-weight="" fill="rgb(89, 89, 89)" style="font-family: arial, 黑体;font-size: 13px;line-height: 140%;max-width: 897px;overflow-wrap: break-word;word-break: break-word;text-size-adjust: 100%;color: rgb(89, 89, 89);"><tspan x="0" y="13"><tspan dx="0">统计分析</tspan></tspan></text></g></g></g></g><g class="po-mind-topic" id="topic-d0d563be-4fc5-47c0-aa2c-c7a0ef0b35e0" transform="matrix(1,0,0,1,180,134.125)"><path d="M0,0 L70.2,0 C70.2,0 70.2,0 70.2,0 
                         L70.2,27 C70.2,27 70.2,27 70.2,27 
                         L0,27 C0,27 0,27 0,27 L0,0 
                         C0,0 0,0 0,0 Z" class="po-mind-topic-shape-fill" transform="matrix(1,0,0,1,0,0)" fill="none"></path><path d="M0,0 L70.2,0 C70.2,0 70.2,0 70.2,0 
                         L70.2,27 C70.2,27 70.2,27 70.2,27 
                         L0,27 C0,27 0,27 0,27 L0,0 
                         C0,0 0,0 0,0 Z" class="po-mind-topic-shape" transform="matrix(1,0,0,1,0,0)" fill="none" stroke-width="0" stroke="#746e6a"></path><g transform="matrix(1,0,0,1,10,5)"><g data-width="50.2" data-height="17" data-offsetx="0" transform="matrix(1,0,0,1,0,0)"><g><text text-anchor="start" align="top" anchor="start" font-size="12px" font-weight="" fill="rgb(96, 96, 96)" style="font-family: arial, 黑体;font-size: 12px;line-height: 140%;max-width: 900px;overflow-wrap: break-word;word-break: break-word;text-size-adjust: 100%;color: rgb(96, 96, 96);"><tspan x="0" y="11.159999999999997"><tspan dx="0">贡献统计</tspan></tspan></text></g></g></g></g><g class="po-mind-topic" id="topic-0de2be0e-d7b0-41fc-a377-1c3ee8e19fa1" transform="matrix(1,0,0,1,180,171.125)"><path d="M0,0 L70.2,0 C70.2,0 70.2,0 70.2,0 
                         L70.2,27 C70.2,27 70.2,27 70.2,27 
                         L0,27 C0,27 0,27 0,27 L0,0 
                         C0,0 0,0 0,0 Z" class="po-mind-topic-shape-fill" transform="matrix(1,0,0,1,0,0)" fill="none"></path><path d="M0,0 L70.2,0 C70.2,0 70.2,0 70.2,0 
                         L70.2,27 C70.2,27 70.2,27 70.2,27 
                         L0,27 C0,27 0,27 0,27 L0,0 
                         C0,0 0,0 0,0 Z" class="po-mind-topic-shape" transform="matrix(1,0,0,1,0,0)" fill="none" stroke-width="0" stroke="#746e6a"></path><g transform="matrix(1,0,0,1,10,5)"><g data-width="50.2" data-height="17" data-offsetx="0" transform="matrix(1,0,0,1,0,0)"><g><text text-anchor="start" align="top" anchor="start" font-size="12px" font-weight="" fill="rgb(96, 96, 96)" style="font-family: arial, 黑体;font-size: 12px;line-height: 140%;max-width: 900px;overflow-wrap: break-word;word-break: break-word;text-size-adjust: 100%;color: rgb(96, 96, 96);"><tspan x="0" y="11.159999999999997"><tspan dx="0">项目分析</tspan></tspan></text></g></g></g></g><g class="po-mind-topic" id="topic-874af751-4ba1-4001-ae27-f5288ebad227" transform="matrix(1,0,0,1,80.7,253.625)"><path d="M8,0 L105.3,0 C105.3,0 113.3,0 113.3,8 L113.3,21 C113.3,21 113.3,29 105.3,29
      L8,29 C8,29 0,29 0,21 L0,8 C0,8 0,0 8,0Z" class="po-mind-topic-shape-fill" transform="matrix(1,0,0,1,0.5,0.5)" fill="#ffffff"></path><path d="M8,0 L105.3,0 C105.3,0 113.3,0 113.3,8 L113.3,21 C113.3,21 113.3,29 105.3,29
      L8,29 C8,29 0,29 0,21 L0,8 C0,8 0,0 8,0Z" class="po-mind-topic-shape" transform="matrix(1,0,0,1,0.5,0.5)" fill="none" stroke-width="1" stroke="#d1cecd"></path><g transform="matrix(1,0,0,1,10.5,5.5)"><g data-width="93.3" data-height="19" data-offsetx="0" transform="matrix(1,0,0,1,0,0)"><g><text text-anchor="start" align="top" anchor="start" font-size="13px" font-weight="" fill="rgb(89, 89, 89)" style="font-family: arial, 黑体;font-size: 13px;line-height: 140%;max-width: 897px;overflow-wrap: break-word;word-break: break-word;text-size-adjust: 100%;color: rgb(89, 89, 89);"><tspan x="0" y="13"><tspan dx="0">故障排查与恢复</tspan></tspan></text></g></g></g></g><g class="po-mind-topic" id="topic-f0af6d06-7b8b-4902-82ee-b81ffe8f824a" transform="matrix(1,0,0,1,219,218.125)"><path d="M0,0 L94.2,0 C94.2,0 94.2,0 94.2,0 
                         L94.2,27 C94.2,27 94.2,27 94.2,27 
                         L0,27 C0,27 0,27 0,27 L0,0 
                         C0,0 0,0 0,0 Z" class="po-mind-topic-shape-fill" transform="matrix(1,0,0,1,0,0)" fill="none"></path><path d="M0,0 L94.2,0 C94.2,0 94.2,0 94.2,0 
                         L94.2,27 C94.2,27 94.2,27 94.2,27 
                         L0,27 C0,27 0,27 0,27 L0,0 
                         C0,0 0,0 0,0 Z" class="po-mind-topic-shape" transform="matrix(1,0,0,1,0,0)" fill="none" stroke-width="0" stroke="#746e6a"></path><g transform="matrix(1,0,0,1,10,5)"><g data-width="74.2" data-height="17" data-offsetx="0" transform="matrix(1,0,0,1,0,0)"><g><text text-anchor="start" align="top" anchor="start" font-size="12px" font-weight="" fill="rgb(96, 96, 96)" style="font-family: arial, 黑体;font-size: 12px;line-height: 140%;max-width: 900px;overflow-wrap: break-word;word-break: break-word;text-size-adjust: 100%;color: rgb(96, 96, 96);"><tspan x="0" y="11.159999999999997"><tspan dx="0">常见问题排查</tspan></tspan></text></g></g></g></g><g class="po-mind-topic" id="topic-6a4dd8d2-22d9-4826-a19b-1d8236bffa49" transform="matrix(1,0,0,1,219,255.125)"><path d="M0,0 L94.2,0 C94.2,0 94.2,0 94.2,0 
                         L94.2,27 C94.2,27 94.2,27 94.2,27 
                         L0,27 C0,27 0,27 0,27 L0,0 
                         C0,0 0,0 0,0 Z" class="po-mind-topic-shape-fill" transform="matrix(1,0,0,1,0,0)" fill="none"></path><path d="M0,0 L94.2,0 C94.2,0 94.2,0 94.2,0 
                         L94.2,27 C94.2,27 94.2,27 94.2,27 
                         L0,27 C0,27 0,27 0,27 L0,0 
                         C0,0 0,0 0,0 Z" class="po-mind-topic-shape" transform="matrix(1,0,0,1,0,0)" fill="none" stroke-width="0" stroke="#746e6a"></path><g transform="matrix(1,0,0,1,10,5)"><g data-width="74.2" data-height="17" data-offsetx="0" transform="matrix(1,0,0,1,0,0)"><g><text text-anchor="start" align="top" anchor="start" font-size="12px" font-weight="" fill="rgb(96, 96, 96)" style="font-family: arial, 黑体;font-size: 12px;line-height: 140%;max-width: 900px;overflow-wrap: break-word;word-break: break-word;text-size-adjust: 100%;color: rgb(96, 96, 96);"><tspan x="0" y="11.159999999999997"><tspan dx="0">紧急恢复场景</tspan></tspan></text></g></g></g></g><g class="po-mind-topic" id="topic-31d14505-4f48-4baa-9532-80bd8019f599" transform="matrix(1,0,0,1,219,292.125)"><path d="M0,0 L94.2,0 C94.2,0 94.2,0 94.2,0 
                         L94.2,27 C94.2,27 94.2,27 94.2,27 
                         L0,27 C0,27 0,27 0,27 L0,0 
                         C0,0 0,0 0,0 Z" class="po-mind-topic-shape-fill" transform="matrix(1,0,0,1,0,0)" fill="none"></path><path d="M0,0 L94.2,0 C94.2,0 94.2,0 94.2,0 
                         L94.2,27 C94.2,27 94.2,27 94.2,27 
                         L0,27 C0,27 0,27 0,27 L0,0 
                         C0,0 0,0 0,0 Z" class="po-mind-topic-shape" transform="matrix(1,0,0,1,0,0)" fill="none" stroke-width="0" stroke="#746e6a"></path><g transform="matrix(1,0,0,1,10,5)"><g data-width="74.2" data-height="17" data-offsetx="0" transform="matrix(1,0,0,1,0,0)"><g><text text-anchor="start" align="top" anchor="start" font-size="12px" font-weight="" fill="rgb(96, 96, 96)" style="font-family: arial, 黑体;font-size: 12px;line-height: 140%;max-width: 900px;overflow-wrap: break-word;word-break: break-word;text-size-adjust: 100%;color: rgb(96, 96, 96);"><tspan x="0" y="11.159999999999997"><tspan dx="0">数据恢复技巧</tspan></tspan></text></g></g></g></g><g class="po-mind-topic" id="topic-faf7f0f9-13f4-486e-8a40-cd0f44af59d1" transform="matrix(1,0,0,1,80.7,339.125)"><path d="M8,0 L53.3,0 C53.3,0 61.3,0 61.3,8 L61.3,21 C61.3,21 61.3,29 53.3,29
      L8,29 C8,29 0,29 0,21 L0,8 C0,8 0,0 8,0Z" class="po-mind-topic-shape-fill" transform="matrix(1,0,0,1,0.5,0.5)" fill="#ffffff"></path><path d="M8,0 L53.3,0 C53.3,0 61.3,0 61.3,8 L61.3,21 C61.3,21 61.3,29 53.3,29
      L8,29 C8,29 0,29 0,21 L0,8 C0,8 0,0 8,0Z" class="po-mind-topic-shape" transform="matrix(1,0,0,1,0.5,0.5)" fill="none" stroke-width="1" stroke="#d1cecd"></path><g transform="matrix(1,0,0,1,10.5,5.5)"><g data-width="41.3" data-height="19" data-offsetx="0" transform="matrix(1,0,0,1,0,0)"><g><text text-anchor="start" align="top" anchor="start" font-size="13px" font-weight="" fill="rgb(89, 89, 89)" style="font-family: arial, 黑体;font-size: 13px;line-height: 140%;max-width: 897px;overflow-wrap: break-word;word-break: break-word;text-size-adjust: 100%;color: rgb(89, 89, 89);"><tspan x="0" y="13"><tspan dx="0">小技巧</tspan></tspan></text></g></g></g></g></g><g class="po-mind-associative-line-label-container"></g></g><style>
    .connection-svg{
        outline: none;
        box-shadow: none;
        -webkit-tap-highlight-color: transparent;
    }
    .connection-line {
        cursor: pointer;
    }

    .connection-line-bg {
        cursor: pointer;
    }

    .node-add-btn {
        cursor: pointer;
    }

    .po-richtext-node-wrap ol,
    .area_box ol,
    .po-measureCustomNode ol {
        padding-left: 20px;
        margin: 0;
    }
    .po-richtext-node-wrap ol li,
    .area_box ol li,
    .po-measureCustomNode ol li {
        list-style: decimal;
    }
    .po-richtext-node-wrap ul,
    .area_box ul,
    .po-measureCustomNode ul {
        padding-left: calc(15px + 0.5em);
        list-style: none;
        margin: 0;
    }
    .po-richtext-node-wrap ul li,
    .area_box ul li,
    .po-measureCustomNode ul li {
        list-style: disc;
    }
    .po-richtext-node-wrap p,
    .po-richtext-node-wrap h1,
    .po-richtext-node-wrap h2,
    .po-richtext-node-wrap h3,
    .po-richtext-node-wrap h4,
    .po-richtext-node-wrap h5,
    .po-richtext-node-wrap h6,
    .area_box p,
    .area_box h1,
    .area_box h2,
    .area_box h3,
    .area_box h4,
    .area_box h5,
    .area_box h6,
    .po-measureCustomNode p,
    .po-measureCustomNode h1,
    .po-measureCustomNode h2,
    .po-measureCustomNode h3,
    .po-measureCustomNode h4,
    .po-measureCustomNode h5,
    .po-measureCustomNode h6 {
        margin: 0;
    }
    .po-safari-fixed {
        position: fixed;
    }
</style></svg>